<?xml version="1.0" encoding="UTF-8" standalone="no"?>
<!-- Created with Digital by H.Neemann -->
<!-- created: Mon Nov 06 18:46:26 BRT 2023 -->

<svg
   xmlns:svg="http://www.w3.org/2000/svg"
   xmlns="http://www.w3.org/2000/svg"
   width="121.05mm"
   height="149.4mm"
   viewBox="378 -374 807 996">
<g stroke-linecap="square">
<path d="M 680,360 L 690,360 L 700,360" stroke="#000000" stroke-width="2.8" fill="none"/>
<path d="M 400,60 L 410,60 L 420,60" stroke="#000000" stroke-width="2.8" fill="none"/>
<path d="M 420,80 L 410,80" stroke="#000000" stroke-width="2.8" fill="none"/>
<path d="M 420,100 L 410,100" stroke="#000000" stroke-width="2.8" fill="none"/>
<path d="M 420,120 L 430,120 L 440,120" stroke="#000000" stroke-width="2.8" fill="none"/>
<path d="M 440,140 L 430,140" stroke="#000000" stroke-width="2.8" fill="none"/>
<path d="M 440,160 L 430,160" stroke="#000000" stroke-width="2.8" fill="none"/>
<path d="M 1021,-360 L 1021,-71" stroke="#000000" stroke-width="2.8" fill="none"/>
<path d="M 1021,280 L 1021,-9" stroke="#000000" stroke-width="2.8" fill="none"/>
<path d="M 980,-360 L 990,-360 L 1000,-360" stroke="#000000" stroke-width="2.8" fill="none"/>
<path d="M 1000,-340 L 990,-340" stroke="#000000" stroke-width="2.8" fill="none"/>
<path d="M 1000,-320 L 990,-320" stroke="#000000" stroke-width="2.8" fill="none"/>
<path d="M 1000,-300 L 990,-300" stroke="#000000" stroke-width="2.8" fill="none"/>
<path d="M 1000,-280 L 990,-280" stroke="#000000" stroke-width="2.8" fill="none"/>
<path d="M 1000,-260 L 990,-260" stroke="#000000" stroke-width="2.8" fill="none"/>
<path d="M 1000,-240 L 990,-240" stroke="#000000" stroke-width="2.8" fill="none"/>
<path d="M 1000,-220 L 990,-220" stroke="#000000" stroke-width="2.8" fill="none"/>
<path d="M 1000,-200 L 990,-200" stroke="#000000" stroke-width="2.8" fill="none"/>
<path d="M 1000,-180 L 990,-180" stroke="#000000" stroke-width="2.8" fill="none"/>
<path d="M 1000,-160 L 990,-160" stroke="#000000" stroke-width="2.8" fill="none"/>
<path d="M 1000,-140 L 990,-140" stroke="#000000" stroke-width="2.8" fill="none"/>
<path d="M 1000,-120 L 990,-120" stroke="#000000" stroke-width="2.8" fill="none"/>
<path d="M 1000,-100 L 990,-100" stroke="#000000" stroke-width="2.8" fill="none"/>
<path d="M 1000,-80 L 990,-80" stroke="#000000" stroke-width="2.8" fill="none"/>
<path d="M 1000,-60 L 990,-60" stroke="#000000" stroke-width="2.8" fill="none"/>
<path d="M 980,-20 L 990,-20 L 1000,-20" stroke="#000000" stroke-width="2.8" fill="none"/>
<path d="M 1000,0 L 990,0" stroke="#000000" stroke-width="2.8" fill="none"/>
<path d="M 1000,20 L 990,20" stroke="#000000" stroke-width="2.8" fill="none"/>
<path d="M 1000,40 L 990,40" stroke="#000000" stroke-width="2.8" fill="none"/>
<path d="M 1000,60 L 990,60" stroke="#000000" stroke-width="2.8" fill="none"/>
<path d="M 1000,80 L 990,80" stroke="#000000" stroke-width="2.8" fill="none"/>
<path d="M 1000,100 L 990,100" stroke="#000000" stroke-width="2.8" fill="none"/>
<path d="M 1000,120 L 990,120" stroke="#000000" stroke-width="2.8" fill="none"/>
<path d="M 1000,140 L 990,140" stroke="#000000" stroke-width="2.8" fill="none"/>
<path d="M 1000,160 L 990,160" stroke="#000000" stroke-width="2.8" fill="none"/>
<path d="M 1000,180 L 990,180" stroke="#000000" stroke-width="2.8" fill="none"/>
<path d="M 1000,200 L 990,200" stroke="#000000" stroke-width="2.8" fill="none"/>
<path d="M 1000,220 L 990,220" stroke="#000000" stroke-width="2.8" fill="none"/>
<path d="M 1000,240 L 990,240" stroke="#000000" stroke-width="2.8" fill="none"/>
<path d="M 1000,260 L 990,260" stroke="#000000" stroke-width="2.8" fill="none"/>
<path d="M 1000,280 L 990,280" stroke="#000000" stroke-width="2.8" fill="none"/>
<path d="M 940,-360 L 950,-360 L 960,-360" stroke="#000000" stroke-width="2.8" fill="none"/>
<path d="M 960,-340 L 950,-340" stroke="#000000" stroke-width="2.8" fill="none"/>
<path d="M 820,160 L 830,160 L 840,160" stroke="#000000" stroke-width="2.8" fill="none"/>
<path d="M 840,180 L 830,180" stroke="#000000" stroke-width="2.8" fill="none"/>
<path d="M 880,180 L 890,180 L 900,180" stroke="#000000" stroke-width="2.8" fill="none"/>
<path d="M 880,200 L 890,200" stroke="#000000" stroke-width="2.8" fill="none"/>
<path d="M 640,240 L 640,320 L 720,320" stroke="#000000" stroke-width="2.8" fill="none"/>
<path d="M 580,320 L 620,320 L 620,220 L 420,220 L 420,120" stroke="#000000" stroke-width="2.8" fill="none"/>
<path d="M 920,320 L 940,320 L 960,320" stroke="#000000" stroke-width="2.8" fill="none"/>
<path d="M 1000,0 L 1020,0" stroke="#000000" stroke-width="2.8" fill="none"/>
<path d="M 1000,-260 L 1020,-260" stroke="#000000" stroke-width="2.8" fill="none"/>
<path d="M 1000,260 L 1020,260" stroke="#000000" stroke-width="2.8" fill="none"/>
<path d="M 780,580 L 860,580 L 860,380 L 880,380" stroke="#000000" stroke-width="2.8" fill="none"/>
<path d="M 1000,-200 L 1020,-200" stroke="#000000" stroke-width="2.8" fill="none"/>
<path d="M 660,440 L 660,520 L 720,520 L 724,520" stroke="#000000" stroke-width="2.8" fill="none"/>
<path d="M 640,120 L 640,200 L 760,200 L 760,180" stroke="#000000" stroke-width="2.8" fill="none"/>
<path d="M 400,60 L 400,200 L 600,200 L 600,360 L 580,360" stroke="#000000" stroke-width="2.8" fill="none"/>
<path d="M 1000,200 L 1020,200" stroke="#000000" stroke-width="2.8" fill="none"/>
<path d="M 840,200 L 880,200" stroke="#000000" stroke-width="2.8" fill="none"/>
<path d="M 1000,-140 L 1020,-140" stroke="#000000" stroke-width="2.8" fill="none"/>
<path d="M 720,140 L 740,140" stroke="#000000" stroke-width="2.8" fill="none"/>
<path d="M 1000,140 L 1020,140" stroke="#000000" stroke-width="2.8" fill="none"/>
<path d="M 440,140 L 480,140" stroke="#000000" stroke-width="2.8" fill="none"/>
<path d="M 540,140 L 560,140 L 564,140" stroke="#000000" stroke-width="2.8" fill="none"/>
<path d="M 1000,-80 L 1020,-80" stroke="#000000" stroke-width="2.8" fill="none"/>
<path d="M 720,80 L 740,80" stroke="#000000" stroke-width="2.8" fill="none"/>
<path d="M 1000,80 L 1020,80" stroke="#000000" stroke-width="2.8" fill="none"/>
<path d="M 420,80 L 440,80 L 440,100 L 560,100 L 564,100" stroke="#000000" stroke-width="2.8" fill="none"/>
<path d="M 1000,-340 L 1020,-340" stroke="#000000" stroke-width="2.8" fill="none"/>
<path d="M 1000,-20 L 1020,-20 L 1024,-20" stroke="#000000" stroke-width="2.8" fill="none"/>
<path d="M 960,-340 L 960,-20 L 980,-20" stroke="#000000" stroke-width="2.8" fill="none"/>
<path d="M 780,340 L 800,340 L 800,260 L 880,260" stroke="#000000" stroke-width="2.8" fill="none"/>
<path d="M 860,340 L 880,340" stroke="#000000" stroke-width="2.8" fill="none"/>
<path d="M 1000,20 L 1020,20" stroke="#000000" stroke-width="2.8" fill="none"/>
<path d="M 1000,-280 L 1020,-280" stroke="#000000" stroke-width="2.8" fill="none"/>
<path d="M 580,280 L 660,280 L 660,360 L 680,360" stroke="#000000" stroke-width="2.8" fill="none"/>
<path d="M 1000,280 L 1020,280" stroke="#000000" stroke-width="2.8" fill="none"/>
<path d="M 660,520 L 660,600 L 720,600" stroke="#000000" stroke-width="2.8" fill="none"/>
<path d="M 1000,-220 L 1020,-220" stroke="#000000" stroke-width="2.8" fill="none"/>
<path d="M 1000,220 L 1020,220" stroke="#000000" stroke-width="2.8" fill="none"/>
<path d="M 1000,-160 L 1020,-160" stroke="#000000" stroke-width="2.8" fill="none"/>
<path d="M 1000,160 L 1020,160" stroke="#000000" stroke-width="2.8" fill="none"/>
<path d="M 440,160 L 460,160" stroke="#000000" stroke-width="2.8" fill="none"/>
<path d="M 1000,-100 L 1020,-100" stroke="#000000" stroke-width="2.8" fill="none"/>
<path d="M 780,420 L 820,420 L 820,320 L 880,320" stroke="#000000" stroke-width="2.8" fill="none"/>
<path d="M 1000,100 L 1020,100" stroke="#000000" stroke-width="2.8" fill="none"/>
<path d="M 1000,-360 L 1020,-360" stroke="#000000" stroke-width="2.8" fill="none"/>
<path d="M 960,-360 L 980,-360" stroke="#000000" stroke-width="2.8" fill="none"/>
<path d="M 1100,-40 L 1120,-40" stroke="#000000" stroke-width="2.8" fill="none"/>
<path d="M 700,360 L 720,360" stroke="#000000" stroke-width="2.8" fill="none"/>
<path d="M 1000,40 L 1020,40" stroke="#000000" stroke-width="2.8" fill="none"/>
<path d="M 1000,-300 L 1020,-300" stroke="#000000" stroke-width="2.8" fill="none"/>
<path d="M 620,320 L 620,620 L 900,620 L 900,400" stroke="#000000" stroke-width="2.8" fill="none"/>
<path d="M 860,300 L 880,300" stroke="#000000" stroke-width="2.8" fill="none"/>
<path d="M 1000,-240 L 1020,-240" stroke="#000000" stroke-width="2.8" fill="none"/>
<path d="M 640,480 L 640,560 L 720,560" stroke="#000000" stroke-width="2.8" fill="none"/>
<path d="M 780,240 L 820,240 L 880,240" stroke="#000000" stroke-width="2.8" fill="none"/>
<path d="M 580,240 L 640,240 L 720,240" stroke="#000000" stroke-width="2.8" fill="none"/>
<path d="M 1000,240 L 1020,240" stroke="#000000" stroke-width="2.8" fill="none"/>
<path d="M 1000,-180 L 1020,-180" stroke="#000000" stroke-width="2.8" fill="none"/>
<path d="M 720,180 L 740,180" stroke="#000000" stroke-width="2.8" fill="none"/>
<path d="M 1000,180 L 1020,180" stroke="#000000" stroke-width="2.8" fill="none"/>
<path d="M 840,180 L 880,180" stroke="#000000" stroke-width="2.8" fill="none"/>
<path d="M 780,500 L 840,500 L 840,360 L 880,360" stroke="#000000" stroke-width="2.8" fill="none"/>
<path d="M 1000,-120 L 1020,-120" stroke="#000000" stroke-width="2.8" fill="none"/>
<path d="M 660,360 L 660,440 L 720,440 L 734,440" stroke="#000000" stroke-width="2.8" fill="none"/>
<path d="M 620,120 L 640,120 L 760,120 L 760,80" stroke="#000000" stroke-width="2.8" fill="none"/>
<path d="M 1000,120 L 1020,120" stroke="#000000" stroke-width="2.8" fill="none"/>
<path d="M 440,120 L 460,120" stroke="#000000" stroke-width="2.8" fill="none"/>
<path d="M 1000,-60 L 1020,-60 L 1024,-60" stroke="#000000" stroke-width="2.8" fill="none"/>
<path d="M 1000,60 L 1020,60" stroke="#000000" stroke-width="2.8" fill="none"/>
<path d="M 1000,-320 L 1020,-320" stroke="#000000" stroke-width="2.8" fill="none"/>
<path d="M 734,400 L 720,400 L 640,400 L 640,480 L 720,480 L 724,480" stroke="#000000" stroke-width="2.8" fill="none"/>
<path d="M 640,320 L 640,400" stroke="#000000" stroke-width="2.8" fill="none"/>
<path d="M 880,280 L 840,280 L 840,220 L 900,220 L 900,180" stroke="#000000" stroke-width="2.8" fill="none"/>
<path d="M 720,280 L 680,280 L 680,220 L 800,220 L 800,160 L 780,160" stroke="#000000" stroke-width="2.8" fill="none"/>
<path d="M 940,-360 L 940,320" stroke="#000000" stroke-width="2.8" fill="none"/>
<path d="M 820,160 L 820,240" stroke="#000000" stroke-width="2.8" fill="none"/>
<path d="M 680,80 L 660,80 L 660,40 L 740,40" stroke="#000000" stroke-width="2.8" fill="none"/>
<path d="M 660,80 L 660,280" stroke="#000000" stroke-width="2.8" fill="none"/>
<path d="M 720,260 L 700,260 L 700,100 L 800,100 L 800,60 L 780,60" stroke="#000000" stroke-width="2.8" fill="none"/>
<g>
<circle cx="640.0" cy="320.0" r="4.0" stroke="#000000" stroke-width="2.8" fill="#000000" />
<circle cx="620.0" cy="320.0" r="4.0" stroke="#000000" stroke-width="2.8" fill="#000000" />
<circle cx="940.0" cy="320.0" r="4.0" stroke="#000000" stroke-width="2.8" fill="#000000" />
<circle cx="660.0" cy="520.0" r="4.0" stroke="#000000" stroke-width="2.8" fill="#000000" />
<circle cx="640.0" cy="400.0" r="4.0" stroke="#000000" stroke-width="2.8" fill="#000000" />
<circle cx="660.0" cy="80.0" r="4.0" stroke="#000000" stroke-width="2.8" fill="#000000" />
<circle cx="660.0" cy="280.0" r="4.0" stroke="#000000" stroke-width="2.8" fill="#000000" />
<circle cx="640.0" cy="480.0" r="4.0" stroke="#000000" stroke-width="2.8" fill="#000000" />
<circle cx="660.0" cy="360.0" r="4.0" stroke="#000000" stroke-width="2.8" fill="#000000" />
<circle cx="820.0" cy="240.0" r="4.0" stroke="#000000" stroke-width="2.8" fill="#000000" />
<circle cx="640.0" cy="240.0" r="4.0" stroke="#000000" stroke-width="2.8" fill="#000000" />
<circle cx="660.0" cy="440.0" r="4.0" stroke="#000000" stroke-width="2.8" fill="#000000" />
<circle cx="640.0" cy="120.0" r="4.0" stroke="#000000" stroke-width="2.8" fill="#000000" />
</g>
<g>
<path d="M 721,230 L 779,230 L 779,290 L 721,290 Z" stroke="#000000" stroke-width="2.8" fill="none"/>
<text text-anchor="start" x="724.0" y="246.75" fill="#000000" style="font-size:18px">a</text>
<text text-anchor="start" x="724.0" y="266.75" fill="#000000" style="font-size:18px">b</text>
<text text-anchor="start" x="724.0" y="286.75" fill="#000000" style="font-size:18px">c<tspan style="font-size:80%;baseline-shift:sub;">i</tspan></text>
<text text-anchor="end" x="776.0" y="246.75" fill="#000000" style="font-size:18px">s</text>
<text text-anchor="end" x="776.0" y="266.75" fill="#000000" style="font-size:18px">c<tspan style="font-size:80%;baseline-shift:sub;">o</tspan></text>
<text text-anchor="middle" x="750.0" y="307.5" fill="#000000" style="font-size:18px">Add</text>
<circle cx="720.0" cy="240.0" r="2.0" stroke="#000000" stroke-width="2.8" fill="#000000" />
<circle cx="720.0" cy="260.0" r="2.0" stroke="#000000" stroke-width="2.8" fill="#000000" />
<circle cx="720.0" cy="280.0" r="2.0" stroke="#000000" stroke-width="2.8" fill="#000000" />
<circle cx="780.0" cy="240.0" r="2.0" stroke="#000000" stroke-width="2.8" fill="#000000" />
<circle cx="780.0" cy="260.0" r="2.0" stroke="#000000" stroke-width="2.8" fill="#000000" />
</g>
<g>
<path d="M 721,310 L 779,310 L 779,370 L 721,370 Z" stroke="#000000" stroke-width="2.8" fill="none"/>
<text text-anchor="start" x="724.0" y="326.75" fill="#000000" style="font-size:18px">in</text>
<text text-anchor="start" x="724.0" y="366.75" fill="#000000" style="font-size:18px">shift</text>
<text text-anchor="end" x="776.0" y="346.75" fill="#000000" style="font-size:18px">out</text>
<text text-anchor="middle" x="750.0" y="387.5" fill="#000000" style="font-size:18px">Shift</text>
<circle cx="720.0" cy="320.0" r="2.0" stroke="#000000" stroke-width="2.8" fill="#000000" />
<circle cx="720.0" cy="360.0" r="2.0" stroke="#000000" stroke-width="2.8" fill="#000000" />
<circle cx="780.0" cy="340.0" r="2.0" stroke="#000000" stroke-width="2.8" fill="#000000" />
</g>
<g>
<path d="M 881,236 L 919,245 L 919,395 L 881,404 Z" stroke="#000000" stroke-width="2.8" fill="none"/>
<text text-anchor="start" x="883.0" y="255.5" fill="#000000" style="font-size:18px">0</text>
<circle cx="900.0" cy="400.0" r="2.0" stroke="#000000" stroke-width="2.8" fill="#000000" />
<circle cx="880.0" cy="240.0" r="2.0" stroke="#000000" stroke-width="2.8" fill="#000000" />
<circle cx="880.0" cy="260.0" r="2.0" stroke="#000000" stroke-width="2.8" fill="#000000" />
<circle cx="880.0" cy="280.0" r="2.0" stroke="#000000" stroke-width="2.8" fill="#000000" />
<circle cx="880.0" cy="300.0" r="2.0" stroke="#000000" stroke-width="2.8" fill="#000000" />
<circle cx="880.0" cy="320.0" r="2.0" stroke="#000000" stroke-width="2.8" fill="#000000" />
<circle cx="880.0" cy="340.0" r="2.0" stroke="#000000" stroke-width="2.8" fill="#000000" />
<circle cx="880.0" cy="360.0" r="2.0" stroke="#000000" stroke-width="2.8" fill="#000000" />
<circle cx="880.0" cy="380.0" r="2.0" stroke="#000000" stroke-width="2.8" fill="#000000" />
<circle cx="920.0" cy="320.0" r="2.0" stroke="#000000" stroke-width="2.8" fill="#000000" />
</g>
<g>
<path d="M 731,450 C 740,440 740,400 731,390 C 740,390 760,400 780,420 C 760,440 740,450 731,450 Z" stroke="#000000" stroke-width="2.8" fill="none"/>
<path d="M 720,450 C 730,440 730,400 720,390" stroke="#000000" stroke-width="2.8" fill="none"/>
<circle cx="720.0" cy="400.0" r="2.0" stroke="#000000" stroke-width="2.8" fill="#000000" />
<circle cx="720.0" cy="440.0" r="2.0" stroke="#000000" stroke-width="2.8" fill="#000000" />
<circle cx="780.0" cy="420.0" r="2.0" stroke="#000000" stroke-width="2.8" fill="#000000" />
</g>
<g>
<path d="M 730,530 L 720,530 C 730,520 730,480 720,470 L 730,470 C 740,470 760,480 780,500 C 760,520 740,530 730,530 Z" stroke="#000000" stroke-width="2.8" fill="none"/>
<circle cx="720.0" cy="480.0" r="2.0" stroke="#000000" stroke-width="2.8" fill="#000000" />
<circle cx="720.0" cy="520.0" r="2.0" stroke="#000000" stroke-width="2.8" fill="#000000" />
<circle cx="780.0" cy="500.0" r="2.0" stroke="#000000" stroke-width="2.8" fill="#000000" />
</g>
<g>
<path d="M 750,610 L 721,610 L 721,550 L 750,550 C 760,550 780,560 779,580 C 779,600 760,610 750,610 Z" stroke="#000000" stroke-width="2.8" fill="none"/>
<circle cx="720.0" cy="560.0" r="2.0" stroke="#000000" stroke-width="2.8" fill="#000000" />
<circle cx="720.0" cy="600.0" r="2.0" stroke="#000000" stroke-width="2.8" fill="#000000" />
<circle cx="780.0" cy="580.0" r="2.0" stroke="#000000" stroke-width="2.8" fill="#000000" />
</g>
<g>
<circle cx="576.0" cy="240.0" r="4.0" stroke="#000000" stroke-width="2.8" fill="none" />
<text text-anchor="end" x="566.0" y="249.0" fill="#000000" style="font-size:24px"><tspan style="font-style:italic;">A</tspan></text>
<circle cx="580.0" cy="240.0" r="2.0" stroke="#000000" stroke-width="2.8" fill="#000000" />
</g>
<g>
<circle cx="576.0" cy="280.0" r="4.0" stroke="#000000" stroke-width="2.8" fill="none" />
<text text-anchor="end" x="566.0" y="289.0" fill="#000000" style="font-size:24px"><tspan style="font-style:italic;">B</tspan></text>
<circle cx="580.0" cy="280.0" r="2.0" stroke="#000000" stroke-width="2.8" fill="#000000" />
</g>
<g>
<circle cx="576.0" cy="320.0" r="4.0" stroke="#000000" stroke-width="2.8" fill="none" />
<text text-anchor="end" x="566.0" y="329.0" fill="#000000" style="font-size:24px"><tspan style="font-style:italic;">OP3</tspan></text>
<circle cx="580.0" cy="320.0" r="2.0" stroke="#000000" stroke-width="2.8" fill="#000000" />
</g>
<g>
<circle cx="576.0" cy="360.0" r="4.0" stroke="#000000" stroke-width="2.8" fill="none" />
<text text-anchor="end" x="566.0" y="369.0" fill="#000000" style="font-size:24px"><tspan style="font-style:italic;">OP7</tspan></text>
<circle cx="580.0" cy="360.0" r="2.0" stroke="#000000" stroke-width="2.8" fill="#000000" />
</g>
<g>
<circle cx="964.0" cy="320.0" r="4.0" stroke="#000000" stroke-width="2.8" fill="none" />
<text text-anchor="start" x="974.0" y="329.0" fill="#000000" style="font-size:24px"><tspan style="font-style:italic;">R</tspan></text>
<circle cx="960.0" cy="320.0" r="2.0" stroke="#000000" stroke-width="2.8" fill="#000000" />
</g>
<g>
<text text-anchor="end" x="678.0" y="357.0" fill="#000000" style="font-size:12px">0-31</text>
<text text-anchor="start" x="702.0" y="357.0" fill="#000000" style="font-size:12px">0-6</text>
<path d="M 688,358 L 692,358 L 692,362 L 688,362 Z" stroke="#000000" stroke-width="2.8" fill="none"/>
<circle cx="680.0" cy="360.0" r="2.0" stroke="#000000" stroke-width="2.8" fill="#000000" />
<circle cx="700.0" cy="360.0" r="2.0" stroke="#000000" stroke-width="2.8" fill="#000000" />
</g>
<g>
<text text-anchor="end" x="857.0" y="309.0" fill="#000000" style="font-size:24px">0</text>
<circle cx="860.0" cy="300.0" r="2.0" stroke="#000000" stroke-width="2.8" fill="#000000" />
</g>
<g>
<text text-anchor="end" x="857.0" y="349.0" fill="#000000" style="font-size:24px">0</text>
<circle cx="860.0" cy="340.0" r="2.0" stroke="#000000" stroke-width="2.8" fill="#000000" />
</g>
<g>
<path d="M 741,36 L 779,45 L 779,75 L 741,84 Z" stroke="#000000" stroke-width="2.8" fill="none"/>
<text text-anchor="start" x="743.0" y="55.5" fill="#000000" style="font-size:18px">0</text>
<circle cx="760.0" cy="80.0" r="2.0" stroke="#000000" stroke-width="2.8" fill="#000000" />
<circle cx="740.0" cy="40.0" r="2.0" stroke="#000000" stroke-width="2.8" fill="#000000" />
<circle cx="740.0" cy="80.0" r="2.0" stroke="#000000" stroke-width="2.8" fill="#000000" />
<circle cx="780.0" cy="60.0" r="2.0" stroke="#000000" stroke-width="2.8" fill="#000000" />
</g>
<g>
<path d="M 741,136 L 779,145 L 779,175 L 741,184 Z" stroke="#000000" stroke-width="2.8" fill="none"/>
<text text-anchor="start" x="743.0" y="155.5" fill="#000000" style="font-size:18px">0</text>
<circle cx="760.0" cy="180.0" r="2.0" stroke="#000000" stroke-width="2.8" fill="#000000" />
<circle cx="740.0" cy="140.0" r="2.0" stroke="#000000" stroke-width="2.8" fill="#000000" />
<circle cx="740.0" cy="180.0" r="2.0" stroke="#000000" stroke-width="2.8" fill="#000000" />
<circle cx="780.0" cy="160.0" r="2.0" stroke="#000000" stroke-width="2.8" fill="#000000" />
</g>
<g>
<path d="M 681,68 L 699,80 L 681,92 Z" stroke="#000000" stroke-width="2.8" fill="none"/>
<circle cx="710.0" cy="80.0" r="9.0" stroke="#000000" stroke-width="2.8" fill="none" />
<circle cx="680.0" cy="80.0" r="2.0" stroke="#000000" stroke-width="2.8" fill="#000000" />
<circle cx="720.0" cy="80.0" r="2.0" stroke="#000000" stroke-width="2.8" fill="#000000" />
</g>
<g>
<text text-anchor="end" x="717.0" y="189.0" fill="#000000" style="font-size:24px">1</text>
<circle cx="720.0" cy="180.0" r="2.0" stroke="#000000" stroke-width="2.8" fill="#000000" />
</g>
<g>
<text text-anchor="end" x="717.0" y="149.0" fill="#000000" style="font-size:24px">0</text>
<circle cx="720.0" cy="140.0" r="2.0" stroke="#000000" stroke-width="2.8" fill="#000000" />
</g>
<g>
<text text-anchor="end" x="398.0" y="57.0" fill="#000000" style="font-size:12px">0-6</text>
<text text-anchor="start" x="422.0" y="57.0" fill="#000000" style="font-size:12px">0-4</text>
<text text-anchor="start" x="422.0" y="77.0" fill="#000000" style="font-size:12px">5</text>
<text text-anchor="start" x="422.0" y="97.0" fill="#000000" style="font-size:12px">6</text>
<path d="M 408,58 L 412,58 L 412,102 L 408,102 Z" stroke="#000000" stroke-width="2.8" fill="none"/>
<circle cx="400.0" cy="60.0" r="2.0" stroke="#000000" stroke-width="2.8" fill="#000000" />
<circle cx="420.0" cy="60.0" r="2.0" stroke="#000000" stroke-width="2.8" fill="#000000" />
<circle cx="420.0" cy="80.0" r="2.0" stroke="#000000" stroke-width="2.8" fill="#000000" />
<circle cx="420.0" cy="100.0" r="2.0" stroke="#000000" stroke-width="2.8" fill="#000000" />
</g>
<g>
<path d="M 510,170 L 481,170 L 481,110 L 510,110 C 520,110 540,120 539,140 C 539,160 520,170 510,170 Z" stroke="#000000" stroke-width="2.8" fill="none"/>
<circle cx="470.0" cy="120.0" r="8.0" stroke="#000000" stroke-width="2.8" fill="none" />
<circle cx="470.0" cy="160.0" r="8.0" stroke="#000000" stroke-width="2.8" fill="none" />
<circle cx="460.0" cy="120.0" r="2.0" stroke="#000000" stroke-width="2.8" fill="#000000" />
<circle cx="480.0" cy="140.0" r="2.0" stroke="#000000" stroke-width="2.8" fill="#000000" />
<circle cx="460.0" cy="160.0" r="2.0" stroke="#000000" stroke-width="2.8" fill="#000000" />
<circle cx="540.0" cy="140.0" r="2.0" stroke="#000000" stroke-width="2.8" fill="#000000" />
</g>
<g>
<text text-anchor="end" x="418.0" y="117.0" fill="#000000" style="font-size:12px">0-2</text>
<text text-anchor="start" x="442.0" y="117.0" fill="#000000" style="font-size:12px">0</text>
<text text-anchor="start" x="442.0" y="137.0" fill="#000000" style="font-size:12px">1</text>
<text text-anchor="start" x="442.0" y="157.0" fill="#000000" style="font-size:12px">2</text>
<path d="M 428,118 L 432,118 L 432,162 L 428,162 Z" stroke="#000000" stroke-width="2.8" fill="none"/>
<circle cx="420.0" cy="120.0" r="2.0" stroke="#000000" stroke-width="2.8" fill="#000000" />
<circle cx="440.0" cy="120.0" r="2.0" stroke="#000000" stroke-width="2.8" fill="#000000" />
<circle cx="440.0" cy="140.0" r="2.0" stroke="#000000" stroke-width="2.8" fill="#000000" />
<circle cx="440.0" cy="160.0" r="2.0" stroke="#000000" stroke-width="2.8" fill="#000000" />
</g>
<g>
<path d="M 1030,-10 L 1020,-10 C 1030,-20 1030,-60 1020,-70 L 1030,-70 C 1040,-70 1060,-60 1080,-40 C 1060,-20 1040,-10 1030,-10 Z" stroke="#000000" stroke-width="2.8" fill="none"/>
<circle cx="1090.0" cy="-40.0" r="9.0" stroke="#000000" stroke-width="2.8" fill="none" />
<circle cx="1020.0" cy="-360.0" r="2.0" stroke="#000000" stroke-width="2.8" fill="#000000" />
<circle cx="1020.0" cy="-340.0" r="2.0" stroke="#000000" stroke-width="2.8" fill="#000000" />
<circle cx="1020.0" cy="-320.0" r="2.0" stroke="#000000" stroke-width="2.8" fill="#000000" />
<circle cx="1020.0" cy="-300.0" r="2.0" stroke="#000000" stroke-width="2.8" fill="#000000" />
<circle cx="1020.0" cy="-280.0" r="2.0" stroke="#000000" stroke-width="2.8" fill="#000000" />
<circle cx="1020.0" cy="-260.0" r="2.0" stroke="#000000" stroke-width="2.8" fill="#000000" />
<circle cx="1020.0" cy="-240.0" r="2.0" stroke="#000000" stroke-width="2.8" fill="#000000" />
<circle cx="1020.0" cy="-220.0" r="2.0" stroke="#000000" stroke-width="2.8" fill="#000000" />
<circle cx="1020.0" cy="-200.0" r="2.0" stroke="#000000" stroke-width="2.8" fill="#000000" />
<circle cx="1020.0" cy="-180.0" r="2.0" stroke="#000000" stroke-width="2.8" fill="#000000" />
<circle cx="1020.0" cy="-160.0" r="2.0" stroke="#000000" stroke-width="2.8" fill="#000000" />
<circle cx="1020.0" cy="-140.0" r="2.0" stroke="#000000" stroke-width="2.8" fill="#000000" />
<circle cx="1020.0" cy="-120.0" r="2.0" stroke="#000000" stroke-width="2.8" fill="#000000" />
<circle cx="1020.0" cy="-100.0" r="2.0" stroke="#000000" stroke-width="2.8" fill="#000000" />
<circle cx="1020.0" cy="-80.0" r="2.0" stroke="#000000" stroke-width="2.8" fill="#000000" />
<circle cx="1020.0" cy="-60.0" r="2.0" stroke="#000000" stroke-width="2.8" fill="#000000" />
<circle cx="1020.0" cy="-20.0" r="2.0" stroke="#000000" stroke-width="2.8" fill="#000000" />
<circle cx="1020.0" cy="0.0" r="2.0" stroke="#000000" stroke-width="2.8" fill="#000000" />
<circle cx="1020.0" cy="20.0" r="2.0" stroke="#000000" stroke-width="2.8" fill="#000000" />
<circle cx="1020.0" cy="40.0" r="2.0" stroke="#000000" stroke-width="2.8" fill="#000000" />
<circle cx="1020.0" cy="60.0" r="2.0" stroke="#000000" stroke-width="2.8" fill="#000000" />
<circle cx="1020.0" cy="80.0" r="2.0" stroke="#000000" stroke-width="2.8" fill="#000000" />
<circle cx="1020.0" cy="100.0" r="2.0" stroke="#000000" stroke-width="2.8" fill="#000000" />
<circle cx="1020.0" cy="120.0" r="2.0" stroke="#000000" stroke-width="2.8" fill="#000000" />
<circle cx="1020.0" cy="140.0" r="2.0" stroke="#000000" stroke-width="2.8" fill="#000000" />
<circle cx="1020.0" cy="160.0" r="2.0" stroke="#000000" stroke-width="2.8" fill="#000000" />
<circle cx="1020.0" cy="180.0" r="2.0" stroke="#000000" stroke-width="2.8" fill="#000000" />
<circle cx="1020.0" cy="200.0" r="2.0" stroke="#000000" stroke-width="2.8" fill="#000000" />
<circle cx="1020.0" cy="220.0" r="2.0" stroke="#000000" stroke-width="2.8" fill="#000000" />
<circle cx="1020.0" cy="240.0" r="2.0" stroke="#000000" stroke-width="2.8" fill="#000000" />
<circle cx="1020.0" cy="260.0" r="2.0" stroke="#000000" stroke-width="2.8" fill="#000000" />
<circle cx="1020.0" cy="280.0" r="2.0" stroke="#000000" stroke-width="2.8" fill="#000000" />
<circle cx="1100.0" cy="-40.0" r="2.0" stroke="#000000" stroke-width="2.8" fill="#000000" />
</g>
<g>
<text text-anchor="end" x="978.0" y="-363.0" fill="#000000" style="font-size:12px">0-15</text>
<text text-anchor="start" x="1002.0" y="-363.0" fill="#000000" style="font-size:12px">0</text>
<text text-anchor="start" x="1002.0" y="-343.0" fill="#000000" style="font-size:12px">1</text>
<text text-anchor="start" x="1002.0" y="-323.0" fill="#000000" style="font-size:12px">2</text>
<text text-anchor="start" x="1002.0" y="-303.0" fill="#000000" style="font-size:12px">3</text>
<text text-anchor="start" x="1002.0" y="-283.0" fill="#000000" style="font-size:12px">4</text>
<text text-anchor="start" x="1002.0" y="-263.0" fill="#000000" style="font-size:12px">5</text>
<text text-anchor="start" x="1002.0" y="-243.0" fill="#000000" style="font-size:12px">6</text>
<text text-anchor="start" x="1002.0" y="-223.0" fill="#000000" style="font-size:12px">7</text>
<text text-anchor="start" x="1002.0" y="-203.0" fill="#000000" style="font-size:12px">8</text>
<text text-anchor="start" x="1002.0" y="-183.0" fill="#000000" style="font-size:12px">9</text>
<text text-anchor="start" x="1002.0" y="-163.0" fill="#000000" style="font-size:12px">10</text>
<text text-anchor="start" x="1002.0" y="-143.0" fill="#000000" style="font-size:12px">11</text>
<text text-anchor="start" x="1002.0" y="-123.0" fill="#000000" style="font-size:12px">12</text>
<text text-anchor="start" x="1002.0" y="-103.0" fill="#000000" style="font-size:12px">13</text>
<text text-anchor="start" x="1002.0" y="-83.0" fill="#000000" style="font-size:12px">14</text>
<text text-anchor="start" x="1002.0" y="-63.0" fill="#000000" style="font-size:12px">15</text>
<path d="M 988,-362 L 992,-362 L 992,-58 L 988,-58 Z" stroke="#000000" stroke-width="2.8" fill="none"/>
<circle cx="980.0" cy="-360.0" r="2.0" stroke="#000000" stroke-width="2.8" fill="#000000" />
<circle cx="1000.0" cy="-360.0" r="2.0" stroke="#000000" stroke-width="2.8" fill="#000000" />
<circle cx="1000.0" cy="-340.0" r="2.0" stroke="#000000" stroke-width="2.8" fill="#000000" />
<circle cx="1000.0" cy="-320.0" r="2.0" stroke="#000000" stroke-width="2.8" fill="#000000" />
<circle cx="1000.0" cy="-300.0" r="2.0" stroke="#000000" stroke-width="2.8" fill="#000000" />
<circle cx="1000.0" cy="-280.0" r="2.0" stroke="#000000" stroke-width="2.8" fill="#000000" />
<circle cx="1000.0" cy="-260.0" r="2.0" stroke="#000000" stroke-width="2.8" fill="#000000" />
<circle cx="1000.0" cy="-240.0" r="2.0" stroke="#000000" stroke-width="2.8" fill="#000000" />
<circle cx="1000.0" cy="-220.0" r="2.0" stroke="#000000" stroke-width="2.8" fill="#000000" />
<circle cx="1000.0" cy="-200.0" r="2.0" stroke="#000000" stroke-width="2.8" fill="#000000" />
<circle cx="1000.0" cy="-180.0" r="2.0" stroke="#000000" stroke-width="2.8" fill="#000000" />
<circle cx="1000.0" cy="-160.0" r="2.0" stroke="#000000" stroke-width="2.8" fill="#000000" />
<circle cx="1000.0" cy="-140.0" r="2.0" stroke="#000000" stroke-width="2.8" fill="#000000" />
<circle cx="1000.0" cy="-120.0" r="2.0" stroke="#000000" stroke-width="2.8" fill="#000000" />
<circle cx="1000.0" cy="-100.0" r="2.0" stroke="#000000" stroke-width="2.8" fill="#000000" />
<circle cx="1000.0" cy="-80.0" r="2.0" stroke="#000000" stroke-width="2.8" fill="#000000" />
<circle cx="1000.0" cy="-60.0" r="2.0" stroke="#000000" stroke-width="2.8" fill="#000000" />
</g>
<g>
<text text-anchor="end" x="978.0" y="-23.0" fill="#000000" style="font-size:12px">0-15</text>
<text text-anchor="start" x="1002.0" y="-23.0" fill="#000000" style="font-size:12px">0</text>
<text text-anchor="start" x="1002.0" y="-3.0" fill="#000000" style="font-size:12px">1</text>
<text text-anchor="start" x="1002.0" y="17.0" fill="#000000" style="font-size:12px">2</text>
<text text-anchor="start" x="1002.0" y="37.0" fill="#000000" style="font-size:12px">3</text>
<text text-anchor="start" x="1002.0" y="57.0" fill="#000000" style="font-size:12px">4</text>
<text text-anchor="start" x="1002.0" y="77.0" fill="#000000" style="font-size:12px">5</text>
<text text-anchor="start" x="1002.0" y="97.0" fill="#000000" style="font-size:12px">6</text>
<text text-anchor="start" x="1002.0" y="117.0" fill="#000000" style="font-size:12px">7</text>
<text text-anchor="start" x="1002.0" y="137.0" fill="#000000" style="font-size:12px">8</text>
<text text-anchor="start" x="1002.0" y="157.0" fill="#000000" style="font-size:12px">9</text>
<text text-anchor="start" x="1002.0" y="177.0" fill="#000000" style="font-size:12px">10</text>
<text text-anchor="start" x="1002.0" y="197.0" fill="#000000" style="font-size:12px">11</text>
<text text-anchor="start" x="1002.0" y="217.0" fill="#000000" style="font-size:12px">12</text>
<text text-anchor="start" x="1002.0" y="237.0" fill="#000000" style="font-size:12px">13</text>
<text text-anchor="start" x="1002.0" y="257.0" fill="#000000" style="font-size:12px">14</text>
<text text-anchor="start" x="1002.0" y="277.0" fill="#000000" style="font-size:12px">15</text>
<path d="M 988,-22 L 992,-22 L 992,282 L 988,282 Z" stroke="#000000" stroke-width="2.8" fill="none"/>
<circle cx="980.0" cy="-20.0" r="2.0" stroke="#000000" stroke-width="2.8" fill="#000000" />
<circle cx="1000.0" cy="-20.0" r="2.0" stroke="#000000" stroke-width="2.8" fill="#000000" />
<circle cx="1000.0" cy="0.0" r="2.0" stroke="#000000" stroke-width="2.8" fill="#000000" />
<circle cx="1000.0" cy="20.0" r="2.0" stroke="#000000" stroke-width="2.8" fill="#000000" />
<circle cx="1000.0" cy="40.0" r="2.0" stroke="#000000" stroke-width="2.8" fill="#000000" />
<circle cx="1000.0" cy="60.0" r="2.0" stroke="#000000" stroke-width="2.8" fill="#000000" />
<circle cx="1000.0" cy="80.0" r="2.0" stroke="#000000" stroke-width="2.8" fill="#000000" />
<circle cx="1000.0" cy="100.0" r="2.0" stroke="#000000" stroke-width="2.8" fill="#000000" />
<circle cx="1000.0" cy="120.0" r="2.0" stroke="#000000" stroke-width="2.8" fill="#000000" />
<circle cx="1000.0" cy="140.0" r="2.0" stroke="#000000" stroke-width="2.8" fill="#000000" />
<circle cx="1000.0" cy="160.0" r="2.0" stroke="#000000" stroke-width="2.8" fill="#000000" />
<circle cx="1000.0" cy="180.0" r="2.0" stroke="#000000" stroke-width="2.8" fill="#000000" />
<circle cx="1000.0" cy="200.0" r="2.0" stroke="#000000" stroke-width="2.8" fill="#000000" />
<circle cx="1000.0" cy="220.0" r="2.0" stroke="#000000" stroke-width="2.8" fill="#000000" />
<circle cx="1000.0" cy="240.0" r="2.0" stroke="#000000" stroke-width="2.8" fill="#000000" />
<circle cx="1000.0" cy="260.0" r="2.0" stroke="#000000" stroke-width="2.8" fill="#000000" />
<circle cx="1000.0" cy="280.0" r="2.0" stroke="#000000" stroke-width="2.8" fill="#000000" />
</g>
<g>
<text text-anchor="end" x="938.0" y="-363.0" fill="#000000" style="font-size:12px">0-31</text>
<text text-anchor="start" x="962.0" y="-363.0" fill="#000000" style="font-size:12px">0-15</text>
<text text-anchor="start" x="962.0" y="-343.0" fill="#000000" style="font-size:12px">16-31</text>
<path d="M 948,-362 L 952,-362 L 952,-338 L 948,-338 Z" stroke="#000000" stroke-width="2.8" fill="none"/>
<circle cx="940.0" cy="-360.0" r="2.0" stroke="#000000" stroke-width="2.8" fill="#000000" />
<circle cx="960.0" cy="-360.0" r="2.0" stroke="#000000" stroke-width="2.8" fill="#000000" />
<circle cx="960.0" cy="-340.0" r="2.0" stroke="#000000" stroke-width="2.8" fill="#000000" />
</g>
<g>
<circle cx="1124.0" cy="-40.0" r="4.0" stroke="#000000" stroke-width="2.8" fill="none" />
<text text-anchor="start" x="1134.0" y="-31.0" fill="#000000" style="font-size:24px"><tspan style="font-style:italic;">Zero</tspan></text>
<circle cx="1120.0" cy="-40.0" r="2.0" stroke="#000000" stroke-width="2.8" fill="#000000" />
</g>
<g>
<path d="M 570,150 L 560,150 C 570,140 570,100 560,90 L 570,90 C 580,90 600,100 620,120 C 600,140 580,150 570,150 Z" stroke="#000000" stroke-width="2.8" fill="none"/>
<circle cx="560.0" cy="100.0" r="2.0" stroke="#000000" stroke-width="2.8" fill="#000000" />
<circle cx="560.0" cy="140.0" r="2.0" stroke="#000000" stroke-width="2.8" fill="#000000" />
<circle cx="620.0" cy="120.0" r="2.0" stroke="#000000" stroke-width="2.8" fill="#000000" />
</g>
<g>
<text text-anchor="end" x="818.0" y="157.0" fill="#000000" style="font-size:12px">0-31</text>
<text text-anchor="start" x="842.0" y="157.0" fill="#000000" style="font-size:12px">0-30</text>
<text text-anchor="start" x="842.0" y="177.0" fill="#000000" style="font-size:12px">31</text>
<path d="M 828,158 L 832,158 L 832,182 L 828,182 Z" stroke="#000000" stroke-width="2.8" fill="none"/>
<circle cx="820.0" cy="160.0" r="2.0" stroke="#000000" stroke-width="2.8" fill="#000000" />
<circle cx="840.0" cy="160.0" r="2.0" stroke="#000000" stroke-width="2.8" fill="#000000" />
<circle cx="840.0" cy="180.0" r="2.0" stroke="#000000" stroke-width="2.8" fill="#000000" />
</g>
<g>
<text text-anchor="end" x="878.0" y="177.0" fill="#000000" style="font-size:12px">0</text>
<text text-anchor="end" x="878.0" y="197.0" fill="#000000" style="font-size:12px">1-31</text>
<text text-anchor="start" x="902.0" y="177.0" fill="#000000" style="font-size:12px">0-31</text>
<path d="M 888,178 L 892,178 L 892,202 L 888,202 Z" stroke="#000000" stroke-width="2.8" fill="none"/>
<circle cx="880.0" cy="180.0" r="2.0" stroke="#000000" stroke-width="2.8" fill="#000000" />
<circle cx="880.0" cy="200.0" r="2.0" stroke="#000000" stroke-width="2.8" fill="#000000" />
<circle cx="900.0" cy="180.0" r="2.0" stroke="#000000" stroke-width="2.8" fill="#000000" />
</g>
<g>
<text text-anchor="end" x="837.0" y="209.0" fill="#000000" style="font-size:24px">0</text>
<circle cx="840.0" cy="200.0" r="2.0" stroke="#000000" stroke-width="2.8" fill="#000000" />
</g>
</g>
</svg>