<?xml version="1.0" encoding="UTF-8" standalone="no"?>
<!-- Created with Digital by H.Neemann -->
<!-- created: Sat Nov 11 17:16:43 BRT 2023 -->

<svg
   xmlns:svg="http://www.w3.org/2000/svg"
   xmlns="http://www.w3.org/2000/svg"
   width="222.15mm"
   height="85.2mm"
   viewBox="-59 158 1481 568">
<g stroke-linecap="square">
<path d="M 520,440 L 530,440 L 540,440" stroke="#000000" stroke-width="2.8" fill="none"/>
<path d="M 540,460 L 530,460" stroke="#000000" stroke-width="2.8" fill="none"/>
<path d="M 540,480 L 530,480" stroke="#000000" stroke-width="2.8" fill="none"/>
<path d="M 720,260 L 730,260 L 740,260" stroke="#000000" stroke-width="2.8" fill="none"/>
<path d="M 740,280 L 730,280" stroke="#000000" stroke-width="2.8" fill="none"/>
<path d="M 740,300 L 730,300" stroke="#000000" stroke-width="2.8" fill="none"/>
<path d="M 280,600 L 280,590 L 280,580" stroke="#000000" stroke-width="2.8" fill="none"/>
<path d="M 320,580 L 320,590" stroke="#000000" stroke-width="2.8" fill="none"/>
<path d="M 140,680 L 130,680 L 120,680" stroke="#000000" stroke-width="2.8" fill="none"/>
<path d="M 1000,320 L 1060,320" stroke="#000000" stroke-width="2.8" fill="none"/>
<path d="M 1120,320 L 1280,320 L 1280,180 L -20,180 L -20,280 L 40,280" stroke="#000000" stroke-width="2.8" fill="none"/>
<path d="M 140,380 L 140,640 L 1180,640 L 1180,200 L 1160,200" stroke="#000000" stroke-width="2.8" fill="none"/>
<path d="M 1240,260 L 1420,260 L 1420,340 L 1400,340" stroke="#000000" stroke-width="2.8" fill="none"/>
<path d="M 940,300 L 940,260 L 1080,260 L 1080,280 L 1320,280 L 1320,320 L 1340,320" stroke="#000000" stroke-width="2.8" fill="none"/>
<path d="M 760,520 L 1220,520 L 1220,260" stroke="#000000" stroke-width="2.8" fill="none"/>
<path d="M 760,460 L 1020,460 L 1020,340 L 1060,340" stroke="#000000" stroke-width="2.8" fill="none"/>
<path d="M 540,460 L 580,460 L 580,320 L 820,320" stroke="#000000" stroke-width="2.8" fill="none"/>
<path d="M 400,460 L 420,460" stroke="#000000" stroke-width="2.8" fill="none"/>
<path d="M -20,380 L -20,460 L 60,460" stroke="#000000" stroke-width="2.8" fill="none"/>
<path d="M 280,400 L 320,400" stroke="#000000" stroke-width="2.8" fill="none"/>
<path d="M 200,400 L 220,400 L 220,380 L 240,380" stroke="#000000" stroke-width="2.8" fill="none"/>
<path d="M 120,340 L 140,340 L 140,380 L 160,380" stroke="#000000" stroke-width="2.8" fill="none"/>
<path d="M 180,380 L 180,340 L 240,340 L 240,240 L 220,240" stroke="#000000" stroke-width="2.8" fill="none"/>
<path d="M 740,340 L 760,340 L 800,340 L 820,340" stroke="#000000" stroke-width="2.8" fill="none"/>
<path d="M 280,600 L 280,660 L 560,660 L 560,440 L 560,200 L 20,200 L 20,220 L 40,220" stroke="#000000" stroke-width="2.8" fill="none"/>
<path d="M 920,280 L 1000,280 L 1000,300 L 1060,300" stroke="#000000" stroke-width="2.8" fill="none"/>
<path d="M 740,280 L 820,280" stroke="#000000" stroke-width="2.8" fill="none"/>
<path d="M 1240,220 L 1260,220 L 1260,300" stroke="#000000" stroke-width="2.8" fill="none"/>
<path d="M 220,220 L 260,220 L 260,380" stroke="#000000" stroke-width="2.8" fill="none"/>
<path d="M 760,540 L 980,540 L 980,340" stroke="#000000" stroke-width="2.8" fill="none"/>
<path d="M 540,480 L 580,480 L 600,480 L 600,460" stroke="#000000" stroke-width="2.8" fill="none"/>
<path d="M 760,480 L 780,480 L 780,380 L 820,380" stroke="#000000" stroke-width="2.8" fill="none"/>
<path d="M 800,340 L 800,420 L 1240,420 L 1240,360 L 1340,360" stroke="#000000" stroke-width="2.8" fill="none"/>
<path d="M 380,420 L 400,420 L 420,420" stroke="#000000" stroke-width="2.8" fill="none"/>
<path d="M 40,340 L 40,420 L 60,420" stroke="#000000" stroke-width="2.8" fill="none"/>
<path d="M 120,420 L 160,420" stroke="#000000" stroke-width="2.8" fill="none"/>
<path d="M -20,360 L 60,360" stroke="#000000" stroke-width="2.8" fill="none"/>
<path d="M 140,680 L 580,680 L 580,480" stroke="#000000" stroke-width="2.8" fill="none"/>
<path d="M 920,300 L 940,300 L 960,300" stroke="#000000" stroke-width="2.8" fill="none"/>
<path d="M 740,300 L 820,300" stroke="#000000" stroke-width="2.8" fill="none"/>
<path d="M 1120,300 L 1260,300 L 1300,300 L 1340,300" stroke="#000000" stroke-width="2.8" fill="none"/>
<path d="M 1160,240 L 1200,240" stroke="#000000" stroke-width="2.8" fill="none"/>
<path d="M 760,560 L 1140,560 L 1140,240" stroke="#000000" stroke-width="2.8" fill="none"/>
<path d="M 760,500 L 1260,500 L 1260,380" stroke="#000000" stroke-width="2.8" fill="none"/>
<path d="M 0,260 L 0,500 L 200,500 L 200,420 L 240,420" stroke="#000000" stroke-width="2.8" fill="none"/>
<path d="M 480,440 L 500,440 L 520,440" stroke="#000000" stroke-width="2.8" fill="none"/>
<path d="M 540,440 L 560,440 L 620,440" stroke="#000000" stroke-width="2.8" fill="none"/>
<path d="M 760,440 L 1040,440 L 1040,360 L 1060,360" stroke="#000000" stroke-width="2.8" fill="none"/>
<path d="M 300,500 L 300,440 L 320,440" stroke="#000000" stroke-width="2.8" fill="none"/>
<path d="M 1320,380 L 1340,380" stroke="#000000" stroke-width="2.8" fill="none"/>
<path d="M -40,380 L -20,380 L 60,380" stroke="#000000" stroke-width="2.8" fill="none"/>
<path d="M 40,260 L 0,260 L 0,160 L 1300,160 L 1300,300" stroke="#000000" stroke-width="2.8" fill="none"/>
<path d="M 320,560 L 320,580" stroke="#000000" stroke-width="2.8" fill="none"/>
<path d="M 1120,220 L 780,220 L 780,360 L 820,360" stroke="#000000" stroke-width="2.8" fill="none"/>
<path d="M 120,680 L 20,680 L 20,240 L 40,240" stroke="#000000" stroke-width="2.8" fill="none"/>
<path d="M 720,260 L 600,260 L 600,460 L 620,460" stroke="#000000" stroke-width="2.8" fill="none"/>
<path d="M 280,560 L 280,580" stroke="#000000" stroke-width="2.8" fill="none"/>
<path d="M 400,420 L 400,320 L 40,320 L 40,340 L 60,340" stroke="#000000" stroke-width="2.8" fill="none"/>
<path d="M 1340,340 L 1260,340 L 1260,380 L 1280,380" stroke="#000000" stroke-width="2.8" fill="none"/>
<path d="M 320,420 L 300,420 L 300,360 L 760,360 L 760,340" stroke="#000000" stroke-width="2.8" fill="none"/>
<path d="M 960,340 L 940,340 L 940,620 L 500,620 L 40,620 L 40,440 L 60,440" stroke="#000000" stroke-width="2.8" fill="none"/>
<path d="M 500,600 L 500,620" stroke="#000000" stroke-width="2.8" fill="none"/>
<path d="M 500,440 L 500,460" stroke="#000000" stroke-width="2.8" fill="none"/>
<g>
<circle cx="0.0" cy="260.0" r="4.0" stroke="#000000" stroke-width="2.8" fill="#000000" />
<circle cx="600.0" cy="460.0" r="4.0" stroke="#000000" stroke-width="2.8" fill="#000000" />
<circle cx="40.0" cy="340.0" r="4.0" stroke="#000000" stroke-width="2.8" fill="#000000" />
<circle cx="760.0" cy="340.0" r="4.0" stroke="#000000" stroke-width="2.8" fill="#000000" />
<circle cx="800.0" cy="340.0" r="4.0" stroke="#000000" stroke-width="2.8" fill="#000000" />
<circle cx="580.0" cy="480.0" r="4.0" stroke="#000000" stroke-width="2.8" fill="#000000" />
<circle cx="400.0" cy="420.0" r="4.0" stroke="#000000" stroke-width="2.8" fill="#000000" />
<circle cx="940.0" cy="300.0" r="4.0" stroke="#000000" stroke-width="2.8" fill="#000000" />
<circle cx="1260.0" cy="300.0" r="4.0" stroke="#000000" stroke-width="2.8" fill="#000000" />
<circle cx="1300.0" cy="300.0" r="4.0" stroke="#000000" stroke-width="2.8" fill="#000000" />
<circle cx="500.0" cy="620.0" r="4.0" stroke="#000000" stroke-width="2.8" fill="#000000" />
<circle cx="500.0" cy="440.0" r="4.0" stroke="#000000" stroke-width="2.8" fill="#000000" />
<circle cx="560.0" cy="440.0" r="4.0" stroke="#000000" stroke-width="2.8" fill="#000000" />
<circle cx="1260.0" cy="380.0" r="4.0" stroke="#000000" stroke-width="2.8" fill="#000000" />
<circle cx="-20.0" cy="380.0" r="4.0" stroke="#000000" stroke-width="2.8" fill="#000000" />
<circle cx="140.0" cy="380.0" r="4.0" stroke="#000000" stroke-width="2.8" fill="#000000" />
</g>
<g>
<path d="M 821,266 L 919,266 L 919,394 L 821,394 Z" stroke="#e6e6e6" stroke-width="1.4" fill="none"/>
<path d="M 821,266 L 919,266 L 919,394 L 821,394 Z" stroke="#000000" stroke-width="2.8" fill="none"/>
<text text-anchor="start" x="824.0" y="286.75" fill="#000000" style="font-size:18px">RS1i</text>
<text text-anchor="start" x="824.0" y="306.75" fill="#000000" style="font-size:18px">RS2i</text>
<text text-anchor="start" x="824.0" y="326.75" fill="#000000" style="font-size:18px">RSA</text>
<text text-anchor="start" x="824.0" y="346.75" fill="#000000" style="font-size:18px">CLK</text>
<text text-anchor="start" x="824.0" y="366.75" fill="#000000" style="font-size:18px">RDA</text>
<text text-anchor="start" x="824.0" y="386.75" fill="#000000" style="font-size:18px">WR</text>
<text text-anchor="end" x="916.0" y="286.75" fill="#000000" style="font-size:18px">RS1</text>
<text text-anchor="end" x="916.0" y="306.75" fill="#000000" style="font-size:18px">RS2</text>
<text text-anchor="middle" x="870.0" y="411.5" fill="#000000" style="font-size:18px">register-bank</text>
<circle cx="820.0" cy="280.0" r="2.0" stroke="#000000" stroke-width="2.8" fill="#000000" />
<circle cx="820.0" cy="300.0" r="2.0" stroke="#000000" stroke-width="2.8" fill="#000000" />
<circle cx="820.0" cy="320.0" r="2.0" stroke="#000000" stroke-width="2.8" fill="#000000" />
<circle cx="820.0" cy="340.0" r="2.0" stroke="#000000" stroke-width="2.8" fill="#000000" />
<circle cx="820.0" cy="360.0" r="2.0" stroke="#000000" stroke-width="2.8" fill="#000000" />
<circle cx="820.0" cy="380.0" r="2.0" stroke="#000000" stroke-width="2.8" fill="#000000" />
<circle cx="920.0" cy="280.0" r="2.0" stroke="#000000" stroke-width="2.8" fill="#000000" />
<circle cx="920.0" cy="300.0" r="2.0" stroke="#000000" stroke-width="2.8" fill="#000000" />
</g>
<g>
<path d="M 961,296 L 999,305 L 999,335 L 961,344 Z" stroke="#000000" stroke-width="2.8" fill="none"/>
<text text-anchor="start" x="963.0" y="315.5" fill="#000000" style="font-size:18px">0</text>
<circle cx="980.0" cy="340.0" r="2.0" stroke="#000000" stroke-width="2.8" fill="#000000" />
<circle cx="960.0" cy="300.0" r="2.0" stroke="#000000" stroke-width="2.8" fill="#000000" />
<circle cx="960.0" cy="340.0" r="2.0" stroke="#000000" stroke-width="2.8" fill="#000000" />
<circle cx="1000.0" cy="320.0" r="2.0" stroke="#000000" stroke-width="2.8" fill="#000000" />
</g>
<g>
<path d="M 1281,368 L 1299,380 L 1281,392 Z" stroke="#000000" stroke-width="2.8" fill="none"/>
<circle cx="1310.0" cy="380.0" r="9.0" stroke="#000000" stroke-width="2.8" fill="none" />
<circle cx="1280.0" cy="380.0" r="2.0" stroke="#000000" stroke-width="2.8" fill="#000000" />
<circle cx="1320.0" cy="380.0" r="2.0" stroke="#000000" stroke-width="2.8" fill="#000000" />
</g>
<g>
<circle cx="736.0" cy="340.0" r="4.0" stroke="#000000" stroke-width="2.8" fill="none" />
<text text-anchor="end" x="726.0" y="349.0" fill="#000000" style="font-size:24px"><tspan style="font-style:italic;">Clock</tspan></text>
<path d="M 726,330 L 731,330 L 731,320 L 736,320 L 736,330 L 741,330 L 741,320 L 746,320" stroke="#000000" stroke-width="1.4" fill="none"/>
<circle cx="740.0" cy="340.0" r="2.0" stroke="#000000" stroke-width="2.8" fill="#000000" />
</g>
<g>
<path d="M 1239,264 L 1201,255 L 1201,225 L 1239,216 Z" stroke="#000000" stroke-width="2.8" fill="none"/>
<text text-anchor="end" x="1237.0" y="258.0" fill="#000000" style="font-size:18px">0</text>
<circle cx="1220.0" cy="260.0" r="2.0" stroke="#000000" stroke-width="2.8" fill="#000000" />
<circle cx="1240.0" cy="260.0" r="2.0" stroke="#000000" stroke-width="2.8" fill="#000000" />
<circle cx="1240.0" cy="220.0" r="2.0" stroke="#000000" stroke-width="2.8" fill="#000000" />
<circle cx="1200.0" cy="240.0" r="2.0" stroke="#000000" stroke-width="2.8" fill="#000000" />
</g>
<g>
<text text-anchor="end" x="518.0" y="437.0" fill="#000000" style="font-size:12px">0-31</text>
<text text-anchor="start" x="542.0" y="437.0" fill="#000000" style="font-size:12px">0-6</text>
<text text-anchor="start" x="542.0" y="457.0" fill="#000000" style="font-size:12px">7-11</text>
<text text-anchor="start" x="542.0" y="477.0" fill="#000000" style="font-size:12px">12-31</text>
<path d="M 528,438 L 532,438 L 532,482 L 528,482 Z" stroke="#000000" stroke-width="2.8" fill="none"/>
<circle cx="520.0" cy="440.0" r="2.0" stroke="#000000" stroke-width="2.8" fill="#000000" />
<circle cx="540.0" cy="440.0" r="2.0" stroke="#000000" stroke-width="2.8" fill="#000000" />
<circle cx="540.0" cy="460.0" r="2.0" stroke="#000000" stroke-width="2.8" fill="#000000" />
<circle cx="540.0" cy="480.0" r="2.0" stroke="#000000" stroke-width="2.8" fill="#000000" />
</g>
<g>
<path d="M 621,426 L 759,426 L 759,574 L 621,574 Z" stroke="#e6e6e6" stroke-width="1.4" fill="none"/>
<path d="M 621,426 L 759,426 L 759,574 L 621,574 Z" stroke="#000000" stroke-width="2.8" fill="none"/>
<text text-anchor="start" x="624.0" y="446.75" fill="#000000" style="font-size:18px">Opcode</text>
<text text-anchor="start" x="624.0" y="466.75" fill="#000000" style="font-size:18px">Rem</text>
<text text-anchor="end" x="756.0" y="446.75" fill="#000000" style="font-size:18px">Func 7</text>
<text text-anchor="end" x="756.0" y="466.75" fill="#000000" style="font-size:18px">Func 3</text>
<text text-anchor="end" x="756.0" y="486.75" fill="#000000" style="font-size:18px">Reg Store</text>
<text text-anchor="end" x="756.0" y="506.75" fill="#000000" style="font-size:18px">Mem Store</text>
<text text-anchor="end" x="756.0" y="526.75" fill="#000000" style="font-size:18px">Load Alu</text>
<text text-anchor="end" x="756.0" y="546.75" fill="#000000" style="font-size:18px">Lau IMM</text>
<text text-anchor="end" x="756.0" y="566.75" fill="#000000" style="font-size:18px">Load PC</text>
<text text-anchor="middle" x="690.0" y="591.5" fill="#000000" style="font-size:18px">signal-proc</text>
<circle cx="620.0" cy="440.0" r="2.0" stroke="#000000" stroke-width="2.8" fill="#000000" />
<circle cx="620.0" cy="460.0" r="2.0" stroke="#000000" stroke-width="2.8" fill="#000000" />
<circle cx="760.0" cy="440.0" r="2.0" stroke="#000000" stroke-width="2.8" fill="#000000" />
<circle cx="760.0" cy="460.0" r="2.0" stroke="#000000" stroke-width="2.8" fill="#000000" />
<circle cx="760.0" cy="480.0" r="2.0" stroke="#000000" stroke-width="2.8" fill="#000000" />
<circle cx="760.0" cy="500.0" r="2.0" stroke="#000000" stroke-width="2.8" fill="#000000" />
<circle cx="760.0" cy="520.0" r="2.0" stroke="#000000" stroke-width="2.8" fill="#000000" />
<circle cx="760.0" cy="540.0" r="2.0" stroke="#000000" stroke-width="2.8" fill="#000000" />
<circle cx="760.0" cy="560.0" r="2.0" stroke="#000000" stroke-width="2.8" fill="#000000" />
</g>
<g>
<text text-anchor="end" x="718.0" y="257.0" fill="#000000" style="font-size:12px">0-19</text>
<text text-anchor="start" x="742.0" y="257.0" fill="#000000" style="font-size:12px">0-2</text>
<text text-anchor="start" x="742.0" y="277.0" fill="#000000" style="font-size:12px">3-7</text>
<text text-anchor="start" x="742.0" y="297.0" fill="#000000" style="font-size:12px">8-12</text>
<path d="M 728,258 L 732,258 L 732,302 L 728,302 Z" stroke="#000000" stroke-width="2.8" fill="none"/>
<circle cx="720.0" cy="260.0" r="2.0" stroke="#000000" stroke-width="2.8" fill="#000000" />
<circle cx="740.0" cy="260.0" r="2.0" stroke="#000000" stroke-width="2.8" fill="#000000" />
<circle cx="740.0" cy="280.0" r="2.0" stroke="#000000" stroke-width="2.8" fill="#000000" />
<circle cx="740.0" cy="300.0" r="2.0" stroke="#000000" stroke-width="2.8" fill="#000000" />
</g>
<g>
<path d="M 1159,244 L 1121,235 L 1121,205 L 1159,196 Z" stroke="#000000" stroke-width="2.8" fill="none"/>
<text text-anchor="end" x="1157.0" y="238.0" fill="#000000" style="font-size:18px">0</text>
<circle cx="1140.0" cy="240.0" r="2.0" stroke="#000000" stroke-width="2.8" fill="#000000" />
<circle cx="1160.0" cy="240.0" r="2.0" stroke="#000000" stroke-width="2.8" fill="#000000" />
<circle cx="1160.0" cy="200.0" r="2.0" stroke="#000000" stroke-width="2.8" fill="#000000" />
<circle cx="1120.0" cy="220.0" r="2.0" stroke="#000000" stroke-width="2.8" fill="#000000" />
</g>
<g>
<path d="M 321,390 L 379,390 L 379,450 L 321,450 Z" stroke="#000000" stroke-width="2.8" fill="none"/>
<text text-anchor="middle" x="350.0" y="382.0" fill="#000000" style="font-size:24px">PC</text>
<text text-anchor="start" x="324.0" y="406.75" fill="#000000" style="font-size:18px">D</text>
<path d="M 321,427 L 328,420 L 321,413" stroke="#000000" stroke-width="1.4" fill="none"/>
<text text-anchor="start" x="331.0" y="426.75" fill="#000000" style="font-size:18px">C</text>
<text text-anchor="start" x="324.0" y="446.75" fill="#000000" style="font-size:18px">en</text>
<text text-anchor="end" x="376.0" y="426.75" fill="#000000" style="font-size:18px">Q</text>
<text text-anchor="middle" x="350.0" y="467.5" fill="#000000" style="font-size:18px">Reg</text>
<circle cx="320.0" cy="400.0" r="2.0" stroke="#000000" stroke-width="2.8" fill="#000000" />
<circle cx="320.0" cy="420.0" r="2.0" stroke="#000000" stroke-width="2.8" fill="#000000" />
<circle cx="320.0" cy="440.0" r="2.0" stroke="#000000" stroke-width="2.8" fill="#000000" />
<circle cx="380.0" cy="420.0" r="2.0" stroke="#000000" stroke-width="2.8" fill="#000000" />
</g>
<g>
<text text-anchor="end" x="397.0" y="469.0" fill="#000000" style="font-size:24px">1</text>
<circle cx="400.0" cy="460.0" r="2.0" stroke="#000000" stroke-width="2.8" fill="#000000" />
</g>
<g>
<path d="M 61,410 L 119,410 L 119,470 L 61,470 Z" stroke="#000000" stroke-width="2.8" fill="none"/>
<text text-anchor="start" x="64.0" y="426.75" fill="#000000" style="font-size:18px">a</text>
<text text-anchor="start" x="64.0" y="446.75" fill="#000000" style="font-size:18px">b</text>
<text text-anchor="start" x="64.0" y="466.75" fill="#000000" style="font-size:18px">c<tspan style="font-size:80%;baseline-shift:sub;">i</tspan></text>
<text text-anchor="end" x="116.0" y="426.75" fill="#000000" style="font-size:18px">s</text>
<text text-anchor="end" x="116.0" y="446.75" fill="#000000" style="font-size:18px">c<tspan style="font-size:80%;baseline-shift:sub;">o</tspan></text>
<text text-anchor="middle" x="90.0" y="487.5" fill="#000000" style="font-size:18px">Add</text>
<circle cx="60.0" cy="420.0" r="2.0" stroke="#000000" stroke-width="2.8" fill="#000000" />
<circle cx="60.0" cy="440.0" r="2.0" stroke="#000000" stroke-width="2.8" fill="#000000" />
<circle cx="60.0" cy="460.0" r="2.0" stroke="#000000" stroke-width="2.8" fill="#000000" />
<circle cx="120.0" cy="420.0" r="2.0" stroke="#000000" stroke-width="2.8" fill="#000000" />
<circle cx="120.0" cy="440.0" r="2.0" stroke="#000000" stroke-width="2.8" fill="#000000" />
</g>
<g>
<path d="M 514,461 L 514,599 L 486,599 L 486,461 Z" stroke="#e6e6e6" stroke-width="1.4" fill="none"/>
<path d="M 514,461 L 514,599 L 486,599 L 486,461 Z" stroke="#000000" stroke-width="2.8" fill="none"/>
<text text-anchor="end" x="500.0" y="470.75" fill="#000000" style="font-size:18px" transform="rotate(-90,500.0,464.0)" >Instruction</text>
<text text-anchor="start" x="500.0" y="602.75" fill="#000000" style="font-size:18px" transform="rotate(-90,500.0,596.0)" >IMM</text>
<text text-anchor="middle" x="482.0" y="530.0" fill="#000000" style="font-size:18px" transform="rotate(-90,482.0,530.0)" >imm-proc</text>
<circle cx="500.0" cy="460.0" r="2.0" stroke="#000000" stroke-width="2.8" fill="#000000" />
<circle cx="500.0" cy="600.0" r="2.0" stroke="#000000" stroke-width="2.8" fill="#000000" />
</g>
<g>
<text text-anchor="end" x="277.0" y="602.0" fill="#000000" style="font-size:12px" transform="rotate(-90,277.0,602.0)" >0-6</text>
<text text-anchor="start" x="277.0" y="578.0" fill="#000000" style="font-size:12px" transform="rotate(-90,277.0,578.0)" >0</text>
<text text-anchor="start" x="317.0" y="578.0" fill="#000000" style="font-size:12px" transform="rotate(-90,317.0,578.0)" >1</text>
<path d="M 278,592 L 278,588 L 322,588 L 322,592 Z" stroke="#000000" stroke-width="2.8" fill="none"/>
<circle cx="280.0" cy="600.0" r="2.0" stroke="#000000" stroke-width="2.8" fill="#000000" />
<circle cx="280.0" cy="580.0" r="2.0" stroke="#000000" stroke-width="2.8" fill="#000000" />
<circle cx="320.0" cy="580.0" r="2.0" stroke="#000000" stroke-width="2.8" fill="#000000" />
</g>
<g>
<text text-anchor="start" x="340.0" y="538.0" fill="#000000" style="font-size:24px">Halter</text>
</g>
<g>
<path d="M 241,376 L 279,385 L 279,415 L 241,424 Z" stroke="#000000" stroke-width="2.8" fill="none"/>
<text text-anchor="start" x="243.0" y="395.5" fill="#000000" style="font-size:18px">0</text>
<circle cx="260.0" cy="380.0" r="2.0" stroke="#000000" stroke-width="2.8" fill="#000000" />
<circle cx="240.0" cy="380.0" r="2.0" stroke="#000000" stroke-width="2.8" fill="#000000" />
<circle cx="240.0" cy="420.0" r="2.0" stroke="#000000" stroke-width="2.8" fill="#000000" />
<circle cx="280.0" cy="400.0" r="2.0" stroke="#000000" stroke-width="2.8" fill="#000000" />
</g>
<g>
<path d="M 161,376 L 199,385 L 199,415 L 161,424 Z" stroke="#000000" stroke-width="2.8" fill="none"/>
<text text-anchor="start" x="163.0" y="395.5" fill="#000000" style="font-size:18px">0</text>
<circle cx="180.0" cy="380.0" r="2.0" stroke="#000000" stroke-width="2.8" fill="#000000" />
<circle cx="160.0" cy="380.0" r="2.0" stroke="#000000" stroke-width="2.8" fill="#000000" />
<circle cx="160.0" cy="420.0" r="2.0" stroke="#000000" stroke-width="2.8" fill="#000000" />
<circle cx="200.0" cy="400.0" r="2.0" stroke="#000000" stroke-width="2.8" fill="#000000" />
</g>
<g>
<text text-anchor="start" x="960.0" y="418.0" fill="#000000" style="font-size:24px" transform="rotate(-90,960.0,400.0)" >Imm</text>
</g>
<g>
<path d="M 41,206 L 219,206 L 219,294 L 41,294 Z" stroke="#e6e6e6" stroke-width="1.4" fill="none"/>
<path d="M 41,206 L 219,206 L 219,294 L 41,294 Z" stroke="#000000" stroke-width="2.8" fill="none"/>
<text text-anchor="start" x="44.0" y="226.75" fill="#000000" style="font-size:18px">Opcode</text>
<text text-anchor="start" x="44.0" y="246.75" fill="#000000" style="font-size:18px">Func 3</text>
<text text-anchor="start" x="44.0" y="266.75" fill="#000000" style="font-size:18px">Alu out</text>
<text text-anchor="start" x="44.0" y="286.75" fill="#000000" style="font-size:18px">Zero out</text>
<text text-anchor="end" x="216.0" y="226.75" fill="#000000" style="font-size:18px">PC Alu</text>
<text text-anchor="end" x="216.0" y="246.75" fill="#000000" style="font-size:18px">+ IMM</text>
<text text-anchor="middle" x="130.0" y="311.5" fill="#000000" style="font-size:18px">pc-signal</text>
<circle cx="40.0" cy="220.0" r="2.0" stroke="#000000" stroke-width="2.8" fill="#000000" />
<circle cx="40.0" cy="240.0" r="2.0" stroke="#000000" stroke-width="2.8" fill="#000000" />
<circle cx="40.0" cy="260.0" r="2.0" stroke="#000000" stroke-width="2.8" fill="#000000" />
<circle cx="40.0" cy="280.0" r="2.0" stroke="#000000" stroke-width="2.8" fill="#000000" />
<circle cx="220.0" cy="220.0" r="2.0" stroke="#000000" stroke-width="2.8" fill="#000000" />
<circle cx="220.0" cy="240.0" r="2.0" stroke="#000000" stroke-width="2.8" fill="#000000" />
</g>
<g>
<path d="M 1341,286 L 1399,286 L 1399,394 L 1341,394 Z" stroke="#e6e6e6" stroke-width="1.4" fill="none"/>
<path d="M 1341,286 L 1399,286 L 1399,394 L 1341,394 Z" stroke="#000000" stroke-width="2.8" fill="none"/>
<text text-anchor="middle" x="1370.0" y="278.0" fill="#000000" style="font-size:24px">data</text>
<text text-anchor="start" x="1344.0" y="306.75" fill="#000000" style="font-size:18px">A</text>
<text text-anchor="start" x="1344.0" y="326.75" fill="#000000" style="font-size:18px">Din</text>
<text text-anchor="start" x="1344.0" y="346.75" fill="#000000" style="font-size:18px">str</text>
<text text-anchor="start" x="1344.0" y="366.75" fill="#000000" style="font-size:18px">clk</text>
<text text-anchor="start" x="1344.0" y="386.75" fill="#000000" style="font-size:18px">ld</text>
<text text-anchor="end" x="1396.0" y="346.75" fill="#000000" style="font-size:18px">D</text>
<text text-anchor="middle" x="1370.0" y="411.5" fill="#000000" style="font-size:18px">ram</text>
<circle cx="1340.0" cy="300.0" r="2.0" stroke="#000000" stroke-width="2.8" fill="#000000" />
<circle cx="1340.0" cy="320.0" r="2.0" stroke="#000000" stroke-width="2.8" fill="#000000" />
<circle cx="1340.0" cy="340.0" r="2.0" stroke="#000000" stroke-width="2.8" fill="#000000" />
<circle cx="1340.0" cy="360.0" r="2.0" stroke="#000000" stroke-width="2.8" fill="#000000" />
<circle cx="1340.0" cy="380.0" r="2.0" stroke="#000000" stroke-width="2.8" fill="#000000" />
<circle cx="1400.0" cy="340.0" r="2.0" stroke="#000000" stroke-width="2.8" fill="#000000" />
</g>
<g>
<path d="M 421,406 L 479,406 L 479,474 L 421,474 Z" stroke="#e6e6e6" stroke-width="1.4" fill="none"/>
<path d="M 421,406 L 479,406 L 479,474 L 421,474 Z" stroke="#000000" stroke-width="2.8" fill="none"/>
<text text-anchor="middle" x="450.0" y="398.0" fill="#000000" style="font-size:24px">text</text>
<text text-anchor="start" x="424.0" y="426.75" fill="#000000" style="font-size:18px">A</text>
<text text-anchor="start" x="424.0" y="466.75" fill="#000000" style="font-size:18px">sel</text>
<text text-anchor="end" x="476.0" y="446.75" fill="#000000" style="font-size:18px">D</text>
<text text-anchor="middle" x="450.0" y="491.5" fill="#000000" style="font-size:18px">rom</text>
<circle cx="420.0" cy="420.0" r="2.0" stroke="#000000" stroke-width="2.8" fill="#000000" />
<circle cx="420.0" cy="460.0" r="2.0" stroke="#000000" stroke-width="2.8" fill="#000000" />
<circle cx="480.0" cy="440.0" r="2.0" stroke="#000000" stroke-width="2.8" fill="#000000" />
</g>
<g>
<path d="M 330,530 L 330,559 L 270,559 L 270,530 C 270,520 280,500 300,501 C 320,501 330,520 330,530 Z" stroke="#000000" stroke-width="2.8" fill="none"/>
<circle cx="280.0" cy="560.0" r="2.0" stroke="#000000" stroke-width="2.8" fill="#000000" />
<circle cx="320.0" cy="560.0" r="2.0" stroke="#000000" stroke-width="2.8" fill="#000000" />
<circle cx="300.0" cy="500.0" r="2.0" stroke="#000000" stroke-width="2.8" fill="#000000" />
</g>
<g>
<path d="M 1061,286 L 1119,286 L 1119,374 L 1061,374 Z" stroke="#e6e6e6" stroke-width="1.4" fill="none"/>
<path d="M 1061,286 L 1119,286 L 1119,374 L 1061,374 Z" stroke="#000000" stroke-width="2.8" fill="none"/>
<text text-anchor="start" x="1064.0" y="306.75" fill="#000000" style="font-size:18px">A</text>
<text text-anchor="start" x="1064.0" y="326.75" fill="#000000" style="font-size:18px">B</text>
<text text-anchor="start" x="1064.0" y="346.75" fill="#000000" style="font-size:18px">OP3</text>
<text text-anchor="start" x="1064.0" y="366.75" fill="#000000" style="font-size:18px">OP7</text>
<text text-anchor="end" x="1116.0" y="306.75" fill="#000000" style="font-size:18px">R</text>
<text text-anchor="end" x="1116.0" y="326.75" fill="#000000" style="font-size:18px">Zero</text>
<text text-anchor="middle" x="1090.0" y="391.5" fill="#000000" style="font-size:18px">alu</text>
<circle cx="1060.0" cy="300.0" r="2.0" stroke="#000000" stroke-width="2.8" fill="#000000" />
<circle cx="1060.0" cy="320.0" r="2.0" stroke="#000000" stroke-width="2.8" fill="#000000" />
<circle cx="1060.0" cy="340.0" r="2.0" stroke="#000000" stroke-width="2.8" fill="#000000" />
<circle cx="1060.0" cy="360.0" r="2.0" stroke="#000000" stroke-width="2.8" fill="#000000" />
<circle cx="1120.0" cy="300.0" r="2.0" stroke="#000000" stroke-width="2.8" fill="#000000" />
<circle cx="1120.0" cy="320.0" r="2.0" stroke="#000000" stroke-width="2.8" fill="#000000" />
</g>
<g>
<text text-anchor="start" x="142.0" y="692.0" fill="#000000" style="font-size:12px">0-19</text>
<text text-anchor="end" x="118.0" y="692.0" fill="#000000" style="font-size:12px">0-2</text>
<path d="M 132,682 L 128,682 L 128,678 L 132,678 Z" stroke="#000000" stroke-width="2.8" fill="none"/>
<circle cx="140.0" cy="680.0" r="2.0" stroke="#000000" stroke-width="2.8" fill="#000000" />
<circle cx="120.0" cy="680.0" r="2.0" stroke="#000000" stroke-width="2.8" fill="#000000" />
</g>
<g>
<text text-anchor="start" x="60.0" y="718.0" fill="#000000" style="font-size:24px">Branch Func 3</text>
</g>
<g>
<path d="M 61,330 L 119,330 L 119,390 L 61,390 Z" stroke="#000000" stroke-width="2.8" fill="none"/>
<text text-anchor="start" x="64.0" y="346.75" fill="#000000" style="font-size:18px">a</text>
<text text-anchor="start" x="64.0" y="366.75" fill="#000000" style="font-size:18px">b</text>
<text text-anchor="start" x="64.0" y="386.75" fill="#000000" style="font-size:18px">c<tspan style="font-size:80%;baseline-shift:sub;">i</tspan></text>
<text text-anchor="end" x="116.0" y="346.75" fill="#000000" style="font-size:18px">s</text>
<text text-anchor="end" x="116.0" y="366.75" fill="#000000" style="font-size:18px">c<tspan style="font-size:80%;baseline-shift:sub;">o</tspan></text>
<text text-anchor="middle" x="90.0" y="407.5" fill="#000000" style="font-size:18px">Add</text>
<circle cx="60.0" cy="340.0" r="2.0" stroke="#000000" stroke-width="2.8" fill="#000000" />
<circle cx="60.0" cy="360.0" r="2.0" stroke="#000000" stroke-width="2.8" fill="#000000" />
<circle cx="60.0" cy="380.0" r="2.0" stroke="#000000" stroke-width="2.8" fill="#000000" />
<circle cx="120.0" cy="340.0" r="2.0" stroke="#000000" stroke-width="2.8" fill="#000000" />
<circle cx="120.0" cy="360.0" r="2.0" stroke="#000000" stroke-width="2.8" fill="#000000" />
</g>
<g>
<text text-anchor="end" x="-23.0" y="369.0" fill="#000000" style="font-size:24px">4</text>
<circle cx="-20.0" cy="360.0" r="2.0" stroke="#000000" stroke-width="2.8" fill="#000000" />
</g>
<g>
<text text-anchor="end" x="-43.0" y="389.0" fill="#000000" style="font-size:24px">0</text>
<circle cx="-40.0" cy="380.0" r="2.0" stroke="#000000" stroke-width="2.8" fill="#000000" />
</g>
</g>
</svg>