<?xml version="1.0" encoding="UTF-8" standalone="no"?>
<!-- Created with Digital by H.Neemann -->
<!-- created: Wed Nov 08 08:51:08 BRT 2023 -->

<svg
   xmlns:svg="http://www.w3.org/2000/svg"
   xmlns="http://www.w3.org/2000/svg"
   width="116.55mm"
   height="104.7mm"
   viewBox="347 206 777 698">
<g stroke-linecap="square">
<path d="M 820,320 L 940,320 L 940,360 L 960,360" stroke="#000000" stroke-width="2.8" fill="none"/>
<path d="M 620,640 L 680,640" stroke="#000000" stroke-width="2.8" fill="none"/>
<path d="M 940,620 L 940,640 L 1020,640 L 1020,560 L 1000,560" stroke="#000000" stroke-width="2.8" fill="none"/>
<path d="M 720,260 L 740,260" stroke="#000000" stroke-width="2.8" fill="none"/>
<path d="M 620,260 L 640,260 L 640,220 L 720,220" stroke="#000000" stroke-width="2.8" fill="none"/>
<path d="M 620,900 L 760,900 L 760,880" stroke="#000000" stroke-width="2.8" fill="none"/>
<path d="M 540,680 L 540,520 L 680,520" stroke="#000000" stroke-width="2.8" fill="none"/>
<path d="M 940,820 L 940,840 L 1020,840 L 1020,760 L 1000,760" stroke="#000000" stroke-width="2.8" fill="none"/>
<path d="M 620,840 L 660,840 L 660,860 L 760,860" stroke="#000000" stroke-width="2.8" fill="none"/>
<path d="M 620,780 L 660,780" stroke="#000000" stroke-width="2.8" fill="none"/>
<path d="M 720,780 L 740,780 L 740,760 L 940,760 L 960,760" stroke="#000000" stroke-width="2.8" fill="none"/>
<path d="M 620,460 L 660,460" stroke="#000000" stroke-width="2.8" fill="none"/>
<path d="M 1000,460 L 1020,460 L 1020,540 L 940,540 L 940,520" stroke="#000000" stroke-width="2.8" fill="none"/>
<path d="M 720,460 L 940,460 L 960,460" stroke="#000000" stroke-width="2.8" fill="none"/>
<path d="M 960,400 L 1040,400 L 1040,500 L 1040,600" stroke="#000000" stroke-width="2.8" fill="none"/>
<path d="M 540,260 L 540,400 L 780,400 L 780,380" stroke="#000000" stroke-width="2.8" fill="none"/>
<path d="M 800,400 L 840,400" stroke="#000000" stroke-width="2.8" fill="none"/>
<path d="M 900,400 L 920,400" stroke="#000000" stroke-width="2.8" fill="none"/>
<path d="M 620,720 L 760,720 L 760,700 L 780,700" stroke="#000000" stroke-width="2.8" fill="none"/>
<path d="M 660,660 L 720,660 L 720,680 L 780,680" stroke="#000000" stroke-width="2.8" fill="none"/>
<path d="M 560,500 L 560,660 L 640,660" stroke="#000000" stroke-width="2.8" fill="none"/>
<path d="M 740,340 L 760,340 L 764,340" stroke="#000000" stroke-width="2.8" fill="none"/>
<path d="M 620,600 L 640,600 L 640,580 L 660,580" stroke="#000000" stroke-width="2.8" fill="none"/>
<path d="M 740,600 L 780,600 L 780,560 L 940,560 L 960,560" stroke="#000000" stroke-width="2.8" fill="none"/>
<path d="M 960,600 L 1040,600 L 1040,800 L 960,800" stroke="#000000" stroke-width="2.8" fill="none"/>
<path d="M 900,600 L 920,600" stroke="#000000" stroke-width="2.8" fill="none"/>
<path d="M 800,620 L 800,600 L 840,600" stroke="#000000" stroke-width="2.8" fill="none"/>
<path d="M 620,280 L 660,280 L 674,280" stroke="#000000" stroke-width="2.8" fill="none"/>
<path d="M 700,540 L 740,540 L 740,520 L 780,520" stroke="#000000" stroke-width="2.8" fill="none"/>
<path d="M 480,220 L 520,220" stroke="#000000" stroke-width="2.8" fill="none"/>
<path d="M 540,220 L 580,220 L 600,220" stroke="#000000" stroke-width="2.8" fill="none"/>
<path d="M 620,860 L 640,860 L 640,820 L 700,820 L 700,840 L 760,840" stroke="#000000" stroke-width="2.8" fill="none"/>
<path d="M 620,480 L 640,480" stroke="#000000" stroke-width="2.8" fill="none"/>
<path d="M 620,800 L 640,800" stroke="#000000" stroke-width="2.8" fill="none"/>
<path d="M 900,800 L 920,800" stroke="#000000" stroke-width="2.8" fill="none"/>
<path d="M 780,800 L 840,800" stroke="#000000" stroke-width="2.8" fill="none"/>
<path d="M 740,800 L 760,800" stroke="#000000" stroke-width="2.8" fill="none"/>
<path d="M 580,220 L 580,420 L 600,420" stroke="#000000" stroke-width="2.8" fill="none"/>
<path d="M 1000,360 L 1020,360 L 1020,440 L 940,440 L 940,420" stroke="#000000" stroke-width="2.8" fill="none"/>
<path d="M 620,320 L 620,360 L 660,360 L 664,360" stroke="#000000" stroke-width="2.8" fill="none"/>
<path d="M 660,680 L 700,680 L 700,640 L 780,640" stroke="#000000" stroke-width="2.8" fill="none"/>
<path d="M 620,620 L 680,620" stroke="#000000" stroke-width="2.8" fill="none"/>
<path d="M 760,620 L 780,620" stroke="#000000" stroke-width="2.8" fill="none"/>
<path d="M 620,300 L 640,300 L 640,320 L 660,320 L 664,320" stroke="#000000" stroke-width="2.8" fill="none"/>
<path d="M 620,560 L 660,560" stroke="#000000" stroke-width="2.8" fill="none"/>
<path d="M 540,240 L 560,240 L 560,500 L 780,500" stroke="#000000" stroke-width="2.8" fill="none"/>
<path d="M 620,240 L 660,240 L 674,240" stroke="#000000" stroke-width="2.8" fill="none"/>
<path d="M 800,240 L 820,240 L 820,280 L 740,280 L 740,300 L 760,300 L 764,300" stroke="#000000" stroke-width="2.8" fill="none"/>
<path d="M 620,880 L 720,880 L 720,820 L 760,820" stroke="#000000" stroke-width="2.8" fill="none"/>
<path d="M 960,500 L 1040,500 L 1060,500" stroke="#000000" stroke-width="2.8" fill="none"/>
<path d="M 900,500 L 920,500" stroke="#000000" stroke-width="2.8" fill="none"/>
<path d="M 800,500 L 840,500" stroke="#000000" stroke-width="2.8" fill="none"/>
<path d="M 620,440 L 640,440" stroke="#000000" stroke-width="2.8" fill="none"/>
<path d="M 620,760 L 660,760" stroke="#000000" stroke-width="2.8" fill="none"/>
<path d="M 620,700 L 740,700 L 740,660 L 780,660" stroke="#000000" stroke-width="2.8" fill="none"/>
<path d="M 600,540 L 580,540 L 580,740 L 600,740" stroke="#000000" stroke-width="2.8" fill="none"/>
<path d="M 580,420 L 580,540" stroke="#000000" stroke-width="2.8" fill="none"/>
<path d="M 940,460 L 940,480" stroke="#000000" stroke-width="2.8" fill="none"/>
<path d="M 940,560 L 940,580" stroke="#000000" stroke-width="2.8" fill="none"/>
<path d="M 940,760 L 940,780" stroke="#000000" stroke-width="2.8" fill="none"/>
<path d="M 940,360 L 940,380" stroke="#000000" stroke-width="2.8" fill="none"/>
<path d="M 600,840 L 540,840 L 540,680 L 600,680" stroke="#000000" stroke-width="2.8" fill="none"/>
<path d="M 540,400 L 540,520" stroke="#000000" stroke-width="2.8" fill="none"/>
<path d="M 520,220 L 530,220 L 540,220" stroke="#000000" stroke-width="2.8" fill="none"/>
<path d="M 540,240 L 530,240" stroke="#000000" stroke-width="2.8" fill="none"/>
<path d="M 540,260 L 530,260" stroke="#000000" stroke-width="2.8" fill="none"/>
<path d="M 940,380 L 940,390" stroke="#000000" stroke-width="2.8" fill="none"/>
<path d="M 600,220 L 610,220 L 620,220" stroke="#000000" stroke-width="2.8" fill="none"/>
<path d="M 620,240 L 610,240" stroke="#000000" stroke-width="2.8" fill="none"/>
<path d="M 620,260 L 610,260" stroke="#000000" stroke-width="2.8" fill="none"/>
<path d="M 620,280 L 610,280" stroke="#000000" stroke-width="2.8" fill="none"/>
<path d="M 620,300 L 610,300" stroke="#000000" stroke-width="2.8" fill="none"/>
<path d="M 620,320 L 610,320" stroke="#000000" stroke-width="2.8" fill="none"/>
<path d="M 600,420 L 610,420 L 620,420" stroke="#000000" stroke-width="2.8" fill="none"/>
<path d="M 620,440 L 610,440" stroke="#000000" stroke-width="2.8" fill="none"/>
<path d="M 620,460 L 610,460" stroke="#000000" stroke-width="2.8" fill="none"/>
<path d="M 620,480 L 610,480" stroke="#000000" stroke-width="2.8" fill="none"/>
<path d="M 780,500 L 790,500 L 800,500" stroke="#000000" stroke-width="2.8" fill="none"/>
<path d="M 780,520 L 790,520" stroke="#000000" stroke-width="2.8" fill="none"/>
<path d="M 940,480 L 940,490" stroke="#000000" stroke-width="2.8" fill="none"/>
<path d="M 780,380 L 790,380 L 800,380" stroke="#000000" stroke-width="2.8" fill="none"/>
<path d="M 800,400 L 790,400" stroke="#000000" stroke-width="2.8" fill="none"/>
<path d="M 680,520 L 690,520 L 700,520" stroke="#000000" stroke-width="2.8" fill="none"/>
<path d="M 700,540 L 690,540" stroke="#000000" stroke-width="2.8" fill="none"/>
<path d="M 600,540 L 610,540 L 620,540" stroke="#000000" stroke-width="2.8" fill="none"/>
<path d="M 620,560 L 610,560" stroke="#000000" stroke-width="2.8" fill="none"/>
<path d="M 620,580 L 610,580" stroke="#000000" stroke-width="2.8" fill="none"/>
<path d="M 620,600 L 610,600" stroke="#000000" stroke-width="2.8" fill="none"/>
<path d="M 620,620 L 610,620" stroke="#000000" stroke-width="2.8" fill="none"/>
<path d="M 620,640 L 610,640" stroke="#000000" stroke-width="2.8" fill="none"/>
<path d="M 681,560 L 681,569" stroke="#000000" stroke-width="2.8" fill="none"/>
<path d="M 681,640 L 681,631" stroke="#000000" stroke-width="2.8" fill="none"/>
<path d="M 940,580 L 940,590" stroke="#000000" stroke-width="2.8" fill="none"/>
<path d="M 780,620 L 790,620 L 800,620" stroke="#000000" stroke-width="2.8" fill="none"/>
<path d="M 780,640 L 790,640" stroke="#000000" stroke-width="2.8" fill="none"/>
<path d="M 780,660 L 790,660" stroke="#000000" stroke-width="2.8" fill="none"/>
<path d="M 780,680 L 790,680" stroke="#000000" stroke-width="2.8" fill="none"/>
<path d="M 780,700 L 790,700" stroke="#000000" stroke-width="2.8" fill="none"/>
<path d="M 640,660 L 650,660 L 660,660" stroke="#000000" stroke-width="2.8" fill="none"/>
<path d="M 660,680 L 650,680" stroke="#000000" stroke-width="2.8" fill="none"/>
<path d="M 600,680 L 610,680 L 620,680" stroke="#000000" stroke-width="2.8" fill="none"/>
<path d="M 620,700 L 610,700" stroke="#000000" stroke-width="2.8" fill="none"/>
<path d="M 620,720 L 610,720" stroke="#000000" stroke-width="2.8" fill="none"/>
<path d="M 600,740 L 610,740 L 620,740" stroke="#000000" stroke-width="2.8" fill="none"/>
<path d="M 620,760 L 610,760" stroke="#000000" stroke-width="2.8" fill="none"/>
<path d="M 620,780 L 610,780" stroke="#000000" stroke-width="2.8" fill="none"/>
<path d="M 620,800 L 610,800" stroke="#000000" stroke-width="2.8" fill="none"/>
<path d="M 620,820 L 610,820" stroke="#000000" stroke-width="2.8" fill="none"/>
<path d="M 600,840 L 610,840 L 620,840" stroke="#000000" stroke-width="2.8" fill="none"/>
<path d="M 620,860 L 610,860" stroke="#000000" stroke-width="2.8" fill="none"/>
<path d="M 620,880 L 610,880" stroke="#000000" stroke-width="2.8" fill="none"/>
<path d="M 620,900 L 610,900" stroke="#000000" stroke-width="2.8" fill="none"/>
<path d="M 760,800 L 770,800 L 780,800" stroke="#000000" stroke-width="2.8" fill="none"/>
<path d="M 760,820 L 770,820" stroke="#000000" stroke-width="2.8" fill="none"/>
<path d="M 760,840 L 770,840" stroke="#000000" stroke-width="2.8" fill="none"/>
<path d="M 760,860 L 770,860" stroke="#000000" stroke-width="2.8" fill="none"/>
<path d="M 760,880 L 770,880" stroke="#000000" stroke-width="2.8" fill="none"/>
<path d="M 940,780 L 940,790" stroke="#000000" stroke-width="2.8" fill="none"/>
<g>
<circle cx="540.0" cy="520.0" r="4.0" stroke="#000000" stroke-width="2.8" fill="#000000" />
<circle cx="940.0" cy="460.0" r="4.0" stroke="#000000" stroke-width="2.8" fill="#000000" />
<circle cx="540.0" cy="400.0" r="4.0" stroke="#000000" stroke-width="2.8" fill="#000000" />
<circle cx="1040.0" cy="600.0" r="4.0" stroke="#000000" stroke-width="2.8" fill="#000000" />
<circle cx="580.0" cy="540.0" r="4.0" stroke="#000000" stroke-width="2.8" fill="#000000" />
<circle cx="580.0" cy="220.0" r="4.0" stroke="#000000" stroke-width="2.8" fill="#000000" />
<circle cx="580.0" cy="420.0" r="4.0" stroke="#000000" stroke-width="2.8" fill="#000000" />
<circle cx="940.0" cy="360.0" r="4.0" stroke="#000000" stroke-width="2.8" fill="#000000" />
<circle cx="540.0" cy="680.0" r="4.0" stroke="#000000" stroke-width="2.8" fill="#000000" />
<circle cx="940.0" cy="560.0" r="4.0" stroke="#000000" stroke-width="2.8" fill="#000000" />
<circle cx="560.0" cy="500.0" r="4.0" stroke="#000000" stroke-width="2.8" fill="#000000" />
<circle cx="1040.0" cy="500.0" r="4.0" stroke="#000000" stroke-width="2.8" fill="#000000" />
<circle cx="940.0" cy="760.0" r="4.0" stroke="#000000" stroke-width="2.8" fill="#000000" />
</g>
<g>
<circle cx="476.0" cy="220.0" r="4.0" stroke="#000000" stroke-width="2.8" fill="none" />
<text text-anchor="end" x="466.0" y="229.0" fill="#000000" style="font-size:24px"><tspan style="font-style:italic;">Instruction</tspan></text>
<circle cx="480.0" cy="220.0" r="2.0" stroke="#000000" stroke-width="2.8" fill="#000000" />
</g>
<g>
<text text-anchor="end" x="518.0" y="217.0" fill="#000000" style="font-size:12px">0-31</text>
<text text-anchor="start" x="542.0" y="217.0" fill="#000000" style="font-size:12px">0-6</text>
<text text-anchor="start" x="542.0" y="237.0" fill="#000000" style="font-size:12px">7-11</text>
<text text-anchor="start" x="542.0" y="257.0" fill="#000000" style="font-size:12px">12-31</text>
<path d="M 528,218 L 532,218 L 532,262 L 528,262 Z" stroke="#000000" stroke-width="2.8" fill="none"/>
<circle cx="520.0" cy="220.0" r="2.0" stroke="#000000" stroke-width="2.8" fill="#000000" />
<circle cx="540.0" cy="220.0" r="2.0" stroke="#000000" stroke-width="2.8" fill="#000000" />
<circle cx="540.0" cy="240.0" r="2.0" stroke="#000000" stroke-width="2.8" fill="#000000" />
<circle cx="540.0" cy="260.0" r="2.0" stroke="#000000" stroke-width="2.8" fill="#000000" />
</g>
<g>
<circle cx="1064.0" cy="500.0" r="4.0" stroke="#000000" stroke-width="2.8" fill="none" />
<text text-anchor="start" x="1074.0" y="509.0" fill="#000000" style="font-size:24px"><tspan style="font-style:italic;">IMM</tspan></text>
<circle cx="1060.0" cy="500.0" r="2.0" stroke="#000000" stroke-width="2.8" fill="#000000" />
</g>
<g>
<path d="M 920,400 L 920,380 L 960,400 L 960,380 L 920,400 Z" stroke="#000000" stroke-width="2.8" fill="none"/>
<path d="M 920,400 L 920,420 L 960,400 L 960,420 L 920,400 Z" stroke="#000000" stroke-width="2.8" fill="none"/>
<circle cx="940.0" cy="415.0" r="4.0" stroke="#000000" stroke-width="2.8" fill="none" />
<circle cx="940.0" cy="380.0" r="2.0" stroke="#000000" stroke-width="2.8" fill="#000000" />
<circle cx="940.0" cy="420.0" r="2.0" stroke="#000000" stroke-width="2.8" fill="#000000" />
<circle cx="920.0" cy="400.0" r="2.0" stroke="#000000" stroke-width="2.8" fill="#000000" />
<circle cx="960.0" cy="400.0" r="2.0" stroke="#000000" stroke-width="2.8" fill="#000000" />
</g>
<g>
<text text-anchor="start" x="520.0" y="398.0" fill="#000000" style="font-size:24px">I</text>
</g>
<g>
<text text-anchor="end" x="598.0" y="217.0" fill="#000000" style="font-size:12px">0-6</text>
<text text-anchor="start" x="622.0" y="217.0" fill="#000000" style="font-size:12px">0,1</text>
<text text-anchor="start" x="622.0" y="237.0" fill="#000000" style="font-size:12px">2</text>
<text text-anchor="start" x="622.0" y="257.0" fill="#000000" style="font-size:12px">3</text>
<text text-anchor="start" x="622.0" y="277.0" fill="#000000" style="font-size:12px">4</text>
<text text-anchor="start" x="622.0" y="297.0" fill="#000000" style="font-size:12px">5</text>
<text text-anchor="start" x="622.0" y="317.0" fill="#000000" style="font-size:12px">6</text>
<path d="M 608,218 L 612,218 L 612,322 L 608,322 Z" stroke="#000000" stroke-width="2.8" fill="none"/>
<circle cx="600.0" cy="220.0" r="2.0" stroke="#000000" stroke-width="2.8" fill="#000000" />
<circle cx="620.0" cy="220.0" r="2.0" stroke="#000000" stroke-width="2.8" fill="#000000" />
<circle cx="620.0" cy="240.0" r="2.0" stroke="#000000" stroke-width="2.8" fill="#000000" />
<circle cx="620.0" cy="260.0" r="2.0" stroke="#000000" stroke-width="2.8" fill="#000000" />
<circle cx="620.0" cy="280.0" r="2.0" stroke="#000000" stroke-width="2.8" fill="#000000" />
<circle cx="620.0" cy="300.0" r="2.0" stroke="#000000" stroke-width="2.8" fill="#000000" />
<circle cx="620.0" cy="320.0" r="2.0" stroke="#000000" stroke-width="2.8" fill="#000000" />
</g>
<g>
<text text-anchor="start" x="520.0" y="498.0" fill="#000000" style="font-size:24px">S</text>
</g>
<g>
<path d="M 690,490 L 661,490 L 661,430 L 690,430 C 700,430 720,440 719,460 C 719,480 700,490 690,490 Z" stroke="#000000" stroke-width="2.8" fill="none"/>
<circle cx="650.0" cy="440.0" r="8.0" stroke="#000000" stroke-width="2.8" fill="none" />
<circle cx="650.0" cy="480.0" r="8.0" stroke="#000000" stroke-width="2.8" fill="none" />
<circle cx="640.0" cy="440.0" r="2.0" stroke="#000000" stroke-width="2.8" fill="#000000" />
<circle cx="660.0" cy="460.0" r="2.0" stroke="#000000" stroke-width="2.8" fill="#000000" />
<circle cx="640.0" cy="480.0" r="2.0" stroke="#000000" stroke-width="2.8" fill="#000000" />
<circle cx="720.0" cy="460.0" r="2.0" stroke="#000000" stroke-width="2.8" fill="#000000" />
</g>
<g>
<text text-anchor="end" x="598.0" y="417.0" fill="#000000" style="font-size:12px">0-6</text>
<text text-anchor="start" x="622.0" y="417.0" fill="#000000" style="font-size:12px">0-3</text>
<text text-anchor="start" x="622.0" y="437.0" fill="#000000" style="font-size:12px">4</text>
<text text-anchor="start" x="622.0" y="457.0" fill="#000000" style="font-size:12px">5</text>
<text text-anchor="start" x="622.0" y="477.0" fill="#000000" style="font-size:12px">6</text>
<path d="M 608,418 L 612,418 L 612,482 L 608,482 Z" stroke="#000000" stroke-width="2.8" fill="none"/>
<circle cx="600.0" cy="420.0" r="2.0" stroke="#000000" stroke-width="2.8" fill="#000000" />
<circle cx="620.0" cy="420.0" r="2.0" stroke="#000000" stroke-width="2.8" fill="#000000" />
<circle cx="620.0" cy="440.0" r="2.0" stroke="#000000" stroke-width="2.8" fill="#000000" />
<circle cx="620.0" cy="460.0" r="2.0" stroke="#000000" stroke-width="2.8" fill="#000000" />
<circle cx="620.0" cy="480.0" r="2.0" stroke="#000000" stroke-width="2.8" fill="#000000" />
</g>
<g>
<path d="M 961,348 L 979,360 L 961,372 Z" stroke="#000000" stroke-width="2.8" fill="none"/>
<circle cx="990.0" cy="360.0" r="9.0" stroke="#000000" stroke-width="2.8" fill="none" />
<circle cx="960.0" cy="360.0" r="2.0" stroke="#000000" stroke-width="2.8" fill="#000000" />
<circle cx="1000.0" cy="360.0" r="2.0" stroke="#000000" stroke-width="2.8" fill="#000000" />
</g>
<g>
<text text-anchor="end" x="778.0" y="497.0" fill="#000000" style="font-size:12px">0-4</text>
<text text-anchor="end" x="778.0" y="517.0" fill="#000000" style="font-size:12px">5-11</text>
<text text-anchor="start" x="802.0" y="497.0" fill="#000000" style="font-size:12px">0-11</text>
<path d="M 788,498 L 792,498 L 792,522 L 788,522 Z" stroke="#000000" stroke-width="2.8" fill="none"/>
<circle cx="780.0" cy="500.0" r="2.0" stroke="#000000" stroke-width="2.8" fill="#000000" />
<circle cx="780.0" cy="520.0" r="2.0" stroke="#000000" stroke-width="2.8" fill="#000000" />
<circle cx="800.0" cy="500.0" r="2.0" stroke="#000000" stroke-width="2.8" fill="#000000" />
</g>
<g>
<path d="M 920,500 L 920,480 L 960,500 L 960,480 L 920,500 Z" stroke="#000000" stroke-width="2.8" fill="none"/>
<path d="M 920,500 L 920,520 L 960,500 L 960,520 L 920,500 Z" stroke="#000000" stroke-width="2.8" fill="none"/>
<circle cx="940.0" cy="515.0" r="4.0" stroke="#000000" stroke-width="2.8" fill="none" />
<circle cx="940.0" cy="480.0" r="2.0" stroke="#000000" stroke-width="2.8" fill="#000000" />
<circle cx="940.0" cy="520.0" r="2.0" stroke="#000000" stroke-width="2.8" fill="#000000" />
<circle cx="920.0" cy="500.0" r="2.0" stroke="#000000" stroke-width="2.8" fill="#000000" />
<circle cx="960.0" cy="500.0" r="2.0" stroke="#000000" stroke-width="2.8" fill="#000000" />
</g>
<g>
<path d="M 961,448 L 979,460 L 961,472 Z" stroke="#000000" stroke-width="2.8" fill="none"/>
<circle cx="990.0" cy="460.0" r="9.0" stroke="#000000" stroke-width="2.8" fill="none" />
<circle cx="960.0" cy="460.0" r="2.0" stroke="#000000" stroke-width="2.8" fill="#000000" />
<circle cx="1000.0" cy="460.0" r="2.0" stroke="#000000" stroke-width="2.8" fill="#000000" />
</g>
<g>
<text text-anchor="end" x="778.0" y="377.0" fill="#000000" style="font-size:12px">0-19</text>
<text text-anchor="start" x="802.0" y="377.0" fill="#000000" style="font-size:12px">0-7</text>
<text text-anchor="start" x="802.0" y="397.0" fill="#000000" style="font-size:12px">8-19</text>
<path d="M 788,378 L 792,378 L 792,402 L 788,402 Z" stroke="#000000" stroke-width="2.8" fill="none"/>
<circle cx="780.0" cy="380.0" r="2.0" stroke="#000000" stroke-width="2.8" fill="#000000" />
<circle cx="800.0" cy="380.0" r="2.0" stroke="#000000" stroke-width="2.8" fill="#000000" />
<circle cx="800.0" cy="400.0" r="2.0" stroke="#000000" stroke-width="2.8" fill="#000000" />
</g>
<g>
<text text-anchor="end" x="678.0" y="517.0" fill="#000000" style="font-size:12px">0-19</text>
<text text-anchor="start" x="702.0" y="517.0" fill="#000000" style="font-size:12px">0-12</text>
<text text-anchor="start" x="702.0" y="537.0" fill="#000000" style="font-size:12px">13-19</text>
<path d="M 688,518 L 692,518 L 692,542 L 688,542 Z" stroke="#000000" stroke-width="2.8" fill="none"/>
<circle cx="680.0" cy="520.0" r="2.0" stroke="#000000" stroke-width="2.8" fill="#000000" />
<circle cx="700.0" cy="520.0" r="2.0" stroke="#000000" stroke-width="2.8" fill="#000000" />
<circle cx="700.0" cy="540.0" r="2.0" stroke="#000000" stroke-width="2.8" fill="#000000" />
</g>
<g>
<text text-anchor="end" x="598.0" y="537.0" fill="#000000" style="font-size:12px">0-6</text>
<text text-anchor="start" x="622.0" y="537.0" fill="#000000" style="font-size:12px">0,1</text>
<text text-anchor="start" x="622.0" y="557.0" fill="#000000" style="font-size:12px">2</text>
<text text-anchor="start" x="622.0" y="577.0" fill="#000000" style="font-size:12px">3</text>
<text text-anchor="start" x="622.0" y="597.0" fill="#000000" style="font-size:12px">4</text>
<text text-anchor="start" x="622.0" y="617.0" fill="#000000" style="font-size:12px">5</text>
<text text-anchor="start" x="622.0" y="637.0" fill="#000000" style="font-size:12px">6</text>
<path d="M 608,538 L 612,538 L 612,642 L 608,642 Z" stroke="#000000" stroke-width="2.8" fill="none"/>
<circle cx="600.0" cy="540.0" r="2.0" stroke="#000000" stroke-width="2.8" fill="#000000" />
<circle cx="620.0" cy="540.0" r="2.0" stroke="#000000" stroke-width="2.8" fill="#000000" />
<circle cx="620.0" cy="560.0" r="2.0" stroke="#000000" stroke-width="2.8" fill="#000000" />
<circle cx="620.0" cy="580.0" r="2.0" stroke="#000000" stroke-width="2.8" fill="#000000" />
<circle cx="620.0" cy="600.0" r="2.0" stroke="#000000" stroke-width="2.8" fill="#000000" />
<circle cx="620.0" cy="620.0" r="2.0" stroke="#000000" stroke-width="2.8" fill="#000000" />
<circle cx="620.0" cy="640.0" r="2.0" stroke="#000000" stroke-width="2.8" fill="#000000" />
</g>
<g>
<path d="M 710,630 L 681,630 L 681,570 L 710,570 C 720,570 740,580 739,600 C 739,620 720,630 710,630 Z" stroke="#000000" stroke-width="2.8" fill="none"/>
<circle cx="670.0" cy="560.0" r="8.0" stroke="#000000" stroke-width="2.8" fill="none" />
<circle cx="670.0" cy="580.0" r="8.0" stroke="#000000" stroke-width="2.8" fill="none" />
<circle cx="660.0" cy="560.0" r="2.0" stroke="#000000" stroke-width="2.8" fill="#000000" />
<circle cx="660.0" cy="580.0" r="2.0" stroke="#000000" stroke-width="2.8" fill="#000000" />
<circle cx="680.0" cy="620.0" r="2.0" stroke="#000000" stroke-width="2.8" fill="#000000" />
<circle cx="680.0" cy="640.0" r="2.0" stroke="#000000" stroke-width="2.8" fill="#000000" />
<circle cx="740.0" cy="600.0" r="2.0" stroke="#000000" stroke-width="2.8" fill="#000000" />
</g>
<g>
<path d="M 920,600 L 920,580 L 960,600 L 960,580 L 920,600 Z" stroke="#000000" stroke-width="2.8" fill="none"/>
<path d="M 920,600 L 920,620 L 960,600 L 960,620 L 920,600 Z" stroke="#000000" stroke-width="2.8" fill="none"/>
<circle cx="940.0" cy="615.0" r="4.0" stroke="#000000" stroke-width="2.8" fill="none" />
<circle cx="940.0" cy="580.0" r="2.0" stroke="#000000" stroke-width="2.8" fill="#000000" />
<circle cx="940.0" cy="620.0" r="2.0" stroke="#000000" stroke-width="2.8" fill="#000000" />
<circle cx="920.0" cy="600.0" r="2.0" stroke="#000000" stroke-width="2.8" fill="#000000" />
<circle cx="960.0" cy="600.0" r="2.0" stroke="#000000" stroke-width="2.8" fill="#000000" />
</g>
<g>
<path d="M 961,548 L 979,560 L 961,572 Z" stroke="#000000" stroke-width="2.8" fill="none"/>
<circle cx="990.0" cy="560.0" r="9.0" stroke="#000000" stroke-width="2.8" fill="none" />
<circle cx="960.0" cy="560.0" r="2.0" stroke="#000000" stroke-width="2.8" fill="#000000" />
<circle cx="1000.0" cy="560.0" r="2.0" stroke="#000000" stroke-width="2.8" fill="#000000" />
</g>
<g>
<text text-anchor="end" x="778.0" y="617.0" fill="#000000" style="font-size:12px">0</text>
<text text-anchor="end" x="778.0" y="637.0" fill="#000000" style="font-size:12px">1-4</text>
<text text-anchor="end" x="778.0" y="657.0" fill="#000000" style="font-size:12px">5-8</text>
<text text-anchor="end" x="778.0" y="677.0" fill="#000000" style="font-size:12px">9</text>
<text text-anchor="end" x="778.0" y="697.0" fill="#000000" style="font-size:12px">10</text>
<text text-anchor="start" x="802.0" y="617.0" fill="#000000" style="font-size:12px">0-10</text>
<path d="M 788,618 L 792,618 L 792,702 L 788,702 Z" stroke="#000000" stroke-width="2.8" fill="none"/>
<circle cx="780.0" cy="620.0" r="2.0" stroke="#000000" stroke-width="2.8" fill="#000000" />
<circle cx="780.0" cy="640.0" r="2.0" stroke="#000000" stroke-width="2.8" fill="#000000" />
<circle cx="780.0" cy="660.0" r="2.0" stroke="#000000" stroke-width="2.8" fill="#000000" />
<circle cx="780.0" cy="680.0" r="2.0" stroke="#000000" stroke-width="2.8" fill="#000000" />
<circle cx="780.0" cy="700.0" r="2.0" stroke="#000000" stroke-width="2.8" fill="#000000" />
<circle cx="800.0" cy="620.0" r="2.0" stroke="#000000" stroke-width="2.8" fill="#000000" />
</g>
<g>
<text text-anchor="end" x="757.0" y="629.0" fill="#000000" style="font-size:24px">0</text>
<circle cx="760.0" cy="620.0" r="2.0" stroke="#000000" stroke-width="2.8" fill="#000000" />
</g>
<g>
<text text-anchor="end" x="638.0" y="657.0" fill="#000000" style="font-size:12px">0-4</text>
<text text-anchor="start" x="662.0" y="657.0" fill="#000000" style="font-size:12px">0</text>
<text text-anchor="start" x="662.0" y="677.0" fill="#000000" style="font-size:12px">1-4</text>
<path d="M 648,658 L 652,658 L 652,682 L 648,682 Z" stroke="#000000" stroke-width="2.8" fill="none"/>
<circle cx="640.0" cy="660.0" r="2.0" stroke="#000000" stroke-width="2.8" fill="#000000" />
<circle cx="660.0" cy="660.0" r="2.0" stroke="#000000" stroke-width="2.8" fill="#000000" />
<circle cx="660.0" cy="680.0" r="2.0" stroke="#000000" stroke-width="2.8" fill="#000000" />
</g>
<g>
<text text-anchor="end" x="598.0" y="677.0" fill="#000000" style="font-size:12px">0-19</text>
<text text-anchor="start" x="622.0" y="677.0" fill="#000000" style="font-size:12px">0-14</text>
<text text-anchor="start" x="622.0" y="697.0" fill="#000000" style="font-size:12px">15-18</text>
<text text-anchor="start" x="622.0" y="717.0" fill="#000000" style="font-size:12px">19</text>
<path d="M 608,678 L 612,678 L 612,722 L 608,722 Z" stroke="#000000" stroke-width="2.8" fill="none"/>
<circle cx="600.0" cy="680.0" r="2.0" stroke="#000000" stroke-width="2.8" fill="#000000" />
<circle cx="620.0" cy="680.0" r="2.0" stroke="#000000" stroke-width="2.8" fill="#000000" />
<circle cx="620.0" cy="700.0" r="2.0" stroke="#000000" stroke-width="2.8" fill="#000000" />
<circle cx="620.0" cy="720.0" r="2.0" stroke="#000000" stroke-width="2.8" fill="#000000" />
</g>
<g>
<text text-anchor="start" x="520.0" y="598.0" fill="#000000" style="font-size:24px">B</text>
</g>
<g>
<path d="M 770,270 L 741,270 L 741,210 L 770,210 C 780,210 800,220 799,240 C 799,260 780,270 770,270 Z" stroke="#000000" stroke-width="2.8" fill="none"/>
<circle cx="730.0" cy="220.0" r="8.0" stroke="#000000" stroke-width="2.8" fill="none" />
<circle cx="720.0" cy="220.0" r="2.0" stroke="#000000" stroke-width="2.8" fill="#000000" />
<circle cx="740.0" cy="260.0" r="2.0" stroke="#000000" stroke-width="2.8" fill="#000000" />
<circle cx="800.0" cy="240.0" r="2.0" stroke="#000000" stroke-width="2.8" fill="#000000" />
</g>
<g>
<path d="M 671,290 C 680,280 680,240 671,230 C 680,230 700,240 720,260 C 700,280 680,290 671,290 Z" stroke="#000000" stroke-width="2.8" fill="none"/>
<path d="M 660,290 C 670,280 670,240 660,230" stroke="#000000" stroke-width="2.8" fill="none"/>
<circle cx="660.0" cy="240.0" r="2.0" stroke="#000000" stroke-width="2.8" fill="#000000" />
<circle cx="660.0" cy="280.0" r="2.0" stroke="#000000" stroke-width="2.8" fill="#000000" />
<circle cx="720.0" cy="260.0" r="2.0" stroke="#000000" stroke-width="2.8" fill="#000000" />
</g>
<g>
<text text-anchor="end" x="598.0" y="737.0" fill="#000000" style="font-size:12px">0-6</text>
<text text-anchor="start" x="622.0" y="737.0" fill="#000000" style="font-size:12px">0,1</text>
<text text-anchor="start" x="622.0" y="757.0" fill="#000000" style="font-size:12px">2</text>
<text text-anchor="start" x="622.0" y="777.0" fill="#000000" style="font-size:12px">3</text>
<text text-anchor="start" x="622.0" y="797.0" fill="#000000" style="font-size:12px">4</text>
<text text-anchor="start" x="622.0" y="817.0" fill="#000000" style="font-size:12px">5,6</text>
<path d="M 608,738 L 612,738 L 612,822 L 608,822 Z" stroke="#000000" stroke-width="2.8" fill="none"/>
<circle cx="600.0" cy="740.0" r="2.0" stroke="#000000" stroke-width="2.8" fill="#000000" />
<circle cx="620.0" cy="740.0" r="2.0" stroke="#000000" stroke-width="2.8" fill="#000000" />
<circle cx="620.0" cy="760.0" r="2.0" stroke="#000000" stroke-width="2.8" fill="#000000" />
<circle cx="620.0" cy="780.0" r="2.0" stroke="#000000" stroke-width="2.8" fill="#000000" />
<circle cx="620.0" cy="800.0" r="2.0" stroke="#000000" stroke-width="2.8" fill="#000000" />
<circle cx="620.0" cy="820.0" r="2.0" stroke="#000000" stroke-width="2.8" fill="#000000" />
</g>
<g>
<path d="M 690,810 L 661,810 L 661,750 L 690,750 C 700,750 720,760 719,780 C 719,800 700,810 690,810 Z" stroke="#000000" stroke-width="2.8" fill="none"/>
<circle cx="650.0" cy="800.0" r="8.0" stroke="#000000" stroke-width="2.8" fill="none" />
<circle cx="660.0" cy="760.0" r="2.0" stroke="#000000" stroke-width="2.8" fill="#000000" />
<circle cx="660.0" cy="780.0" r="2.0" stroke="#000000" stroke-width="2.8" fill="#000000" />
<circle cx="640.0" cy="800.0" r="2.0" stroke="#000000" stroke-width="2.8" fill="#000000" />
<circle cx="720.0" cy="780.0" r="2.0" stroke="#000000" stroke-width="2.8" fill="#000000" />
</g>
<g>
<text text-anchor="end" x="598.0" y="837.0" fill="#000000" style="font-size:12px">0-19</text>
<text text-anchor="start" x="622.0" y="837.0" fill="#000000" style="font-size:12px">0-7</text>
<text text-anchor="start" x="622.0" y="857.0" fill="#000000" style="font-size:12px">8</text>
<text text-anchor="start" x="622.0" y="877.0" fill="#000000" style="font-size:12px">9-18</text>
<text text-anchor="start" x="622.0" y="897.0" fill="#000000" style="font-size:12px">19</text>
<path d="M 608,838 L 612,838 L 612,902 L 608,902 Z" stroke="#000000" stroke-width="2.8" fill="none"/>
<circle cx="600.0" cy="840.0" r="2.0" stroke="#000000" stroke-width="2.8" fill="#000000" />
<circle cx="620.0" cy="840.0" r="2.0" stroke="#000000" stroke-width="2.8" fill="#000000" />
<circle cx="620.0" cy="860.0" r="2.0" stroke="#000000" stroke-width="2.8" fill="#000000" />
<circle cx="620.0" cy="880.0" r="2.0" stroke="#000000" stroke-width="2.8" fill="#000000" />
<circle cx="620.0" cy="900.0" r="2.0" stroke="#000000" stroke-width="2.8" fill="#000000" />
</g>
<g>
<text text-anchor="end" x="758.0" y="797.0" fill="#000000" style="font-size:12px">0</text>
<text text-anchor="end" x="758.0" y="817.0" fill="#000000" style="font-size:12px">1-10</text>
<text text-anchor="end" x="758.0" y="837.0" fill="#000000" style="font-size:12px">11</text>
<text text-anchor="end" x="758.0" y="857.0" fill="#000000" style="font-size:12px">12-19</text>
<text text-anchor="end" x="758.0" y="877.0" fill="#000000" style="font-size:12px">20</text>
<text text-anchor="start" x="782.0" y="797.0" fill="#000000" style="font-size:12px">0-20</text>
<path d="M 768,798 L 772,798 L 772,882 L 768,882 Z" stroke="#000000" stroke-width="2.8" fill="none"/>
<circle cx="760.0" cy="800.0" r="2.0" stroke="#000000" stroke-width="2.8" fill="#000000" />
<circle cx="760.0" cy="820.0" r="2.0" stroke="#000000" stroke-width="2.8" fill="#000000" />
<circle cx="760.0" cy="840.0" r="2.0" stroke="#000000" stroke-width="2.8" fill="#000000" />
<circle cx="760.0" cy="860.0" r="2.0" stroke="#000000" stroke-width="2.8" fill="#000000" />
<circle cx="760.0" cy="880.0" r="2.0" stroke="#000000" stroke-width="2.8" fill="#000000" />
<circle cx="780.0" cy="800.0" r="2.0" stroke="#000000" stroke-width="2.8" fill="#000000" />
</g>
<g>
<path d="M 920,800 L 920,780 L 960,800 L 960,780 L 920,800 Z" stroke="#000000" stroke-width="2.8" fill="none"/>
<path d="M 920,800 L 920,820 L 960,800 L 960,820 L 920,800 Z" stroke="#000000" stroke-width="2.8" fill="none"/>
<circle cx="940.0" cy="815.0" r="4.0" stroke="#000000" stroke-width="2.8" fill="none" />
<circle cx="940.0" cy="780.0" r="2.0" stroke="#000000" stroke-width="2.8" fill="#000000" />
<circle cx="940.0" cy="820.0" r="2.0" stroke="#000000" stroke-width="2.8" fill="#000000" />
<circle cx="920.0" cy="800.0" r="2.0" stroke="#000000" stroke-width="2.8" fill="#000000" />
<circle cx="960.0" cy="800.0" r="2.0" stroke="#000000" stroke-width="2.8" fill="#000000" />
</g>
<g>
<path d="M 961,748 L 979,760 L 961,772 Z" stroke="#000000" stroke-width="2.8" fill="none"/>
<circle cx="990.0" cy="760.0" r="9.0" stroke="#000000" stroke-width="2.8" fill="none" />
<circle cx="960.0" cy="760.0" r="2.0" stroke="#000000" stroke-width="2.8" fill="#000000" />
<circle cx="1000.0" cy="760.0" r="2.0" stroke="#000000" stroke-width="2.8" fill="#000000" />
</g>
<g>
<text text-anchor="start" x="520.0" y="798.0" fill="#000000" style="font-size:24px">J</text>
</g>
<g>
<path d="M 770,350 L 760,350 C 770,340 770,300 760,290 L 770,290 C 780,290 800,300 820,320 C 800,340 780,350 770,350 Z" stroke="#000000" stroke-width="2.8" fill="none"/>
<circle cx="760.0" cy="300.0" r="2.0" stroke="#000000" stroke-width="2.8" fill="#000000" />
<circle cx="760.0" cy="340.0" r="2.0" stroke="#000000" stroke-width="2.8" fill="#000000" />
<circle cx="820.0" cy="320.0" r="2.0" stroke="#000000" stroke-width="2.8" fill="#000000" />
</g>
<g>
<path d="M 670,370 L 660,370 C 670,360 670,320 660,310 L 670,310 C 680,310 700,320 720,340 C 700,360 680,370 670,370 Z" stroke="#000000" stroke-width="2.8" fill="none"/>
<circle cx="730.0" cy="340.0" r="9.0" stroke="#000000" stroke-width="2.8" fill="none" />
<circle cx="660.0" cy="320.0" r="2.0" stroke="#000000" stroke-width="2.8" fill="#000000" />
<circle cx="660.0" cy="360.0" r="2.0" stroke="#000000" stroke-width="2.8" fill="#000000" />
<circle cx="740.0" cy="340.0" r="2.0" stroke="#000000" stroke-width="2.8" fill="#000000" />
</g>
<g>
<path d="M 841,390 L 899,390 L 899,410 L 841,410 Z" stroke="#000000" stroke-width="2.8" fill="none"/>
<text text-anchor="start" x="844.0" y="406.75" fill="#000000" style="font-size:18px">in</text>
<text text-anchor="end" x="896.0" y="406.75" fill="#000000" style="font-size:18px">out</text>
<text text-anchor="middle" x="870.0" y="427.5" fill="#000000" style="font-size:18px">SignEx</text>
<circle cx="840.0" cy="400.0" r="2.0" stroke="#000000" stroke-width="2.8" fill="#000000" />
<circle cx="900.0" cy="400.0" r="2.0" stroke="#000000" stroke-width="2.8" fill="#000000" />
</g>
<g>
<path d="M 841,490 L 899,490 L 899,510 L 841,510 Z" stroke="#000000" stroke-width="2.8" fill="none"/>
<text text-anchor="start" x="844.0" y="506.75" fill="#000000" style="font-size:18px">in</text>
<text text-anchor="end" x="896.0" y="506.75" fill="#000000" style="font-size:18px">out</text>
<text text-anchor="middle" x="870.0" y="527.5" fill="#000000" style="font-size:18px">SignEx</text>
<circle cx="840.0" cy="500.0" r="2.0" stroke="#000000" stroke-width="2.8" fill="#000000" />
<circle cx="900.0" cy="500.0" r="2.0" stroke="#000000" stroke-width="2.8" fill="#000000" />
</g>
<g>
<path d="M 841,590 L 899,590 L 899,610 L 841,610 Z" stroke="#000000" stroke-width="2.8" fill="none"/>
<text text-anchor="start" x="844.0" y="606.75" fill="#000000" style="font-size:18px">in</text>
<text text-anchor="end" x="896.0" y="606.75" fill="#000000" style="font-size:18px">out</text>
<text text-anchor="middle" x="870.0" y="627.5" fill="#000000" style="font-size:18px">SignEx</text>
<circle cx="840.0" cy="600.0" r="2.0" stroke="#000000" stroke-width="2.8" fill="#000000" />
<circle cx="900.0" cy="600.0" r="2.0" stroke="#000000" stroke-width="2.8" fill="#000000" />
</g>
<g>
<path d="M 841,790 L 899,790 L 899,810 L 841,810 Z" stroke="#000000" stroke-width="2.8" fill="none"/>
<text text-anchor="start" x="844.0" y="806.75" fill="#000000" style="font-size:18px">in</text>
<text text-anchor="end" x="896.0" y="806.75" fill="#000000" style="font-size:18px">out</text>
<text text-anchor="middle" x="870.0" y="827.5" fill="#000000" style="font-size:18px">SignEx</text>
<circle cx="840.0" cy="800.0" r="2.0" stroke="#000000" stroke-width="2.8" fill="#000000" />
<circle cx="900.0" cy="800.0" r="2.0" stroke="#000000" stroke-width="2.8" fill="#000000" />
</g>
<g>
<text text-anchor="end" x="737.0" y="809.0" fill="#000000" style="font-size:24px">0</text>
<circle cx="740.0" cy="800.0" r="2.0" stroke="#000000" stroke-width="2.8" fill="#000000" />
</g>
</g>
</svg>