<?xml version="1.0" encoding="UTF-8" standalone="no"?>
<!-- Created with Digital by H.Neemann -->
<!-- created: Wed Nov 08 09:36:48 BRT 2023 -->

<svg
   xmlns:svg="http://www.w3.org/2000/svg"
   xmlns="http://www.w3.org/2000/svg"
   width="102.45mm"
   height="74.4mm"
   viewBox="347 266 683 496">
<g stroke-linecap="square">
<path d="M 540,320 L 580,320 L 780,320 L 780,500 L 800,500 L 804,500" stroke="#000000" stroke-width="2.8" fill="none"/>
<path d="M 460,320 L 520,320 L 520,580 L 540,580 L 640,580" stroke="#000000" stroke-width="2.8" fill="none"/>
<path d="M 860,480 L 880,480" stroke="#000000" stroke-width="2.8" fill="none"/>
<path d="M 600,640 L 640,640" stroke="#000000" stroke-width="2.8" fill="none"/>
<path d="M 520,640 L 540,640 L 560,640" stroke="#000000" stroke-width="2.8" fill="none"/>
<path d="M 880,420 L 940,420" stroke="#000000" stroke-width="2.8" fill="none"/>
<path d="M 540,360 L 620,360 L 620,340 L 660,340" stroke="#000000" stroke-width="2.8" fill="none"/>
<path d="M 460,360 L 500,360 L 500,620" stroke="#000000" stroke-width="2.8" fill="none"/>
<path d="M 720,360 L 900,360 L 900,460 L 860,460 L 860,440" stroke="#000000" stroke-width="2.8" fill="none"/>
<path d="M 620,360 L 620,520 L 720,520" stroke="#000000" stroke-width="2.8" fill="none"/>
<path d="M 860,520 L 880,520" stroke="#000000" stroke-width="2.8" fill="none"/>
<path d="M 620,620 L 620,680 L 640,680" stroke="#000000" stroke-width="2.8" fill="none"/>
<path d="M 540,300 L 560,300 L 560,420 L 680,420" stroke="#000000" stroke-width="2.8" fill="none"/>
<path d="M 600,620 L 620,620 L 640,620" stroke="#000000" stroke-width="2.8" fill="none"/>
<path d="M 640,380 L 640,560 L 720,560" stroke="#000000" stroke-width="2.8" fill="none"/>
<path d="M 460,400 L 480,400 L 480,760 L 660,760 L 660,740" stroke="#000000" stroke-width="2.8" fill="none"/>
<path d="M 820,400 L 840,400" stroke="#000000" stroke-width="2.8" fill="none"/>
<path d="M 620,700 L 620,720 L 640,720" stroke="#000000" stroke-width="2.8" fill="none"/>
<path d="M 920,500 L 940,500" stroke="#000000" stroke-width="2.8" fill="none"/>
<path d="M 560,420 L 560,500 L 700,500" stroke="#000000" stroke-width="2.8" fill="none"/>
<path d="M 540,340 L 600,340 L 600,460 L 660,460" stroke="#000000" stroke-width="2.8" fill="none"/>
<path d="M 680,660 L 700,660 L 700,580 L 720,580" stroke="#000000" stroke-width="2.8" fill="none"/>
<path d="M 540,640 L 540,660 L 640,660" stroke="#000000" stroke-width="2.8" fill="none"/>
<path d="M 600,600 L 640,600" stroke="#000000" stroke-width="2.8" fill="none"/>
<path d="M 540,580 L 540,600 L 560,600" stroke="#000000" stroke-width="2.8" fill="none"/>
<path d="M 460,280 L 520,280" stroke="#000000" stroke-width="2.8" fill="none"/>
<path d="M 580,320 L 580,440 L 660,440" stroke="#000000" stroke-width="2.8" fill="none"/>
<path d="M 740,440 L 840,440" stroke="#000000" stroke-width="2.8" fill="none"/>
<path d="M 780,540 L 800,540 L 804,540" stroke="#000000" stroke-width="2.8" fill="none"/>
<path d="M 620,680 L 620,700 L 640,700" stroke="#000000" stroke-width="2.8" fill="none"/>
<path d="M 540,380 L 640,380 L 660,380" stroke="#000000" stroke-width="2.8" fill="none"/>
<path d="M 900,460 L 900,480" stroke="#000000" stroke-width="2.8" fill="none"/>
<path d="M 520,280 L 530,280 L 540,280" stroke="#000000" stroke-width="2.8" fill="none"/>
<path d="M 540,300 L 530,300" stroke="#000000" stroke-width="2.8" fill="none"/>
<path d="M 540,320 L 530,320" stroke="#000000" stroke-width="2.8" fill="none"/>
<path d="M 540,340 L 530,340" stroke="#000000" stroke-width="2.8" fill="none"/>
<path d="M 540,360 L 530,360" stroke="#000000" stroke-width="2.8" fill="none"/>
<path d="M 540,380 L 530,380" stroke="#000000" stroke-width="2.8" fill="none"/>
<path d="M 500,620 L 510,620 L 520,620" stroke="#000000" stroke-width="2.8" fill="none"/>
<path d="M 520,640 L 510,640" stroke="#000000" stroke-width="2.8" fill="none"/>
<path d="M 721,500 L 721,509" stroke="#000000" stroke-width="2.8" fill="none"/>
<path d="M 721,580 L 721,571" stroke="#000000" stroke-width="2.8" fill="none"/>
<g>
<circle cx="580.0" cy="320.0" r="4.0" stroke="#000000" stroke-width="2.8" fill="#000000" />
<circle cx="540.0" cy="640.0" r="4.0" stroke="#000000" stroke-width="2.8" fill="#000000" />
<circle cx="560.0" cy="420.0" r="4.0" stroke="#000000" stroke-width="2.8" fill="#000000" />
<circle cx="540.0" cy="580.0" r="4.0" stroke="#000000" stroke-width="2.8" fill="#000000" />
<circle cx="620.0" cy="360.0" r="4.0" stroke="#000000" stroke-width="2.8" fill="#000000" />
<circle cx="620.0" cy="680.0" r="4.0" stroke="#000000" stroke-width="2.8" fill="#000000" />
<circle cx="900.0" cy="460.0" r="4.0" stroke="#000000" stroke-width="2.8" fill="#000000" />
<circle cx="620.0" cy="620.0" r="4.0" stroke="#000000" stroke-width="2.8" fill="#000000" />
<circle cx="620.0" cy="700.0" r="4.0" stroke="#000000" stroke-width="2.8" fill="#000000" />
<circle cx="640.0" cy="380.0" r="4.0" stroke="#000000" stroke-width="2.8" fill="#000000" />
</g>
<g>
<circle cx="456.0" cy="280.0" r="4.0" stroke="#000000" stroke-width="2.8" fill="none" />
<text text-anchor="end" x="446.0" y="289.0" fill="#000000" style="font-size:24px"><tspan style="font-style:italic;">Opcode</tspan></text>
<circle cx="460.0" cy="280.0" r="2.0" stroke="#000000" stroke-width="2.8" fill="#000000" />
</g>
<g>
<text text-anchor="end" x="518.0" y="277.0" fill="#000000" style="font-size:12px">0-6</text>
<text text-anchor="start" x="542.0" y="277.0" fill="#000000" style="font-size:12px">0,1</text>
<text text-anchor="start" x="542.0" y="297.0" fill="#000000" style="font-size:12px">2</text>
<text text-anchor="start" x="542.0" y="317.0" fill="#000000" style="font-size:12px">3</text>
<text text-anchor="start" x="542.0" y="337.0" fill="#000000" style="font-size:12px">4</text>
<text text-anchor="start" x="542.0" y="357.0" fill="#000000" style="font-size:12px">5</text>
<text text-anchor="start" x="542.0" y="377.0" fill="#000000" style="font-size:12px">6</text>
<path d="M 528,278 L 532,278 L 532,382 L 528,382 Z" stroke="#000000" stroke-width="2.8" fill="none"/>
<circle cx="520.0" cy="280.0" r="2.0" stroke="#000000" stroke-width="2.8" fill="#000000" />
<circle cx="540.0" cy="280.0" r="2.0" stroke="#000000" stroke-width="2.8" fill="#000000" />
<circle cx="540.0" cy="300.0" r="2.0" stroke="#000000" stroke-width="2.8" fill="#000000" />
<circle cx="540.0" cy="320.0" r="2.0" stroke="#000000" stroke-width="2.8" fill="#000000" />
<circle cx="540.0" cy="340.0" r="2.0" stroke="#000000" stroke-width="2.8" fill="#000000" />
<circle cx="540.0" cy="360.0" r="2.0" stroke="#000000" stroke-width="2.8" fill="#000000" />
<circle cx="540.0" cy="380.0" r="2.0" stroke="#000000" stroke-width="2.8" fill="#000000" />
</g>
<g>
<circle cx="944.0" cy="420.0" r="4.0" stroke="#000000" stroke-width="2.8" fill="none" />
<text text-anchor="start" x="954.0" y="429.0" fill="#000000" style="font-size:24px"><tspan style="font-style:italic;">PC Alu</tspan></text>
<circle cx="940.0" cy="420.0" r="2.0" stroke="#000000" stroke-width="2.8" fill="#000000" />
</g>
<g>
<circle cx="944.0" cy="500.0" r="4.0" stroke="#000000" stroke-width="2.8" fill="none" />
<text text-anchor="start" x="954.0" y="509.0" fill="#000000" style="font-size:24px"><tspan style="font-style:italic;">+ IMM</tspan></text>
<circle cx="940.0" cy="500.0" r="2.0" stroke="#000000" stroke-width="2.8" fill="#000000" />
</g>
<g>
<path d="M 710,470 L 681,470 L 681,410 L 710,410 C 720,410 740,420 739,440 C 739,460 720,470 710,470 Z" stroke="#000000" stroke-width="2.8" fill="none"/>
<circle cx="670.0" cy="440.0" r="8.0" stroke="#000000" stroke-width="2.8" fill="none" />
<circle cx="670.0" cy="460.0" r="8.0" stroke="#000000" stroke-width="2.8" fill="none" />
<circle cx="680.0" cy="420.0" r="2.0" stroke="#000000" stroke-width="2.8" fill="#000000" />
<circle cx="660.0" cy="440.0" r="2.0" stroke="#000000" stroke-width="2.8" fill="#000000" />
<circle cx="660.0" cy="460.0" r="2.0" stroke="#000000" stroke-width="2.8" fill="#000000" />
<circle cx="740.0" cy="440.0" r="2.0" stroke="#000000" stroke-width="2.8" fill="#000000" />
</g>
<g>
<circle cx="456.0" cy="400.0" r="4.0" stroke="#000000" stroke-width="2.8" fill="none" />
<text text-anchor="end" x="446.0" y="409.0" fill="#000000" style="font-size:24px"><tspan style="font-style:italic;">Func 3</tspan></text>
<circle cx="460.0" cy="400.0" r="2.0" stroke="#000000" stroke-width="2.8" fill="#000000" />
</g>
<g>
<circle cx="456.0" cy="360.0" r="4.0" stroke="#000000" stroke-width="2.8" fill="none" />
<text text-anchor="end" x="446.0" y="369.0" fill="#000000" style="font-size:24px"><tspan style="font-style:italic;">Alu out</tspan></text>
<circle cx="460.0" cy="360.0" r="2.0" stroke="#000000" stroke-width="2.8" fill="#000000" />
</g>
<g>
<circle cx="456.0" cy="320.0" r="4.0" stroke="#000000" stroke-width="2.8" fill="none" />
<text text-anchor="end" x="446.0" y="329.0" fill="#000000" style="font-size:24px"><tspan style="font-style:italic;">Zero out</tspan></text>
<circle cx="460.0" cy="320.0" r="2.0" stroke="#000000" stroke-width="2.8" fill="#000000" />
</g>
<g>
<path d="M 641,576 L 679,585 L 679,735 L 641,744 Z" stroke="#000000" stroke-width="2.8" fill="none"/>
<text text-anchor="start" x="643.0" y="595.5" fill="#000000" style="font-size:18px">0</text>
<circle cx="660.0" cy="740.0" r="2.0" stroke="#000000" stroke-width="2.8" fill="#000000" />
<circle cx="640.0" cy="580.0" r="2.0" stroke="#000000" stroke-width="2.8" fill="#000000" />
<circle cx="640.0" cy="600.0" r="2.0" stroke="#000000" stroke-width="2.8" fill="#000000" />
<circle cx="640.0" cy="620.0" r="2.0" stroke="#000000" stroke-width="2.8" fill="#000000" />
<circle cx="640.0" cy="640.0" r="2.0" stroke="#000000" stroke-width="2.8" fill="#000000" />
<circle cx="640.0" cy="660.0" r="2.0" stroke="#000000" stroke-width="2.8" fill="#000000" />
<circle cx="640.0" cy="680.0" r="2.0" stroke="#000000" stroke-width="2.8" fill="#000000" />
<circle cx="640.0" cy="700.0" r="2.0" stroke="#000000" stroke-width="2.8" fill="#000000" />
<circle cx="640.0" cy="720.0" r="2.0" stroke="#000000" stroke-width="2.8" fill="#000000" />
<circle cx="680.0" cy="660.0" r="2.0" stroke="#000000" stroke-width="2.8" fill="#000000" />
</g>
<g>
<path d="M 561,588 L 579,600 L 561,612 Z" stroke="#000000" stroke-width="2.8" fill="none"/>
<circle cx="590.0" cy="600.0" r="9.0" stroke="#000000" stroke-width="2.8" fill="none" />
<circle cx="560.0" cy="600.0" r="2.0" stroke="#000000" stroke-width="2.8" fill="#000000" />
<circle cx="600.0" cy="600.0" r="2.0" stroke="#000000" stroke-width="2.8" fill="#000000" />
</g>
<g>
<text text-anchor="end" x="498.0" y="617.0" fill="#000000" style="font-size:12px">0-31</text>
<text text-anchor="start" x="522.0" y="617.0" fill="#000000" style="font-size:12px">0-30</text>
<text text-anchor="start" x="522.0" y="637.0" fill="#000000" style="font-size:12px">31</text>
<path d="M 508,618 L 512,618 L 512,642 L 508,642 Z" stroke="#000000" stroke-width="2.8" fill="none"/>
<circle cx="500.0" cy="620.0" r="2.0" stroke="#000000" stroke-width="2.8" fill="#000000" />
<circle cx="520.0" cy="620.0" r="2.0" stroke="#000000" stroke-width="2.8" fill="#000000" />
<circle cx="520.0" cy="640.0" r="2.0" stroke="#000000" stroke-width="2.8" fill="#000000" />
</g>
<g>
<path d="M 561,628 L 579,640 L 561,652 Z" stroke="#000000" stroke-width="2.8" fill="none"/>
<circle cx="590.0" cy="640.0" r="9.0" stroke="#000000" stroke-width="2.8" fill="none" />
<circle cx="560.0" cy="640.0" r="2.0" stroke="#000000" stroke-width="2.8" fill="#000000" />
<circle cx="600.0" cy="640.0" r="2.0" stroke="#000000" stroke-width="2.8" fill="#000000" />
</g>
<g>
<text text-anchor="end" x="597.0" y="629.0" fill="#000000" style="font-size:24px">0</text>
<circle cx="600.0" cy="620.0" r="2.0" stroke="#000000" stroke-width="2.8" fill="#000000" />
</g>
<g>
<path d="M 841,396 L 879,405 L 879,435 L 841,444 Z" stroke="#000000" stroke-width="2.8" fill="none"/>
<text text-anchor="start" x="843.0" y="415.5" fill="#000000" style="font-size:18px">0</text>
<circle cx="860.0" cy="440.0" r="2.0" stroke="#000000" stroke-width="2.8" fill="#000000" />
<circle cx="840.0" cy="400.0" r="2.0" stroke="#000000" stroke-width="2.8" fill="#000000" />
<circle cx="840.0" cy="440.0" r="2.0" stroke="#000000" stroke-width="2.8" fill="#000000" />
<circle cx="880.0" cy="420.0" r="2.0" stroke="#000000" stroke-width="2.8" fill="#000000" />
</g>
<g>
<path d="M 881,476 L 919,485 L 919,515 L 881,524 Z" stroke="#000000" stroke-width="2.8" fill="none"/>
<text text-anchor="start" x="883.0" y="495.5" fill="#000000" style="font-size:18px">0</text>
<circle cx="900.0" cy="480.0" r="2.0" stroke="#000000" stroke-width="2.8" fill="#000000" />
<circle cx="880.0" cy="480.0" r="2.0" stroke="#000000" stroke-width="2.8" fill="#000000" />
<circle cx="880.0" cy="520.0" r="2.0" stroke="#000000" stroke-width="2.8" fill="#000000" />
<circle cx="920.0" cy="500.0" r="2.0" stroke="#000000" stroke-width="2.8" fill="#000000" />
</g>
<g>
<path d="M 690,390 L 661,390 L 661,330 L 690,330 C 700,330 720,340 719,360 C 719,380 700,390 690,390 Z" stroke="#000000" stroke-width="2.8" fill="none"/>
<circle cx="660.0" cy="340.0" r="2.0" stroke="#000000" stroke-width="2.8" fill="#000000" />
<circle cx="660.0" cy="380.0" r="2.0" stroke="#000000" stroke-width="2.8" fill="#000000" />
<circle cx="720.0" cy="360.0" r="2.0" stroke="#000000" stroke-width="2.8" fill="#000000" />
</g>
<g>
<text text-anchor="end" x="817.0" y="409.0" fill="#000000" style="font-size:24px">0</text>
<circle cx="820.0" cy="400.0" r="2.0" stroke="#000000" stroke-width="2.8" fill="#000000" />
</g>
<g>
<path d="M 750,570 L 721,570 L 721,510 L 750,510 C 760,510 780,520 779,540 C 779,560 760,570 750,570 Z" stroke="#000000" stroke-width="2.8" fill="none"/>
<circle cx="710.0" cy="500.0" r="8.0" stroke="#000000" stroke-width="2.8" fill="none" />
<circle cx="700.0" cy="500.0" r="2.0" stroke="#000000" stroke-width="2.8" fill="#000000" />
<circle cx="720.0" cy="520.0" r="2.0" stroke="#000000" stroke-width="2.8" fill="#000000" />
<circle cx="720.0" cy="560.0" r="2.0" stroke="#000000" stroke-width="2.8" fill="#000000" />
<circle cx="720.0" cy="580.0" r="2.0" stroke="#000000" stroke-width="2.8" fill="#000000" />
<circle cx="780.0" cy="540.0" r="2.0" stroke="#000000" stroke-width="2.8" fill="#000000" />
</g>
<g>
<text text-anchor="end" x="857.0" y="489.0" fill="#000000" style="font-size:24px">0</text>
<circle cx="860.0" cy="480.0" r="2.0" stroke="#000000" stroke-width="2.8" fill="#000000" />
</g>
<g>
<path d="M 810,550 L 800,550 C 810,540 810,500 800,490 L 810,490 C 820,490 840,500 860,520 C 840,540 820,550 810,550 Z" stroke="#000000" stroke-width="2.8" fill="none"/>
<circle cx="800.0" cy="500.0" r="2.0" stroke="#000000" stroke-width="2.8" fill="#000000" />
<circle cx="800.0" cy="540.0" r="2.0" stroke="#000000" stroke-width="2.8" fill="#000000" />
<circle cx="860.0" cy="520.0" r="2.0" stroke="#000000" stroke-width="2.8" fill="#000000" />
</g>
</g>
</svg>