<?xml version="1.0" encoding="UTF-8" standalone="no"?>
<!-- Created with Digital by H.Neemann -->
<!-- created: Fri Nov 10 18:50:23 BRT 2023 -->

<svg
   xmlns:svg="http://www.w3.org/2000/svg"
   xmlns="http://www.w3.org/2000/svg"
   width="115.5mm"
   height="166.2mm"
   viewBox="344 -114 770 1108">
<g stroke-linecap="square">
<path d="M 880,860 L 880,960 L 940,960" stroke="#000000" stroke-width="2.8" fill="none"/>
<path d="M 600,900 L 780,900" stroke="#000000" stroke-width="2.8" fill="none"/>
<path d="M 500,800 L 500,900 L 560,900" stroke="#000000" stroke-width="2.8" fill="none"/>
<path d="M 1060,200 L 1080,200" stroke="#000000" stroke-width="2.8" fill="none"/>
<path d="M 660,200 L 660,520 L 780,520" stroke="#000000" stroke-width="2.8" fill="none"/>
<path d="M 860,540 L 860,840 L 940,840" stroke="#000000" stroke-width="2.8" fill="none"/>
<path d="M 600,140 L 780,140" stroke="#000000" stroke-width="2.8" fill="none"/>
<path d="M 440,140 L 480,140 L 560,140" stroke="#000000" stroke-width="2.8" fill="none"/>
<path d="M 600,460 L 780,460" stroke="#000000" stroke-width="2.8" fill="none"/>
<path d="M 460,160 L 460,460 L 560,460" stroke="#000000" stroke-width="2.8" fill="none"/>
<path d="M 600,780 L 780,780" stroke="#000000" stroke-width="2.8" fill="none"/>
<path d="M 540,-80 L 700,-80 L 780,-80 L 800,-80 L 800,60" stroke="#000000" stroke-width="2.8" fill="none"/>
<path d="M 680,-100 L 680,80 L 720,80" stroke="#000000" stroke-width="2.8" fill="none"/>
<path d="M 680,80 L 680,400 L 720,400" stroke="#000000" stroke-width="2.8" fill="none"/>
<path d="M 680,400 L 680,720 L 720,720" stroke="#000000" stroke-width="2.8" fill="none"/>
<path d="M 400,-20 L 640,-20 L 640,160 L 780,160" stroke="#000000" stroke-width="2.8" fill="none"/>
<path d="M 400,20 L 660,20 L 660,200 L 780,200" stroke="#000000" stroke-width="2.8" fill="none"/>
<path d="M 740,700 L 740,660 L 780,660 L 780,640" stroke="#000000" stroke-width="2.8" fill="none"/>
<path d="M 900,500 L 900,800 L 900,980 L 940,980" stroke="#000000" stroke-width="2.8" fill="none"/>
<path d="M 640,800 L 640,920 L 780,920" stroke="#000000" stroke-width="2.8" fill="none"/>
<path d="M 840,920 L 920,920 L 940,920" stroke="#000000" stroke-width="2.8" fill="none"/>
<path d="M 960,920 L 1000,920 L 1000,220 L 1020,220" stroke="#000000" stroke-width="2.8" fill="none"/>
<path d="M 460,760 L 460,860 L 560,860" stroke="#000000" stroke-width="2.8" fill="none"/>
<path d="M 700,220 L 700,540 L 780,540 L 800,540 L 800,680 L 780,680 L 760,680 L 760,700" stroke="#000000" stroke-width="2.8" fill="none"/>
<path d="M 860,160 L 860,540 L 940,540" stroke="#000000" stroke-width="2.8" fill="none"/>
<path d="M 700,-80 L 700,220 L 780,220 L 800,220 L 800,360 L 780,360 L 780,380" stroke="#000000" stroke-width="2.8" fill="none"/>
<path d="M 640,480 L 640,800 L 780,800" stroke="#000000" stroke-width="2.8" fill="none"/>
<path d="M 840,800 L 900,800 L 940,800" stroke="#000000" stroke-width="2.8" fill="none"/>
<path d="M 500,420 L 500,800 L 560,800" stroke="#000000" stroke-width="2.8" fill="none"/>
<path d="M 960,800 L 980,800 L 980,200 L 1020,200" stroke="#000000" stroke-width="2.8" fill="none"/>
<path d="M 640,160 L 640,480 L 780,480" stroke="#000000" stroke-width="2.8" fill="none"/>
<path d="M 840,480 L 880,480 L 940,480" stroke="#000000" stroke-width="2.8" fill="none"/>
<path d="M 520,100 L 520,480 L 560,480" stroke="#000000" stroke-width="2.8" fill="none"/>
<path d="M 840,160 L 860,160 L 940,160" stroke="#000000" stroke-width="2.8" fill="none"/>
<path d="M 440,160 L 460,160 L 560,160" stroke="#000000" stroke-width="2.8" fill="none"/>
<path d="M 960,160 L 1020,160" stroke="#000000" stroke-width="2.8" fill="none"/>
<path d="M 540,-100 L 580,-100 L 680,-100 L 1040,-100 L 1040,160" stroke="#000000" stroke-width="2.8" fill="none"/>
<path d="M 400,-100 L 520,-100" stroke="#000000" stroke-width="2.8" fill="none"/>
<path d="M 500,120 L 500,420 L 560,420" stroke="#000000" stroke-width="2.8" fill="none"/>
<path d="M 440,100 L 520,100 L 560,100" stroke="#000000" stroke-width="2.8" fill="none"/>
<path d="M 740,380 L 740,360 L 760,360 L 760,340 L 780,340 L 780,320" stroke="#000000" stroke-width="2.8" fill="none"/>
<path d="M 740,60 L 740,40 L 760,40 L 780,40 L 780,20" stroke="#000000" stroke-width="2.8" fill="none"/>
<path d="M 620,820 L 620,940 L 780,940" stroke="#000000" stroke-width="2.8" fill="none"/>
<path d="M 860,840 L 860,940 L 940,940" stroke="#000000" stroke-width="2.8" fill="none"/>
<path d="M 700,540 L 700,880 L 780,880" stroke="#000000" stroke-width="2.8" fill="none"/>
<path d="M 920,520 L 920,820 L 940,820" stroke="#000000" stroke-width="2.8" fill="none"/>
<path d="M 960,480 L 960,180 L 1020,180" stroke="#000000" stroke-width="2.8" fill="none"/>
<path d="M 460,460 L 460,760 L 560,760" stroke="#000000" stroke-width="2.8" fill="none"/>
<path d="M 760,740 L 760,760 L 780,760" stroke="#000000" stroke-width="2.8" fill="none"/>
<path d="M 480,140 L 480,440 L 560,440" stroke="#000000" stroke-width="2.8" fill="none"/>
<path d="M 760,420 L 760,440 L 780,440" stroke="#000000" stroke-width="2.8" fill="none"/>
<path d="M 440,120 L 500,120 L 560,120" stroke="#000000" stroke-width="2.8" fill="none"/>
<path d="M 760,100 L 760,120 L 780,120" stroke="#000000" stroke-width="2.8" fill="none"/>
<path d="M 400,-60 L 620,-60 L 620,180 L 780,180" stroke="#000000" stroke-width="2.8" fill="none"/>
<path d="M 400,60 L 420,60 L 420,100" stroke="#000000" stroke-width="2.8" fill="none"/>
<path d="M 560,920 L 480,920 L 480,740 L 560,740" stroke="#000000" stroke-width="2.8" fill="none"/>
<path d="M 480,440 L 480,740" stroke="#000000" stroke-width="2.8" fill="none"/>
<path d="M 800,360 L 800,380" stroke="#000000" stroke-width="2.8" fill="none"/>
<path d="M 800,680 L 800,700" stroke="#000000" stroke-width="2.8" fill="none"/>
<path d="M 940,200 L 900,200 L 900,500 L 940,500" stroke="#000000" stroke-width="2.8" fill="none"/>
<path d="M 580,80 L 580,100" stroke="#000000" stroke-width="2.8" fill="none"/>
<path d="M 740,-60 L 740,-40" stroke="#000000" stroke-width="2.8" fill="none"/>
<path d="M 740,240 L 740,260" stroke="#000000" stroke-width="2.8" fill="none"/>
<path d="M 740,560 L 740,580" stroke="#000000" stroke-width="2.8" fill="none"/>
<path d="M 560,780 L 520,780 L 520,880 L 560,880" stroke="#000000" stroke-width="2.8" fill="none"/>
<path d="M 520,480 L 520,780" stroke="#000000" stroke-width="2.8" fill="none"/>
<path d="M 780,820 L 620,820 L 620,500 L 780,500" stroke="#000000" stroke-width="2.8" fill="none"/>
<path d="M 620,180 L 620,500" stroke="#000000" stroke-width="2.8" fill="none"/>
<path d="M 780,-80 L 780,-40" stroke="#000000" stroke-width="2.8" fill="none"/>
<path d="M 780,220 L 780,260" stroke="#000000" stroke-width="2.8" fill="none"/>
<path d="M 780,540 L 780,580" stroke="#000000" stroke-width="2.8" fill="none"/>
<path d="M 780,680 L 780,700" stroke="#000000" stroke-width="2.8" fill="none"/>
<path d="M 780,40 L 780,60" stroke="#000000" stroke-width="2.8" fill="none"/>
<path d="M 940,860 L 880,860 L 880,480 L 880,180 L 940,180" stroke="#000000" stroke-width="2.8" fill="none"/>
<path d="M 780,960 L 660,960 L 660,840 L 780,840" stroke="#000000" stroke-width="2.8" fill="none"/>
<path d="M 660,520 L 660,840" stroke="#000000" stroke-width="2.8" fill="none"/>
<path d="M 940,520 L 920,520 L 920,220 L 940,220" stroke="#000000" stroke-width="2.8" fill="none"/>
<path d="M 920,820 L 920,920" stroke="#000000" stroke-width="2.8" fill="none"/>
<path d="M 760,40 L 760,60" stroke="#000000" stroke-width="2.8" fill="none"/>
<path d="M 760,-60 L 760,-40" stroke="#000000" stroke-width="2.8" fill="none"/>
<path d="M 760,240 L 760,260" stroke="#000000" stroke-width="2.8" fill="none"/>
<path d="M 760,560 L 760,580" stroke="#000000" stroke-width="2.8" fill="none"/>
<path d="M 760,360 L 760,380" stroke="#000000" stroke-width="2.8" fill="none"/>
<path d="M 580,-100 L 580,80 L 540,80 L 540,400 L 580,400 L 580,420" stroke="#000000" stroke-width="2.8" fill="none"/>
<path d="M 580,860 L 580,840 L 540,840 L 540,720 L 580,720 L 580,740" stroke="#000000" stroke-width="2.8" fill="none"/>
<path d="M 540,400 L 540,720" stroke="#000000" stroke-width="2.8" fill="none"/>
<path d="M 420,100 L 430,100 L 440,100" stroke="#000000" stroke-width="2.8" fill="none"/>
<path d="M 440,120 L 430,120" stroke="#000000" stroke-width="2.8" fill="none"/>
<path d="M 440,140 L 430,140" stroke="#000000" stroke-width="2.8" fill="none"/>
<path d="M 440,160 L 430,160" stroke="#000000" stroke-width="2.8" fill="none"/>
<path d="M 940,160 L 950,160 L 960,160" stroke="#000000" stroke-width="2.8" fill="none"/>
<path d="M 940,180 L 950,180" stroke="#000000" stroke-width="2.8" fill="none"/>
<path d="M 940,200 L 950,200" stroke="#000000" stroke-width="2.8" fill="none"/>
<path d="M 940,220 L 950,220" stroke="#000000" stroke-width="2.8" fill="none"/>
<path d="M 520,-100 L 530,-100 L 540,-100" stroke="#000000" stroke-width="2.8" fill="none"/>
<path d="M 540,-80 L 530,-80" stroke="#000000" stroke-width="2.8" fill="none"/>
<path d="M 940,480 L 950,480 L 960,480" stroke="#000000" stroke-width="2.8" fill="none"/>
<path d="M 940,500 L 950,500" stroke="#000000" stroke-width="2.8" fill="none"/>
<path d="M 940,520 L 950,520" stroke="#000000" stroke-width="2.8" fill="none"/>
<path d="M 940,540 L 950,540" stroke="#000000" stroke-width="2.8" fill="none"/>
<path d="M 940,800 L 950,800 L 960,800" stroke="#000000" stroke-width="2.8" fill="none"/>
<path d="M 940,820 L 950,820" stroke="#000000" stroke-width="2.8" fill="none"/>
<path d="M 940,840 L 950,840" stroke="#000000" stroke-width="2.8" fill="none"/>
<path d="M 940,860 L 950,860" stroke="#000000" stroke-width="2.8" fill="none"/>
<path d="M 940,920 L 950,920 L 960,920" stroke="#000000" stroke-width="2.8" fill="none"/>
<path d="M 940,940 L 950,940" stroke="#000000" stroke-width="2.8" fill="none"/>
<path d="M 940,960 L 950,960" stroke="#000000" stroke-width="2.8" fill="none"/>
<path d="M 940,980 L 950,980" stroke="#000000" stroke-width="2.8" fill="none"/>
<g>
<circle cx="660.0" cy="200.0" r="4.0" stroke="#000000" stroke-width="2.8" fill="#000000" />
<circle cx="660.0" cy="520.0" r="4.0" stroke="#000000" stroke-width="2.8" fill="#000000" />
<circle cx="920.0" cy="520.0" r="4.0" stroke="#000000" stroke-width="2.8" fill="#000000" />
<circle cx="660.0" cy="840.0" r="4.0" stroke="#000000" stroke-width="2.8" fill="#000000" />
<circle cx="860.0" cy="840.0" r="4.0" stroke="#000000" stroke-width="2.8" fill="#000000" />
<circle cx="480.0" cy="140.0" r="4.0" stroke="#000000" stroke-width="2.8" fill="#000000" />
<circle cx="460.0" cy="460.0" r="4.0" stroke="#000000" stroke-width="2.8" fill="#000000" />
<circle cx="520.0" cy="780.0" r="4.0" stroke="#000000" stroke-width="2.8" fill="#000000" />
<circle cx="700.0" cy="-80.0" r="4.0" stroke="#000000" stroke-width="2.8" fill="#000000" />
<circle cx="780.0" cy="-80.0" r="4.0" stroke="#000000" stroke-width="2.8" fill="#000000" />
<circle cx="580.0" cy="80.0" r="4.0" stroke="#000000" stroke-width="2.8" fill="#000000" />
<circle cx="680.0" cy="80.0" r="4.0" stroke="#000000" stroke-width="2.8" fill="#000000" />
<circle cx="540.0" cy="400.0" r="4.0" stroke="#000000" stroke-width="2.8" fill="#000000" />
<circle cx="680.0" cy="400.0" r="4.0" stroke="#000000" stroke-width="2.8" fill="#000000" />
<circle cx="540.0" cy="720.0" r="4.0" stroke="#000000" stroke-width="2.8" fill="#000000" />
<circle cx="920.0" cy="920.0" r="4.0" stroke="#000000" stroke-width="2.8" fill="#000000" />
<circle cx="880.0" cy="860.0" r="4.0" stroke="#000000" stroke-width="2.8" fill="#000000" />
<circle cx="700.0" cy="540.0" r="4.0" stroke="#000000" stroke-width="2.8" fill="#000000" />
<circle cx="780.0" cy="540.0" r="4.0" stroke="#000000" stroke-width="2.8" fill="#000000" />
<circle cx="860.0" cy="540.0" r="4.0" stroke="#000000" stroke-width="2.8" fill="#000000" />
<circle cx="700.0" cy="220.0" r="4.0" stroke="#000000" stroke-width="2.8" fill="#000000" />
<circle cx="780.0" cy="220.0" r="4.0" stroke="#000000" stroke-width="2.8" fill="#000000" />
<circle cx="640.0" cy="800.0" r="4.0" stroke="#000000" stroke-width="2.8" fill="#000000" />
<circle cx="900.0" cy="800.0" r="4.0" stroke="#000000" stroke-width="2.8" fill="#000000" />
<circle cx="500.0" cy="800.0" r="4.0" stroke="#000000" stroke-width="2.8" fill="#000000" />
<circle cx="640.0" cy="480.0" r="4.0" stroke="#000000" stroke-width="2.8" fill="#000000" />
<circle cx="880.0" cy="480.0" r="4.0" stroke="#000000" stroke-width="2.8" fill="#000000" />
<circle cx="520.0" cy="480.0" r="4.0" stroke="#000000" stroke-width="2.8" fill="#000000" />
<circle cx="640.0" cy="160.0" r="4.0" stroke="#000000" stroke-width="2.8" fill="#000000" />
<circle cx="860.0" cy="160.0" r="4.0" stroke="#000000" stroke-width="2.8" fill="#000000" />
<circle cx="460.0" cy="160.0" r="4.0" stroke="#000000" stroke-width="2.8" fill="#000000" />
<circle cx="580.0" cy="-100.0" r="4.0" stroke="#000000" stroke-width="2.8" fill="#000000" />
<circle cx="680.0" cy="-100.0" r="4.0" stroke="#000000" stroke-width="2.8" fill="#000000" />
<circle cx="480.0" cy="740.0" r="4.0" stroke="#000000" stroke-width="2.8" fill="#000000" />
<circle cx="500.0" cy="420.0" r="4.0" stroke="#000000" stroke-width="2.8" fill="#000000" />
<circle cx="520.0" cy="100.0" r="4.0" stroke="#000000" stroke-width="2.8" fill="#000000" />
<circle cx="800.0" cy="360.0" r="4.0" stroke="#000000" stroke-width="2.8" fill="#000000" />
<circle cx="760.0" cy="360.0" r="4.0" stroke="#000000" stroke-width="2.8" fill="#000000" />
<circle cx="760.0" cy="40.0" r="4.0" stroke="#000000" stroke-width="2.8" fill="#000000" />
<circle cx="780.0" cy="40.0" r="4.0" stroke="#000000" stroke-width="2.8" fill="#000000" />
<circle cx="780.0" cy="680.0" r="4.0" stroke="#000000" stroke-width="2.8" fill="#000000" />
<circle cx="800.0" cy="680.0" r="4.0" stroke="#000000" stroke-width="2.8" fill="#000000" />
<circle cx="620.0" cy="820.0" r="4.0" stroke="#000000" stroke-width="2.8" fill="#000000" />
<circle cx="920.0" cy="820.0" r="4.0" stroke="#000000" stroke-width="2.8" fill="#000000" />
<circle cx="620.0" cy="500.0" r="4.0" stroke="#000000" stroke-width="2.8" fill="#000000" />
<circle cx="900.0" cy="500.0" r="4.0" stroke="#000000" stroke-width="2.8" fill="#000000" />
<circle cx="620.0" cy="180.0" r="4.0" stroke="#000000" stroke-width="2.8" fill="#000000" />
<circle cx="460.0" cy="760.0" r="4.0" stroke="#000000" stroke-width="2.8" fill="#000000" />
<circle cx="480.0" cy="440.0" r="4.0" stroke="#000000" stroke-width="2.8" fill="#000000" />
<circle cx="500.0" cy="120.0" r="4.0" stroke="#000000" stroke-width="2.8" fill="#000000" />
</g>
<g>
<path d="M 781,110 L 839,110 L 839,210 L 781,210 Z" stroke="#000000" stroke-width="2.8" fill="none"/>
<text text-anchor="start" x="784.0" y="126.75" fill="#000000" style="font-size:18px">A</text>
<text text-anchor="start" x="784.0" y="146.75" fill="#000000" style="font-size:18px">Din</text>
<text text-anchor="start" x="784.0" y="166.75" fill="#000000" style="font-size:18px">str</text>
<path d="M 781,187 L 788,180 L 781,173" stroke="#000000" stroke-width="1.4" fill="none"/>
<text text-anchor="start" x="791.0" y="186.75" fill="#000000" style="font-size:18px">C</text>
<text text-anchor="start" x="784.0" y="206.75" fill="#000000" style="font-size:18px">ld</text>
<text text-anchor="end" x="836.0" y="166.75" fill="#000000" style="font-size:18px">D</text>
<text text-anchor="middle" x="810.0" y="227.5" fill="#000000" style="font-size:18px">RAM</text>
<circle cx="780.0" cy="120.0" r="2.0" stroke="#000000" stroke-width="2.8" fill="#000000" />
<circle cx="780.0" cy="140.0" r="2.0" stroke="#000000" stroke-width="2.8" fill="#000000" />
<circle cx="780.0" cy="160.0" r="2.0" stroke="#000000" stroke-width="2.8" fill="#000000" />
<circle cx="780.0" cy="180.0" r="2.0" stroke="#000000" stroke-width="2.8" fill="#000000" />
<circle cx="780.0" cy="200.0" r="2.0" stroke="#000000" stroke-width="2.8" fill="#000000" />
<circle cx="840.0" cy="160.0" r="2.0" stroke="#000000" stroke-width="2.8" fill="#000000" />
</g>
<g>
<path d="M 781,430 L 839,430 L 839,530 L 781,530 Z" stroke="#000000" stroke-width="2.8" fill="none"/>
<text text-anchor="start" x="784.0" y="446.75" fill="#000000" style="font-size:18px">A</text>
<text text-anchor="start" x="784.0" y="466.75" fill="#000000" style="font-size:18px">Din</text>
<text text-anchor="start" x="784.0" y="486.75" fill="#000000" style="font-size:18px">str</text>
<path d="M 781,507 L 788,500 L 781,493" stroke="#000000" stroke-width="1.4" fill="none"/>
<text text-anchor="start" x="791.0" y="506.75" fill="#000000" style="font-size:18px">C</text>
<text text-anchor="start" x="784.0" y="526.75" fill="#000000" style="font-size:18px">ld</text>
<text text-anchor="end" x="836.0" y="486.75" fill="#000000" style="font-size:18px">D</text>
<text text-anchor="middle" x="810.0" y="547.5" fill="#000000" style="font-size:18px">RAM</text>
<circle cx="780.0" cy="440.0" r="2.0" stroke="#000000" stroke-width="2.8" fill="#000000" />
<circle cx="780.0" cy="460.0" r="2.0" stroke="#000000" stroke-width="2.8" fill="#000000" />
<circle cx="780.0" cy="480.0" r="2.0" stroke="#000000" stroke-width="2.8" fill="#000000" />
<circle cx="780.0" cy="500.0" r="2.0" stroke="#000000" stroke-width="2.8" fill="#000000" />
<circle cx="780.0" cy="520.0" r="2.0" stroke="#000000" stroke-width="2.8" fill="#000000" />
<circle cx="840.0" cy="480.0" r="2.0" stroke="#000000" stroke-width="2.8" fill="#000000" />
</g>
<g>
<path d="M 781,750 L 839,750 L 839,850 L 781,850 Z" stroke="#000000" stroke-width="2.8" fill="none"/>
<text text-anchor="start" x="784.0" y="766.75" fill="#000000" style="font-size:18px">A</text>
<text text-anchor="start" x="784.0" y="786.75" fill="#000000" style="font-size:18px">Din</text>
<text text-anchor="start" x="784.0" y="806.75" fill="#000000" style="font-size:18px">str</text>
<path d="M 781,827 L 788,820 L 781,813" stroke="#000000" stroke-width="1.4" fill="none"/>
<text text-anchor="start" x="791.0" y="826.75" fill="#000000" style="font-size:18px">C</text>
<text text-anchor="start" x="784.0" y="846.75" fill="#000000" style="font-size:18px">ld</text>
<text text-anchor="end" x="836.0" y="806.75" fill="#000000" style="font-size:18px">D</text>
<text text-anchor="middle" x="810.0" y="867.5" fill="#000000" style="font-size:18px">RAM</text>
<circle cx="780.0" cy="760.0" r="2.0" stroke="#000000" stroke-width="2.8" fill="#000000" />
<circle cx="780.0" cy="780.0" r="2.0" stroke="#000000" stroke-width="2.8" fill="#000000" />
<circle cx="780.0" cy="800.0" r="2.0" stroke="#000000" stroke-width="2.8" fill="#000000" />
<circle cx="780.0" cy="820.0" r="2.0" stroke="#000000" stroke-width="2.8" fill="#000000" />
<circle cx="780.0" cy="840.0" r="2.0" stroke="#000000" stroke-width="2.8" fill="#000000" />
<circle cx="840.0" cy="800.0" r="2.0" stroke="#000000" stroke-width="2.8" fill="#000000" />
</g>
<g>
<path d="M 781,870 L 839,870 L 839,970 L 781,970 Z" stroke="#000000" stroke-width="2.8" fill="none"/>
<text text-anchor="start" x="784.0" y="886.75" fill="#000000" style="font-size:18px">A</text>
<text text-anchor="start" x="784.0" y="906.75" fill="#000000" style="font-size:18px">Din</text>
<text text-anchor="start" x="784.0" y="926.75" fill="#000000" style="font-size:18px">str</text>
<path d="M 781,947 L 788,940 L 781,933" stroke="#000000" stroke-width="1.4" fill="none"/>
<text text-anchor="start" x="791.0" y="946.75" fill="#000000" style="font-size:18px">C</text>
<text text-anchor="start" x="784.0" y="966.75" fill="#000000" style="font-size:18px">ld</text>
<text text-anchor="end" x="836.0" y="926.75" fill="#000000" style="font-size:18px">D</text>
<text text-anchor="middle" x="810.0" y="987.5" fill="#000000" style="font-size:18px">RAM</text>
<circle cx="780.0" cy="880.0" r="2.0" stroke="#000000" stroke-width="2.8" fill="#000000" />
<circle cx="780.0" cy="900.0" r="2.0" stroke="#000000" stroke-width="2.8" fill="#000000" />
<circle cx="780.0" cy="920.0" r="2.0" stroke="#000000" stroke-width="2.8" fill="#000000" />
<circle cx="780.0" cy="940.0" r="2.0" stroke="#000000" stroke-width="2.8" fill="#000000" />
<circle cx="780.0" cy="960.0" r="2.0" stroke="#000000" stroke-width="2.8" fill="#000000" />
<circle cx="840.0" cy="920.0" r="2.0" stroke="#000000" stroke-width="2.8" fill="#000000" />
</g>
<g>
<text text-anchor="end" x="418.0" y="97.0" fill="#000000" style="font-size:12px">0-31</text>
<text text-anchor="start" x="442.0" y="97.0" fill="#000000" style="font-size:12px">0-7</text>
<text text-anchor="start" x="442.0" y="117.0" fill="#000000" style="font-size:12px">8-15</text>
<text text-anchor="start" x="442.0" y="137.0" fill="#000000" style="font-size:12px">16-23</text>
<text text-anchor="start" x="442.0" y="157.0" fill="#000000" style="font-size:12px">24-31</text>
<path d="M 428,98 L 432,98 L 432,162 L 428,162 Z" stroke="#000000" stroke-width="2.8" fill="none"/>
<circle cx="420.0" cy="100.0" r="2.0" stroke="#000000" stroke-width="2.8" fill="#000000" />
<circle cx="440.0" cy="100.0" r="2.0" stroke="#000000" stroke-width="2.8" fill="#000000" />
<circle cx="440.0" cy="120.0" r="2.0" stroke="#000000" stroke-width="2.8" fill="#000000" />
<circle cx="440.0" cy="140.0" r="2.0" stroke="#000000" stroke-width="2.8" fill="#000000" />
<circle cx="440.0" cy="160.0" r="2.0" stroke="#000000" stroke-width="2.8" fill="#000000" />
</g>
<g>
<circle cx="1084.0" cy="200.0" r="4.0" stroke="#000000" stroke-width="2.8" fill="none" />
<text text-anchor="start" x="1094.0" y="209.0" fill="#000000" style="font-size:24px"><tspan style="font-style:italic;">D</tspan></text>
<circle cx="1080.0" cy="200.0" r="2.0" stroke="#000000" stroke-width="2.8" fill="#000000" />
</g>
<g>
<text text-anchor="end" x="938.0" y="157.0" fill="#000000" style="font-size:12px">0-7</text>
<text text-anchor="end" x="938.0" y="177.0" fill="#000000" style="font-size:12px">8-15</text>
<text text-anchor="end" x="938.0" y="197.0" fill="#000000" style="font-size:12px">16-23</text>
<text text-anchor="end" x="938.0" y="217.0" fill="#000000" style="font-size:12px">24-31</text>
<text text-anchor="start" x="962.0" y="157.0" fill="#000000" style="font-size:12px">0-31</text>
<path d="M 948,158 L 952,158 L 952,222 L 948,222 Z" stroke="#000000" stroke-width="2.8" fill="none"/>
<circle cx="940.0" cy="160.0" r="2.0" stroke="#000000" stroke-width="2.8" fill="#000000" />
<circle cx="940.0" cy="180.0" r="2.0" stroke="#000000" stroke-width="2.8" fill="#000000" />
<circle cx="940.0" cy="200.0" r="2.0" stroke="#000000" stroke-width="2.8" fill="#000000" />
<circle cx="940.0" cy="220.0" r="2.0" stroke="#000000" stroke-width="2.8" fill="#000000" />
<circle cx="960.0" cy="160.0" r="2.0" stroke="#000000" stroke-width="2.8" fill="#000000" />
</g>
<g>
<circle cx="396.0" cy="-100.0" r="4.0" stroke="#000000" stroke-width="2.8" fill="none" />
<text text-anchor="end" x="386.0" y="-91.0" fill="#000000" style="font-size:24px"><tspan style="font-style:italic;">A</tspan></text>
<circle cx="400.0" cy="-100.0" r="2.0" stroke="#000000" stroke-width="2.8" fill="#000000" />
</g>
<g>
<text text-anchor="end" x="518.0" y="-103.0" fill="#000000" style="font-size:12px">0-31</text>
<text text-anchor="start" x="542.0" y="-103.0" fill="#000000" style="font-size:12px">0,1</text>
<text text-anchor="start" x="542.0" y="-83.0" fill="#000000" style="font-size:12px">2-25</text>
<path d="M 528,-102 L 532,-102 L 532,-78 L 528,-78 Z" stroke="#000000" stroke-width="2.8" fill="none"/>
<circle cx="520.0" cy="-100.0" r="2.0" stroke="#000000" stroke-width="2.8" fill="#000000" />
<circle cx="540.0" cy="-100.0" r="2.0" stroke="#000000" stroke-width="2.8" fill="#000000" />
<circle cx="540.0" cy="-80.0" r="2.0" stroke="#000000" stroke-width="2.8" fill="#000000" />
</g>
<g>
<circle cx="396.0" cy="60.0" r="4.0" stroke="#000000" stroke-width="2.8" fill="none" />
<text text-anchor="end" x="386.0" y="69.0" fill="#000000" style="font-size:24px"><tspan style="font-style:italic;">Din</tspan></text>
<circle cx="400.0" cy="60.0" r="2.0" stroke="#000000" stroke-width="2.8" fill="#000000" />
</g>
<g>
<circle cx="396.0" cy="-20.0" r="4.0" stroke="#000000" stroke-width="2.8" fill="none" />
<text text-anchor="end" x="386.0" y="-11.0" fill="#000000" style="font-size:24px"><tspan style="font-style:italic;">str</tspan></text>
<circle cx="400.0" cy="-20.0" r="2.0" stroke="#000000" stroke-width="2.8" fill="#000000" />
</g>
<g>
<circle cx="396.0" cy="-60.0" r="4.0" stroke="#000000" stroke-width="2.8" fill="none" />
<text text-anchor="end" x="386.0" y="-51.0" fill="#000000" style="font-size:24px"><tspan style="font-style:italic;">clk</tspan></text>
<circle cx="400.0" cy="-60.0" r="2.0" stroke="#000000" stroke-width="2.8" fill="#000000" />
</g>
<g>
<circle cx="396.0" cy="20.0" r="4.0" stroke="#000000" stroke-width="2.8" fill="none" />
<text text-anchor="end" x="386.0" y="29.0" fill="#000000" style="font-size:24px"><tspan style="font-style:italic;">ld</tspan></text>
<circle cx="400.0" cy="20.0" r="2.0" stroke="#000000" stroke-width="2.8" fill="#000000" />
</g>
<g>
<path d="M 561,96 L 599,105 L 599,175 L 561,184 Z" stroke="#000000" stroke-width="2.8" fill="none"/>
<text text-anchor="start" x="563.0" y="115.5" fill="#000000" style="font-size:18px">0</text>
<circle cx="580.0" cy="100.0" r="2.0" stroke="#000000" stroke-width="2.8" fill="#000000" />
<circle cx="560.0" cy="100.0" r="2.0" stroke="#000000" stroke-width="2.8" fill="#000000" />
<circle cx="560.0" cy="120.0" r="2.0" stroke="#000000" stroke-width="2.8" fill="#000000" />
<circle cx="560.0" cy="140.0" r="2.0" stroke="#000000" stroke-width="2.8" fill="#000000" />
<circle cx="560.0" cy="160.0" r="2.0" stroke="#000000" stroke-width="2.8" fill="#000000" />
<circle cx="600.0" cy="140.0" r="2.0" stroke="#000000" stroke-width="2.8" fill="#000000" />
</g>
<g>
<path d="M 561,416 L 599,425 L 599,495 L 561,504 Z" stroke="#000000" stroke-width="2.8" fill="none"/>
<text text-anchor="start" x="563.0" y="435.5" fill="#000000" style="font-size:18px">0</text>
<circle cx="580.0" cy="420.0" r="2.0" stroke="#000000" stroke-width="2.8" fill="#000000" />
<circle cx="560.0" cy="420.0" r="2.0" stroke="#000000" stroke-width="2.8" fill="#000000" />
<circle cx="560.0" cy="440.0" r="2.0" stroke="#000000" stroke-width="2.8" fill="#000000" />
<circle cx="560.0" cy="460.0" r="2.0" stroke="#000000" stroke-width="2.8" fill="#000000" />
<circle cx="560.0" cy="480.0" r="2.0" stroke="#000000" stroke-width="2.8" fill="#000000" />
<circle cx="600.0" cy="460.0" r="2.0" stroke="#000000" stroke-width="2.8" fill="#000000" />
</g>
<g>
<path d="M 561,736 L 599,745 L 599,815 L 561,824 Z" stroke="#000000" stroke-width="2.8" fill="none"/>
<text text-anchor="start" x="563.0" y="755.5" fill="#000000" style="font-size:18px">0</text>
<circle cx="580.0" cy="740.0" r="2.0" stroke="#000000" stroke-width="2.8" fill="#000000" />
<circle cx="560.0" cy="740.0" r="2.0" stroke="#000000" stroke-width="2.8" fill="#000000" />
<circle cx="560.0" cy="760.0" r="2.0" stroke="#000000" stroke-width="2.8" fill="#000000" />
<circle cx="560.0" cy="780.0" r="2.0" stroke="#000000" stroke-width="2.8" fill="#000000" />
<circle cx="560.0" cy="800.0" r="2.0" stroke="#000000" stroke-width="2.8" fill="#000000" />
<circle cx="600.0" cy="780.0" r="2.0" stroke="#000000" stroke-width="2.8" fill="#000000" />
</g>
<g>
<path d="M 561,856 L 599,865 L 599,935 L 561,944 Z" stroke="#000000" stroke-width="2.8" fill="none"/>
<text text-anchor="start" x="563.0" y="875.5" fill="#000000" style="font-size:18px">0</text>
<circle cx="580.0" cy="860.0" r="2.0" stroke="#000000" stroke-width="2.8" fill="#000000" />
<circle cx="560.0" cy="860.0" r="2.0" stroke="#000000" stroke-width="2.8" fill="#000000" />
<circle cx="560.0" cy="880.0" r="2.0" stroke="#000000" stroke-width="2.8" fill="#000000" />
<circle cx="560.0" cy="900.0" r="2.0" stroke="#000000" stroke-width="2.8" fill="#000000" />
<circle cx="560.0" cy="920.0" r="2.0" stroke="#000000" stroke-width="2.8" fill="#000000" />
<circle cx="600.0" cy="900.0" r="2.0" stroke="#000000" stroke-width="2.8" fill="#000000" />
</g>
<g>
<text text-anchor="end" x="938.0" y="477.0" fill="#000000" style="font-size:12px">0-7</text>
<text text-anchor="end" x="938.0" y="497.0" fill="#000000" style="font-size:12px">8-15</text>
<text text-anchor="end" x="938.0" y="517.0" fill="#000000" style="font-size:12px">16-23</text>
<text text-anchor="end" x="938.0" y="537.0" fill="#000000" style="font-size:12px">24-31</text>
<text text-anchor="start" x="962.0" y="477.0" fill="#000000" style="font-size:12px">0-31</text>
<path d="M 948,478 L 952,478 L 952,542 L 948,542 Z" stroke="#000000" stroke-width="2.8" fill="none"/>
<circle cx="940.0" cy="480.0" r="2.0" stroke="#000000" stroke-width="2.8" fill="#000000" />
<circle cx="940.0" cy="500.0" r="2.0" stroke="#000000" stroke-width="2.8" fill="#000000" />
<circle cx="940.0" cy="520.0" r="2.0" stroke="#000000" stroke-width="2.8" fill="#000000" />
<circle cx="940.0" cy="540.0" r="2.0" stroke="#000000" stroke-width="2.8" fill="#000000" />
<circle cx="960.0" cy="480.0" r="2.0" stroke="#000000" stroke-width="2.8" fill="#000000" />
</g>
<g>
<text text-anchor="end" x="938.0" y="797.0" fill="#000000" style="font-size:12px">0-7</text>
<text text-anchor="end" x="938.0" y="817.0" fill="#000000" style="font-size:12px">8-15</text>
<text text-anchor="end" x="938.0" y="837.0" fill="#000000" style="font-size:12px">16-23</text>
<text text-anchor="end" x="938.0" y="857.0" fill="#000000" style="font-size:12px">24-31</text>
<text text-anchor="start" x="962.0" y="797.0" fill="#000000" style="font-size:12px">0-31</text>
<path d="M 948,798 L 952,798 L 952,862 L 948,862 Z" stroke="#000000" stroke-width="2.8" fill="none"/>
<circle cx="940.0" cy="800.0" r="2.0" stroke="#000000" stroke-width="2.8" fill="#000000" />
<circle cx="940.0" cy="820.0" r="2.0" stroke="#000000" stroke-width="2.8" fill="#000000" />
<circle cx="940.0" cy="840.0" r="2.0" stroke="#000000" stroke-width="2.8" fill="#000000" />
<circle cx="940.0" cy="860.0" r="2.0" stroke="#000000" stroke-width="2.8" fill="#000000" />
<circle cx="960.0" cy="800.0" r="2.0" stroke="#000000" stroke-width="2.8" fill="#000000" />
</g>
<g>
<text text-anchor="end" x="938.0" y="917.0" fill="#000000" style="font-size:12px">0-7</text>
<text text-anchor="end" x="938.0" y="937.0" fill="#000000" style="font-size:12px">8-15</text>
<text text-anchor="end" x="938.0" y="957.0" fill="#000000" style="font-size:12px">16-23</text>
<text text-anchor="end" x="938.0" y="977.0" fill="#000000" style="font-size:12px">24-31</text>
<text text-anchor="start" x="962.0" y="917.0" fill="#000000" style="font-size:12px">0-31</text>
<path d="M 948,918 L 952,918 L 952,982 L 948,982 Z" stroke="#000000" stroke-width="2.8" fill="none"/>
<circle cx="940.0" cy="920.0" r="2.0" stroke="#000000" stroke-width="2.8" fill="#000000" />
<circle cx="940.0" cy="940.0" r="2.0" stroke="#000000" stroke-width="2.8" fill="#000000" />
<circle cx="940.0" cy="960.0" r="2.0" stroke="#000000" stroke-width="2.8" fill="#000000" />
<circle cx="940.0" cy="980.0" r="2.0" stroke="#000000" stroke-width="2.8" fill="#000000" />
<circle cx="960.0" cy="920.0" r="2.0" stroke="#000000" stroke-width="2.8" fill="#000000" />
</g>
<g>
<path d="M 1021,156 L 1059,165 L 1059,235 L 1021,244 Z" stroke="#000000" stroke-width="2.8" fill="none"/>
<text text-anchor="start" x="1023.0" y="175.5" fill="#000000" style="font-size:18px">0</text>
<circle cx="1040.0" cy="160.0" r="2.0" stroke="#000000" stroke-width="2.8" fill="#000000" />
<circle cx="1020.0" cy="160.0" r="2.0" stroke="#000000" stroke-width="2.8" fill="#000000" />
<circle cx="1020.0" cy="180.0" r="2.0" stroke="#000000" stroke-width="2.8" fill="#000000" />
<circle cx="1020.0" cy="200.0" r="2.0" stroke="#000000" stroke-width="2.8" fill="#000000" />
<circle cx="1020.0" cy="220.0" r="2.0" stroke="#000000" stroke-width="2.8" fill="#000000" />
<circle cx="1060.0" cy="200.0" r="2.0" stroke="#000000" stroke-width="2.8" fill="#000000" />
</g>
<g>
<path d="M 804,61 L 795,99 L 725,99 L 716,61 Z" stroke="#000000" stroke-width="2.8" fill="none"/>
<text text-anchor="end" x="798.0" y="63.0" fill="#000000" style="font-size:18px" transform="rotate(-90,798.0,63.0)" >0</text>
<circle cx="720.0" cy="80.0" r="2.0" stroke="#000000" stroke-width="2.8" fill="#000000" />
<circle cx="800.0" cy="60.0" r="2.0" stroke="#000000" stroke-width="2.8" fill="#000000" />
<circle cx="780.0" cy="60.0" r="2.0" stroke="#000000" stroke-width="2.8" fill="#000000" />
<circle cx="760.0" cy="60.0" r="2.0" stroke="#000000" stroke-width="2.8" fill="#000000" />
<circle cx="740.0" cy="60.0" r="2.0" stroke="#000000" stroke-width="2.8" fill="#000000" />
<circle cx="760.0" cy="100.0" r="2.0" stroke="#000000" stroke-width="2.8" fill="#000000" />
</g>
<g>
<path d="M 790,-39 L 790,19 L 730,19 L 730,-39 Z" stroke="#000000" stroke-width="2.8" fill="none"/>
<text text-anchor="end" x="780.0" y="-29.25" fill="#000000" style="font-size:18px" transform="rotate(-90,780.0,-36.0)" >a</text>
<text text-anchor="end" x="760.0" y="-29.25" fill="#000000" style="font-size:18px" transform="rotate(-90,760.0,-36.0)" >b</text>
<text text-anchor="end" x="740.0" y="-29.25" fill="#000000" style="font-size:18px" transform="rotate(-90,740.0,-36.0)" >c<tspan style="font-size:80%;baseline-shift:sub;">i</tspan></text>
<text text-anchor="start" x="780.0" y="22.75" fill="#000000" style="font-size:18px" transform="rotate(-90,780.0,16.0)" >s</text>
<text text-anchor="start" x="760.0" y="22.75" fill="#000000" style="font-size:18px" transform="rotate(-90,760.0,16.0)" >c<tspan style="font-size:80%;baseline-shift:sub;">o</tspan></text>
<text text-anchor="middle" x="726.0" y="-10.0" fill="#000000" style="font-size:18px" transform="rotate(-90,726.0,-10.0)" >Add</text>
<circle cx="780.0" cy="-40.0" r="2.0" stroke="#000000" stroke-width="2.8" fill="#000000" />
<circle cx="760.0" cy="-40.0" r="2.0" stroke="#000000" stroke-width="2.8" fill="#000000" />
<circle cx="740.0" cy="-40.0" r="2.0" stroke="#000000" stroke-width="2.8" fill="#000000" />
<circle cx="780.0" cy="20.0" r="2.0" stroke="#000000" stroke-width="2.8" fill="#000000" />
<circle cx="760.0" cy="20.0" r="2.0" stroke="#000000" stroke-width="2.8" fill="#000000" />
</g>
<g>
<text text-anchor="start" x="760.0" y="-54.0" fill="#000000" style="font-size:24px" transform="rotate(-90,760.0,-63.0)" >1</text>
<circle cx="760.0" cy="-60.0" r="2.0" stroke="#000000" stroke-width="2.8" fill="#000000" />
</g>
<g>
<text text-anchor="start" x="740.0" y="-54.0" fill="#000000" style="font-size:24px" transform="rotate(-90,740.0,-63.0)" >0</text>
<circle cx="740.0" cy="-60.0" r="2.0" stroke="#000000" stroke-width="2.8" fill="#000000" />
</g>
<g>
<path d="M 804,381 L 795,419 L 725,419 L 716,381 Z" stroke="#000000" stroke-width="2.8" fill="none"/>
<text text-anchor="end" x="798.0" y="383.0" fill="#000000" style="font-size:18px" transform="rotate(-90,798.0,383.0)" >0</text>
<circle cx="720.0" cy="400.0" r="2.0" stroke="#000000" stroke-width="2.8" fill="#000000" />
<circle cx="800.0" cy="380.0" r="2.0" stroke="#000000" stroke-width="2.8" fill="#000000" />
<circle cx="780.0" cy="380.0" r="2.0" stroke="#000000" stroke-width="2.8" fill="#000000" />
<circle cx="760.0" cy="380.0" r="2.0" stroke="#000000" stroke-width="2.8" fill="#000000" />
<circle cx="740.0" cy="380.0" r="2.0" stroke="#000000" stroke-width="2.8" fill="#000000" />
<circle cx="760.0" cy="420.0" r="2.0" stroke="#000000" stroke-width="2.8" fill="#000000" />
</g>
<g>
<path d="M 790,261 L 790,319 L 730,319 L 730,261 Z" stroke="#000000" stroke-width="2.8" fill="none"/>
<text text-anchor="end" x="780.0" y="270.75" fill="#000000" style="font-size:18px" transform="rotate(-90,780.0,264.0)" >a</text>
<text text-anchor="end" x="760.0" y="270.75" fill="#000000" style="font-size:18px" transform="rotate(-90,760.0,264.0)" >b</text>
<text text-anchor="end" x="740.0" y="270.75" fill="#000000" style="font-size:18px" transform="rotate(-90,740.0,264.0)" >c<tspan style="font-size:80%;baseline-shift:sub;">i</tspan></text>
<text text-anchor="start" x="780.0" y="322.75" fill="#000000" style="font-size:18px" transform="rotate(-90,780.0,316.0)" >s</text>
<text text-anchor="start" x="760.0" y="322.75" fill="#000000" style="font-size:18px" transform="rotate(-90,760.0,316.0)" >c<tspan style="font-size:80%;baseline-shift:sub;">o</tspan></text>
<text text-anchor="middle" x="726.0" y="290.0" fill="#000000" style="font-size:18px" transform="rotate(-90,726.0,290.0)" >Add</text>
<circle cx="780.0" cy="260.0" r="2.0" stroke="#000000" stroke-width="2.8" fill="#000000" />
<circle cx="760.0" cy="260.0" r="2.0" stroke="#000000" stroke-width="2.8" fill="#000000" />
<circle cx="740.0" cy="260.0" r="2.0" stroke="#000000" stroke-width="2.8" fill="#000000" />
<circle cx="780.0" cy="320.0" r="2.0" stroke="#000000" stroke-width="2.8" fill="#000000" />
<circle cx="760.0" cy="320.0" r="2.0" stroke="#000000" stroke-width="2.8" fill="#000000" />
</g>
<g>
<text text-anchor="start" x="760.0" y="246.0" fill="#000000" style="font-size:24px" transform="rotate(-90,760.0,237.0)" >1</text>
<circle cx="760.0" cy="240.0" r="2.0" stroke="#000000" stroke-width="2.8" fill="#000000" />
</g>
<g>
<text text-anchor="start" x="740.0" y="246.0" fill="#000000" style="font-size:24px" transform="rotate(-90,740.0,237.0)" >0</text>
<circle cx="740.0" cy="240.0" r="2.0" stroke="#000000" stroke-width="2.8" fill="#000000" />
</g>
<g>
<path d="M 804,701 L 795,739 L 725,739 L 716,701 Z" stroke="#000000" stroke-width="2.8" fill="none"/>
<text text-anchor="end" x="798.0" y="703.0" fill="#000000" style="font-size:18px" transform="rotate(-90,798.0,703.0)" >0</text>
<circle cx="720.0" cy="720.0" r="2.0" stroke="#000000" stroke-width="2.8" fill="#000000" />
<circle cx="800.0" cy="700.0" r="2.0" stroke="#000000" stroke-width="2.8" fill="#000000" />
<circle cx="780.0" cy="700.0" r="2.0" stroke="#000000" stroke-width="2.8" fill="#000000" />
<circle cx="760.0" cy="700.0" r="2.0" stroke="#000000" stroke-width="2.8" fill="#000000" />
<circle cx="740.0" cy="700.0" r="2.0" stroke="#000000" stroke-width="2.8" fill="#000000" />
<circle cx="760.0" cy="740.0" r="2.0" stroke="#000000" stroke-width="2.8" fill="#000000" />
</g>
<g>
<path d="M 790,581 L 790,639 L 730,639 L 730,581 Z" stroke="#000000" stroke-width="2.8" fill="none"/>
<text text-anchor="end" x="780.0" y="590.75" fill="#000000" style="font-size:18px" transform="rotate(-90,780.0,584.0)" >a</text>
<text text-anchor="end" x="760.0" y="590.75" fill="#000000" style="font-size:18px" transform="rotate(-90,760.0,584.0)" >b</text>
<text text-anchor="end" x="740.0" y="590.75" fill="#000000" style="font-size:18px" transform="rotate(-90,740.0,584.0)" >c<tspan style="font-size:80%;baseline-shift:sub;">i</tspan></text>
<text text-anchor="start" x="780.0" y="642.75" fill="#000000" style="font-size:18px" transform="rotate(-90,780.0,636.0)" >s</text>
<text text-anchor="start" x="760.0" y="642.75" fill="#000000" style="font-size:18px" transform="rotate(-90,760.0,636.0)" >c<tspan style="font-size:80%;baseline-shift:sub;">o</tspan></text>
<text text-anchor="middle" x="726.0" y="610.0" fill="#000000" style="font-size:18px" transform="rotate(-90,726.0,610.0)" >Add</text>
<circle cx="780.0" cy="580.0" r="2.0" stroke="#000000" stroke-width="2.8" fill="#000000" />
<circle cx="760.0" cy="580.0" r="2.0" stroke="#000000" stroke-width="2.8" fill="#000000" />
<circle cx="740.0" cy="580.0" r="2.0" stroke="#000000" stroke-width="2.8" fill="#000000" />
<circle cx="780.0" cy="640.0" r="2.0" stroke="#000000" stroke-width="2.8" fill="#000000" />
<circle cx="760.0" cy="640.0" r="2.0" stroke="#000000" stroke-width="2.8" fill="#000000" />
</g>
<g>
<text text-anchor="start" x="760.0" y="566.0" fill="#000000" style="font-size:24px" transform="rotate(-90,760.0,557.0)" >1</text>
<circle cx="760.0" cy="560.0" r="2.0" stroke="#000000" stroke-width="2.8" fill="#000000" />
</g>
<g>
<text text-anchor="start" x="740.0" y="566.0" fill="#000000" style="font-size:24px" transform="rotate(-90,740.0,557.0)" >0</text>
<circle cx="740.0" cy="560.0" r="2.0" stroke="#000000" stroke-width="2.8" fill="#000000" />
</g>
</g>
</svg>