<?xml version="1.0" encoding="UTF-8" standalone="no"?>
<!-- Created with Digital by H.Neemann -->
<!-- created: Fri Nov 10 18:43:25 BRT 2023 -->

<svg
   xmlns:svg="http://www.w3.org/2000/svg"
   xmlns="http://www.w3.org/2000/svg"
   width="108.75mm"
   height="74.7mm"
   viewBox="509 226 725 498">
<g stroke-linecap="square">
<path d="M 840,320 L 880,320" stroke="#000000" stroke-width="2.8" fill="none"/>
<path d="M 760,300 L 760,320 L 800,320" stroke="#000000" stroke-width="2.8" fill="none"/>
<path d="M 660,320 L 680,320" stroke="#000000" stroke-width="2.8" fill="none"/>
<path d="M 640,540 L 640,640 L 880,640" stroke="#000000" stroke-width="2.8" fill="none"/>
<path d="M 600,260 L 620,260 L 1160,260 L 1160,340" stroke="#000000" stroke-width="2.8" fill="none"/>
<path d="M 940,580 L 1000,580 L 1060,580" stroke="#000000" stroke-width="2.8" fill="none"/>
<path d="M 1080,580 L 1100,580 L 1100,380 L 1140,380" stroke="#000000" stroke-width="2.8" fill="none"/>
<path d="M 660,580 L 680,580" stroke="#000000" stroke-width="2.8" fill="none"/>
<path d="M 960,340 L 960,520 L 1060,520" stroke="#000000" stroke-width="2.8" fill="none"/>
<path d="M 640,420 L 640,520 L 780,520 L 800,520" stroke="#000000" stroke-width="2.8" fill="none"/>
<path d="M 660,460 L 680,460" stroke="#000000" stroke-width="2.8" fill="none"/>
<path d="M 940,460 L 980,460 L 1060,460" stroke="#000000" stroke-width="2.8" fill="none"/>
<path d="M 780,440 L 780,460 L 800,460" stroke="#000000" stroke-width="2.8" fill="none"/>
<path d="M 1000,480 L 1000,580 L 1000,720 L 1060,720" stroke="#000000" stroke-width="2.8" fill="none"/>
<path d="M 940,660 L 1020,660 L 1060,660" stroke="#000000" stroke-width="2.8" fill="none"/>
<path d="M 1080,660 L 1120,660 L 1120,400 L 1140,400" stroke="#000000" stroke-width="2.8" fill="none"/>
<path d="M 940,340 L 960,340 L 1060,340" stroke="#000000" stroke-width="2.8" fill="none"/>
<path d="M 1080,340 L 1140,340" stroke="#000000" stroke-width="2.8" fill="none"/>
<path d="M 760,320 L 760,340 L 800,340" stroke="#000000" stroke-width="2.8" fill="none"/>
<path d="M 660,340 L 680,340" stroke="#000000" stroke-width="2.8" fill="none"/>
<path d="M 1020,500 L 1020,600 L 1060,600" stroke="#000000" stroke-width="2.8" fill="none"/>
<path d="M 600,280 L 640,280 L 800,280" stroke="#000000" stroke-width="2.8" fill="none"/>
<path d="M 560,280 L 580,280 L 580,260" stroke="#000000" stroke-width="2.8" fill="none"/>
<path d="M 640,520 L 640,540 L 680,540" stroke="#000000" stroke-width="2.8" fill="none"/>
<path d="M 780,520 L 780,540 L 800,540" stroke="#000000" stroke-width="2.8" fill="none"/>
<path d="M 740,540 L 760,540 L 760,580 L 800,580" stroke="#000000" stroke-width="2.8" fill="none"/>
<path d="M 780,400 L 780,420 L 800,420" stroke="#000000" stroke-width="2.8" fill="none"/>
<path d="M 740,420 L 760,420 L 760,440 L 780,440 L 800,440" stroke="#000000" stroke-width="2.8" fill="none"/>
<path d="M 960,620 L 960,680 L 1060,680" stroke="#000000" stroke-width="2.8" fill="none"/>
<path d="M 860,600 L 860,680 L 880,680" stroke="#000000" stroke-width="2.8" fill="none"/>
<path d="M 980,640 L 980,460 L 980,360 L 1060,360" stroke="#000000" stroke-width="2.8" fill="none"/>
<path d="M 1080,460 L 1080,360 L 1140,360" stroke="#000000" stroke-width="2.8" fill="none"/>
<path d="M 960,520 L 960,620 L 1060,620" stroke="#000000" stroke-width="2.8" fill="none"/>
<path d="M 740,300 L 760,300 L 800,300" stroke="#000000" stroke-width="2.8" fill="none"/>
<path d="M 640,280 L 640,300 L 680,300" stroke="#000000" stroke-width="2.8" fill="none"/>
<path d="M 560,240 L 860,240 L 860,360 L 880,360" stroke="#000000" stroke-width="2.8" fill="none"/>
<path d="M 660,560 L 680,560" stroke="#000000" stroke-width="2.8" fill="none"/>
<path d="M 780,540 L 780,560 L 800,560" stroke="#000000" stroke-width="2.8" fill="none"/>
<path d="M 840,560 L 880,560" stroke="#000000" stroke-width="2.8" fill="none"/>
<path d="M 660,440 L 680,440" stroke="#000000" stroke-width="2.8" fill="none"/>
<path d="M 840,440 L 880,440" stroke="#000000" stroke-width="2.8" fill="none"/>
<path d="M 1180,380 L 1200,380" stroke="#000000" stroke-width="2.8" fill="none"/>
<path d="M 620,260 L 620,380 L 820,380 L 820,360" stroke="#000000" stroke-width="2.8" fill="none"/>
<path d="M 800,400 L 780,400 L 640,400 L 640,420 L 680,420" stroke="#000000" stroke-width="2.8" fill="none"/>
<path d="M 640,300 L 640,400" stroke="#000000" stroke-width="2.8" fill="none"/>
<path d="M 1060,480 L 1020,480 L 1000,480 L 1000,380 L 1060,380" stroke="#000000" stroke-width="2.8" fill="none"/>
<path d="M 820,600 L 820,620 L 620,620 L 620,500 L 820,500 L 820,480" stroke="#000000" stroke-width="2.8" fill="none"/>
<path d="M 620,380 L 620,500" stroke="#000000" stroke-width="2.8" fill="none"/>
<path d="M 1060,640 L 980,640 L 980,700 L 1060,700" stroke="#000000" stroke-width="2.8" fill="none"/>
<path d="M 1060,400 L 1020,400 L 1020,500 L 1060,500" stroke="#000000" stroke-width="2.8" fill="none"/>
<path d="M 1020,600 L 1020,660" stroke="#000000" stroke-width="2.8" fill="none"/>
<path d="M 880,600 L 860,600 L 860,480 L 880,480" stroke="#000000" stroke-width="2.8" fill="none"/>
<path d="M 860,360 L 860,480" stroke="#000000" stroke-width="2.8" fill="none"/>
<path d="M 580,260 L 590,260 L 600,260" stroke="#000000" stroke-width="2.8" fill="none"/>
<path d="M 600,280 L 590,280" stroke="#000000" stroke-width="2.8" fill="none"/>
<path d="M 1060,660 L 1070,660 L 1080,660" stroke="#000000" stroke-width="2.8" fill="none"/>
<path d="M 1060,680 L 1070,680" stroke="#000000" stroke-width="2.8" fill="none"/>
<path d="M 1060,700 L 1070,700" stroke="#000000" stroke-width="2.8" fill="none"/>
<path d="M 1060,720 L 1070,720" stroke="#000000" stroke-width="2.8" fill="none"/>
<path d="M 1060,580 L 1070,580 L 1080,580" stroke="#000000" stroke-width="2.8" fill="none"/>
<path d="M 1060,600 L 1070,600" stroke="#000000" stroke-width="2.8" fill="none"/>
<path d="M 1060,620 L 1070,620" stroke="#000000" stroke-width="2.8" fill="none"/>
<path d="M 1060,640 L 1070,640" stroke="#000000" stroke-width="2.8" fill="none"/>
<path d="M 1060,460 L 1070,460 L 1080,460" stroke="#000000" stroke-width="2.8" fill="none"/>
<path d="M 1060,480 L 1070,480" stroke="#000000" stroke-width="2.8" fill="none"/>
<path d="M 1060,500 L 1070,500" stroke="#000000" stroke-width="2.8" fill="none"/>
<path d="M 1060,520 L 1070,520" stroke="#000000" stroke-width="2.8" fill="none"/>
<path d="M 1060,340 L 1070,340 L 1080,340" stroke="#000000" stroke-width="2.8" fill="none"/>
<path d="M 1060,360 L 1070,360" stroke="#000000" stroke-width="2.8" fill="none"/>
<path d="M 1060,380 L 1070,380" stroke="#000000" stroke-width="2.8" fill="none"/>
<path d="M 1060,400 L 1070,400" stroke="#000000" stroke-width="2.8" fill="none"/>
<g>
<circle cx="760.0" cy="320.0" r="4.0" stroke="#000000" stroke-width="2.8" fill="#000000" />
<circle cx="980.0" cy="640.0" r="4.0" stroke="#000000" stroke-width="2.8" fill="#000000" />
<circle cx="620.0" cy="260.0" r="4.0" stroke="#000000" stroke-width="2.8" fill="#000000" />
<circle cx="1000.0" cy="580.0" r="4.0" stroke="#000000" stroke-width="2.8" fill="#000000" />
<circle cx="960.0" cy="520.0" r="4.0" stroke="#000000" stroke-width="2.8" fill="#000000" />
<circle cx="640.0" cy="520.0" r="4.0" stroke="#000000" stroke-width="2.8" fill="#000000" />
<circle cx="780.0" cy="520.0" r="4.0" stroke="#000000" stroke-width="2.8" fill="#000000" />
<circle cx="980.0" cy="460.0" r="4.0" stroke="#000000" stroke-width="2.8" fill="#000000" />
<circle cx="640.0" cy="400.0" r="4.0" stroke="#000000" stroke-width="2.8" fill="#000000" />
<circle cx="780.0" cy="400.0" r="4.0" stroke="#000000" stroke-width="2.8" fill="#000000" />
<circle cx="1020.0" cy="660.0" r="4.0" stroke="#000000" stroke-width="2.8" fill="#000000" />
<circle cx="960.0" cy="340.0" r="4.0" stroke="#000000" stroke-width="2.8" fill="#000000" />
<circle cx="1020.0" cy="600.0" r="4.0" stroke="#000000" stroke-width="2.8" fill="#000000" />
<circle cx="860.0" cy="600.0" r="4.0" stroke="#000000" stroke-width="2.8" fill="#000000" />
<circle cx="640.0" cy="280.0" r="4.0" stroke="#000000" stroke-width="2.8" fill="#000000" />
<circle cx="640.0" cy="540.0" r="4.0" stroke="#000000" stroke-width="2.8" fill="#000000" />
<circle cx="780.0" cy="540.0" r="4.0" stroke="#000000" stroke-width="2.8" fill="#000000" />
<circle cx="1000.0" cy="480.0" r="4.0" stroke="#000000" stroke-width="2.8" fill="#000000" />
<circle cx="860.0" cy="480.0" r="4.0" stroke="#000000" stroke-width="2.8" fill="#000000" />
<circle cx="640.0" cy="420.0" r="4.0" stroke="#000000" stroke-width="2.8" fill="#000000" />
<circle cx="860.0" cy="360.0" r="4.0" stroke="#000000" stroke-width="2.8" fill="#000000" />
<circle cx="960.0" cy="620.0" r="4.0" stroke="#000000" stroke-width="2.8" fill="#000000" />
<circle cx="760.0" cy="300.0" r="4.0" stroke="#000000" stroke-width="2.8" fill="#000000" />
<circle cx="640.0" cy="300.0" r="4.0" stroke="#000000" stroke-width="2.8" fill="#000000" />
<circle cx="620.0" cy="500.0" r="4.0" stroke="#000000" stroke-width="2.8" fill="#000000" />
<circle cx="1020.0" cy="500.0" r="4.0" stroke="#000000" stroke-width="2.8" fill="#000000" />
<circle cx="780.0" cy="440.0" r="4.0" stroke="#000000" stroke-width="2.8" fill="#000000" />
<circle cx="620.0" cy="380.0" r="4.0" stroke="#000000" stroke-width="2.8" fill="#000000" />
</g>
<g>
<path d="M 881,310 L 939,310 L 939,370 L 881,370 Z" stroke="#000000" stroke-width="2.8" fill="none"/>
<text text-anchor="start" x="884.0" y="326.75" fill="#000000" style="font-size:18px">A</text>
<text text-anchor="start" x="884.0" y="366.75" fill="#000000" style="font-size:18px">sel</text>
<text text-anchor="end" x="936.0" y="346.75" fill="#000000" style="font-size:18px">D</text>
<text text-anchor="middle" x="910.0" y="387.5" fill="#000000" style="font-size:18px">ROM</text>
<circle cx="880.0" cy="320.0" r="2.0" stroke="#000000" stroke-width="2.8" fill="#000000" />
<circle cx="880.0" cy="360.0" r="2.0" stroke="#000000" stroke-width="2.8" fill="#000000" />
<circle cx="940.0" cy="340.0" r="2.0" stroke="#000000" stroke-width="2.8" fill="#000000" />
</g>
<g>
<path d="M 881,430 L 939,430 L 939,490 L 881,490 Z" stroke="#000000" stroke-width="2.8" fill="none"/>
<text text-anchor="start" x="884.0" y="446.75" fill="#000000" style="font-size:18px">A</text>
<text text-anchor="start" x="884.0" y="486.75" fill="#000000" style="font-size:18px">sel</text>
<text text-anchor="end" x="936.0" y="466.75" fill="#000000" style="font-size:18px">D</text>
<text text-anchor="middle" x="910.0" y="507.5" fill="#000000" style="font-size:18px">ROM</text>
<circle cx="880.0" cy="440.0" r="2.0" stroke="#000000" stroke-width="2.8" fill="#000000" />
<circle cx="880.0" cy="480.0" r="2.0" stroke="#000000" stroke-width="2.8" fill="#000000" />
<circle cx="940.0" cy="460.0" r="2.0" stroke="#000000" stroke-width="2.8" fill="#000000" />
</g>
<g>
<path d="M 881,550 L 939,550 L 939,610 L 881,610 Z" stroke="#000000" stroke-width="2.8" fill="none"/>
<text text-anchor="start" x="884.0" y="566.75" fill="#000000" style="font-size:18px">A</text>
<text text-anchor="start" x="884.0" y="606.75" fill="#000000" style="font-size:18px">sel</text>
<text text-anchor="end" x="936.0" y="586.75" fill="#000000" style="font-size:18px">D</text>
<text text-anchor="middle" x="910.0" y="627.5" fill="#000000" style="font-size:18px">ROM</text>
<circle cx="880.0" cy="560.0" r="2.0" stroke="#000000" stroke-width="2.8" fill="#000000" />
<circle cx="880.0" cy="600.0" r="2.0" stroke="#000000" stroke-width="2.8" fill="#000000" />
<circle cx="940.0" cy="580.0" r="2.0" stroke="#000000" stroke-width="2.8" fill="#000000" />
</g>
<g>
<path d="M 881,630 L 939,630 L 939,690 L 881,690 Z" stroke="#000000" stroke-width="2.8" fill="none"/>
<text text-anchor="start" x="884.0" y="646.75" fill="#000000" style="font-size:18px">A</text>
<text text-anchor="start" x="884.0" y="686.75" fill="#000000" style="font-size:18px">sel</text>
<text text-anchor="end" x="936.0" y="666.75" fill="#000000" style="font-size:18px">D</text>
<text text-anchor="middle" x="910.0" y="707.5" fill="#000000" style="font-size:18px">ROM</text>
<circle cx="880.0" cy="640.0" r="2.0" stroke="#000000" stroke-width="2.8" fill="#000000" />
<circle cx="880.0" cy="680.0" r="2.0" stroke="#000000" stroke-width="2.8" fill="#000000" />
<circle cx="940.0" cy="660.0" r="2.0" stroke="#000000" stroke-width="2.8" fill="#000000" />
</g>
<g>
<circle cx="556.0" cy="280.0" r="4.0" stroke="#000000" stroke-width="2.8" fill="none" />
<text text-anchor="end" x="546.0" y="289.0" fill="#000000" style="font-size:24px"><tspan style="font-style:italic;">A</tspan></text>
<circle cx="560.0" cy="280.0" r="2.0" stroke="#000000" stroke-width="2.8" fill="#000000" />
</g>
<g>
<text text-anchor="end" x="578.0" y="257.0" fill="#000000" style="font-size:12px">0-31</text>
<text text-anchor="start" x="602.0" y="257.0" fill="#000000" style="font-size:12px">0,1</text>
<text text-anchor="start" x="602.0" y="277.0" fill="#000000" style="font-size:12px">2-25</text>
<path d="M 588,258 L 592,258 L 592,282 L 588,282 Z" stroke="#000000" stroke-width="2.8" fill="none"/>
<circle cx="580.0" cy="260.0" r="2.0" stroke="#000000" stroke-width="2.8" fill="#000000" />
<circle cx="600.0" cy="260.0" r="2.0" stroke="#000000" stroke-width="2.8" fill="#000000" />
<circle cx="600.0" cy="280.0" r="2.0" stroke="#000000" stroke-width="2.8" fill="#000000" />
</g>
<g>
<circle cx="556.0" cy="240.0" r="4.0" stroke="#000000" stroke-width="2.8" fill="none" />
<text text-anchor="end" x="546.0" y="249.0" fill="#000000" style="font-size:24px"><tspan style="font-style:italic;">sel</tspan></text>
<circle cx="560.0" cy="240.0" r="2.0" stroke="#000000" stroke-width="2.8" fill="#000000" />
</g>
<g>
<text text-anchor="end" x="1058.0" y="657.0" fill="#000000" style="font-size:12px">0-7</text>
<text text-anchor="end" x="1058.0" y="677.0" fill="#000000" style="font-size:12px">8-15</text>
<text text-anchor="end" x="1058.0" y="697.0" fill="#000000" style="font-size:12px">16-23</text>
<text text-anchor="end" x="1058.0" y="717.0" fill="#000000" style="font-size:12px">24-31</text>
<text text-anchor="start" x="1082.0" y="657.0" fill="#000000" style="font-size:12px">0-31</text>
<path d="M 1068,658 L 1072,658 L 1072,722 L 1068,722 Z" stroke="#000000" stroke-width="2.8" fill="none"/>
<circle cx="1060.0" cy="660.0" r="2.0" stroke="#000000" stroke-width="2.8" fill="#000000" />
<circle cx="1060.0" cy="680.0" r="2.0" stroke="#000000" stroke-width="2.8" fill="#000000" />
<circle cx="1060.0" cy="700.0" r="2.0" stroke="#000000" stroke-width="2.8" fill="#000000" />
<circle cx="1060.0" cy="720.0" r="2.0" stroke="#000000" stroke-width="2.8" fill="#000000" />
<circle cx="1080.0" cy="660.0" r="2.0" stroke="#000000" stroke-width="2.8" fill="#000000" />
</g>
<g>
<circle cx="1204.0" cy="380.0" r="4.0" stroke="#000000" stroke-width="2.8" fill="none" />
<text text-anchor="start" x="1214.0" y="389.0" fill="#000000" style="font-size:24px"><tspan style="font-style:italic;">D</tspan></text>
<circle cx="1200.0" cy="380.0" r="2.0" stroke="#000000" stroke-width="2.8" fill="#000000" />
</g>
<g>
<path d="M 1141,336 L 1179,345 L 1179,415 L 1141,424 Z" stroke="#000000" stroke-width="2.8" fill="none"/>
<text text-anchor="start" x="1143.0" y="355.5" fill="#000000" style="font-size:18px">0</text>
<circle cx="1160.0" cy="340.0" r="2.0" stroke="#000000" stroke-width="2.8" fill="#000000" />
<circle cx="1140.0" cy="340.0" r="2.0" stroke="#000000" stroke-width="2.8" fill="#000000" />
<circle cx="1140.0" cy="360.0" r="2.0" stroke="#000000" stroke-width="2.8" fill="#000000" />
<circle cx="1140.0" cy="380.0" r="2.0" stroke="#000000" stroke-width="2.8" fill="#000000" />
<circle cx="1140.0" cy="400.0" r="2.0" stroke="#000000" stroke-width="2.8" fill="#000000" />
<circle cx="1180.0" cy="380.0" r="2.0" stroke="#000000" stroke-width="2.8" fill="#000000" />
</g>
<g>
<text text-anchor="end" x="1058.0" y="577.0" fill="#000000" style="font-size:12px">0-7</text>
<text text-anchor="end" x="1058.0" y="597.0" fill="#000000" style="font-size:12px">8-15</text>
<text text-anchor="end" x="1058.0" y="617.0" fill="#000000" style="font-size:12px">16-23</text>
<text text-anchor="end" x="1058.0" y="637.0" fill="#000000" style="font-size:12px">24-31</text>
<text text-anchor="start" x="1082.0" y="577.0" fill="#000000" style="font-size:12px">0-31</text>
<path d="M 1068,578 L 1072,578 L 1072,642 L 1068,642 Z" stroke="#000000" stroke-width="2.8" fill="none"/>
<circle cx="1060.0" cy="580.0" r="2.0" stroke="#000000" stroke-width="2.8" fill="#000000" />
<circle cx="1060.0" cy="600.0" r="2.0" stroke="#000000" stroke-width="2.8" fill="#000000" />
<circle cx="1060.0" cy="620.0" r="2.0" stroke="#000000" stroke-width="2.8" fill="#000000" />
<circle cx="1060.0" cy="640.0" r="2.0" stroke="#000000" stroke-width="2.8" fill="#000000" />
<circle cx="1080.0" cy="580.0" r="2.0" stroke="#000000" stroke-width="2.8" fill="#000000" />
</g>
<g>
<text text-anchor="end" x="1058.0" y="457.0" fill="#000000" style="font-size:12px">0-7</text>
<text text-anchor="end" x="1058.0" y="477.0" fill="#000000" style="font-size:12px">8-15</text>
<text text-anchor="end" x="1058.0" y="497.0" fill="#000000" style="font-size:12px">16-23</text>
<text text-anchor="end" x="1058.0" y="517.0" fill="#000000" style="font-size:12px">24-31</text>
<text text-anchor="start" x="1082.0" y="457.0" fill="#000000" style="font-size:12px">0-31</text>
<path d="M 1068,458 L 1072,458 L 1072,522 L 1068,522 Z" stroke="#000000" stroke-width="2.8" fill="none"/>
<circle cx="1060.0" cy="460.0" r="2.0" stroke="#000000" stroke-width="2.8" fill="#000000" />
<circle cx="1060.0" cy="480.0" r="2.0" stroke="#000000" stroke-width="2.8" fill="#000000" />
<circle cx="1060.0" cy="500.0" r="2.0" stroke="#000000" stroke-width="2.8" fill="#000000" />
<circle cx="1060.0" cy="520.0" r="2.0" stroke="#000000" stroke-width="2.8" fill="#000000" />
<circle cx="1080.0" cy="460.0" r="2.0" stroke="#000000" stroke-width="2.8" fill="#000000" />
</g>
<g>
<text text-anchor="end" x="1058.0" y="337.0" fill="#000000" style="font-size:12px">0-7</text>
<text text-anchor="end" x="1058.0" y="357.0" fill="#000000" style="font-size:12px">8-15</text>
<text text-anchor="end" x="1058.0" y="377.0" fill="#000000" style="font-size:12px">16-23</text>
<text text-anchor="end" x="1058.0" y="397.0" fill="#000000" style="font-size:12px">24-31</text>
<text text-anchor="start" x="1082.0" y="337.0" fill="#000000" style="font-size:12px">0-31</text>
<path d="M 1068,338 L 1072,338 L 1072,402 L 1068,402 Z" stroke="#000000" stroke-width="2.8" fill="none"/>
<circle cx="1060.0" cy="340.0" r="2.0" stroke="#000000" stroke-width="2.8" fill="#000000" />
<circle cx="1060.0" cy="360.0" r="2.0" stroke="#000000" stroke-width="2.8" fill="#000000" />
<circle cx="1060.0" cy="380.0" r="2.0" stroke="#000000" stroke-width="2.8" fill="#000000" />
<circle cx="1060.0" cy="400.0" r="2.0" stroke="#000000" stroke-width="2.8" fill="#000000" />
<circle cx="1080.0" cy="340.0" r="2.0" stroke="#000000" stroke-width="2.8" fill="#000000" />
</g>
<g>
<path d="M 801,276 L 839,285 L 839,355 L 801,364 Z" stroke="#000000" stroke-width="2.8" fill="none"/>
<text text-anchor="start" x="803.0" y="295.5" fill="#000000" style="font-size:18px">0</text>
<circle cx="820.0" cy="360.0" r="2.0" stroke="#000000" stroke-width="2.8" fill="#000000" />
<circle cx="800.0" cy="280.0" r="2.0" stroke="#000000" stroke-width="2.8" fill="#000000" />
<circle cx="800.0" cy="300.0" r="2.0" stroke="#000000" stroke-width="2.8" fill="#000000" />
<circle cx="800.0" cy="320.0" r="2.0" stroke="#000000" stroke-width="2.8" fill="#000000" />
<circle cx="800.0" cy="340.0" r="2.0" stroke="#000000" stroke-width="2.8" fill="#000000" />
<circle cx="840.0" cy="320.0" r="2.0" stroke="#000000" stroke-width="2.8" fill="#000000" />
</g>
<g>
<path d="M 681,290 L 739,290 L 739,350 L 681,350 Z" stroke="#000000" stroke-width="2.8" fill="none"/>
<text text-anchor="start" x="684.0" y="306.75" fill="#000000" style="font-size:18px">a</text>
<text text-anchor="start" x="684.0" y="326.75" fill="#000000" style="font-size:18px">b</text>
<text text-anchor="start" x="684.0" y="346.75" fill="#000000" style="font-size:18px">c<tspan style="font-size:80%;baseline-shift:sub;">i</tspan></text>
<text text-anchor="end" x="736.0" y="306.75" fill="#000000" style="font-size:18px">s</text>
<text text-anchor="end" x="736.0" y="326.75" fill="#000000" style="font-size:18px">c<tspan style="font-size:80%;baseline-shift:sub;">o</tspan></text>
<text text-anchor="middle" x="710.0" y="367.5" fill="#000000" style="font-size:18px">Add</text>
<circle cx="680.0" cy="300.0" r="2.0" stroke="#000000" stroke-width="2.8" fill="#000000" />
<circle cx="680.0" cy="320.0" r="2.0" stroke="#000000" stroke-width="2.8" fill="#000000" />
<circle cx="680.0" cy="340.0" r="2.0" stroke="#000000" stroke-width="2.8" fill="#000000" />
<circle cx="740.0" cy="300.0" r="2.0" stroke="#000000" stroke-width="2.8" fill="#000000" />
<circle cx="740.0" cy="320.0" r="2.0" stroke="#000000" stroke-width="2.8" fill="#000000" />
</g>
<g>
<text text-anchor="end" x="657.0" y="329.0" fill="#000000" style="font-size:24px">1</text>
<circle cx="660.0" cy="320.0" r="2.0" stroke="#000000" stroke-width="2.8" fill="#000000" />
</g>
<g>
<text text-anchor="end" x="657.0" y="349.0" fill="#000000" style="font-size:24px">0</text>
<circle cx="660.0" cy="340.0" r="2.0" stroke="#000000" stroke-width="2.8" fill="#000000" />
</g>
<g>
<path d="M 801,396 L 839,405 L 839,475 L 801,484 Z" stroke="#000000" stroke-width="2.8" fill="none"/>
<text text-anchor="start" x="803.0" y="415.5" fill="#000000" style="font-size:18px">0</text>
<circle cx="820.0" cy="480.0" r="2.0" stroke="#000000" stroke-width="2.8" fill="#000000" />
<circle cx="800.0" cy="400.0" r="2.0" stroke="#000000" stroke-width="2.8" fill="#000000" />
<circle cx="800.0" cy="420.0" r="2.0" stroke="#000000" stroke-width="2.8" fill="#000000" />
<circle cx="800.0" cy="440.0" r="2.0" stroke="#000000" stroke-width="2.8" fill="#000000" />
<circle cx="800.0" cy="460.0" r="2.0" stroke="#000000" stroke-width="2.8" fill="#000000" />
<circle cx="840.0" cy="440.0" r="2.0" stroke="#000000" stroke-width="2.8" fill="#000000" />
</g>
<g>
<path d="M 681,410 L 739,410 L 739,470 L 681,470 Z" stroke="#000000" stroke-width="2.8" fill="none"/>
<text text-anchor="start" x="684.0" y="426.75" fill="#000000" style="font-size:18px">a</text>
<text text-anchor="start" x="684.0" y="446.75" fill="#000000" style="font-size:18px">b</text>
<text text-anchor="start" x="684.0" y="466.75" fill="#000000" style="font-size:18px">c<tspan style="font-size:80%;baseline-shift:sub;">i</tspan></text>
<text text-anchor="end" x="736.0" y="426.75" fill="#000000" style="font-size:18px">s</text>
<text text-anchor="end" x="736.0" y="446.75" fill="#000000" style="font-size:18px">c<tspan style="font-size:80%;baseline-shift:sub;">o</tspan></text>
<text text-anchor="middle" x="710.0" y="487.5" fill="#000000" style="font-size:18px">Add</text>
<circle cx="680.0" cy="420.0" r="2.0" stroke="#000000" stroke-width="2.8" fill="#000000" />
<circle cx="680.0" cy="440.0" r="2.0" stroke="#000000" stroke-width="2.8" fill="#000000" />
<circle cx="680.0" cy="460.0" r="2.0" stroke="#000000" stroke-width="2.8" fill="#000000" />
<circle cx="740.0" cy="420.0" r="2.0" stroke="#000000" stroke-width="2.8" fill="#000000" />
<circle cx="740.0" cy="440.0" r="2.0" stroke="#000000" stroke-width="2.8" fill="#000000" />
</g>
<g>
<text text-anchor="end" x="657.0" y="449.0" fill="#000000" style="font-size:24px">1</text>
<circle cx="660.0" cy="440.0" r="2.0" stroke="#000000" stroke-width="2.8" fill="#000000" />
</g>
<g>
<text text-anchor="end" x="657.0" y="469.0" fill="#000000" style="font-size:24px">0</text>
<circle cx="660.0" cy="460.0" r="2.0" stroke="#000000" stroke-width="2.8" fill="#000000" />
</g>
<g>
<path d="M 801,516 L 839,525 L 839,595 L 801,604 Z" stroke="#000000" stroke-width="2.8" fill="none"/>
<text text-anchor="start" x="803.0" y="535.5" fill="#000000" style="font-size:18px">0</text>
<circle cx="820.0" cy="600.0" r="2.0" stroke="#000000" stroke-width="2.8" fill="#000000" />
<circle cx="800.0" cy="520.0" r="2.0" stroke="#000000" stroke-width="2.8" fill="#000000" />
<circle cx="800.0" cy="540.0" r="2.0" stroke="#000000" stroke-width="2.8" fill="#000000" />
<circle cx="800.0" cy="560.0" r="2.0" stroke="#000000" stroke-width="2.8" fill="#000000" />
<circle cx="800.0" cy="580.0" r="2.0" stroke="#000000" stroke-width="2.8" fill="#000000" />
<circle cx="840.0" cy="560.0" r="2.0" stroke="#000000" stroke-width="2.8" fill="#000000" />
</g>
<g>
<path d="M 681,530 L 739,530 L 739,590 L 681,590 Z" stroke="#000000" stroke-width="2.8" fill="none"/>
<text text-anchor="start" x="684.0" y="546.75" fill="#000000" style="font-size:18px">a</text>
<text text-anchor="start" x="684.0" y="566.75" fill="#000000" style="font-size:18px">b</text>
<text text-anchor="start" x="684.0" y="586.75" fill="#000000" style="font-size:18px">c<tspan style="font-size:80%;baseline-shift:sub;">i</tspan></text>
<text text-anchor="end" x="736.0" y="546.75" fill="#000000" style="font-size:18px">s</text>
<text text-anchor="end" x="736.0" y="566.75" fill="#000000" style="font-size:18px">c<tspan style="font-size:80%;baseline-shift:sub;">o</tspan></text>
<text text-anchor="middle" x="710.0" y="607.5" fill="#000000" style="font-size:18px">Add</text>
<circle cx="680.0" cy="540.0" r="2.0" stroke="#000000" stroke-width="2.8" fill="#000000" />
<circle cx="680.0" cy="560.0" r="2.0" stroke="#000000" stroke-width="2.8" fill="#000000" />
<circle cx="680.0" cy="580.0" r="2.0" stroke="#000000" stroke-width="2.8" fill="#000000" />
<circle cx="740.0" cy="540.0" r="2.0" stroke="#000000" stroke-width="2.8" fill="#000000" />
<circle cx="740.0" cy="560.0" r="2.0" stroke="#000000" stroke-width="2.8" fill="#000000" />
</g>
<g>
<text text-anchor="end" x="657.0" y="569.0" fill="#000000" style="font-size:24px">1</text>
<circle cx="660.0" cy="560.0" r="2.0" stroke="#000000" stroke-width="2.8" fill="#000000" />
</g>
<g>
<text text-anchor="end" x="657.0" y="589.0" fill="#000000" style="font-size:24px">0</text>
<circle cx="660.0" cy="580.0" r="2.0" stroke="#000000" stroke-width="2.8" fill="#000000" />
</g>
</g>
</svg>