<?xml version="1.0" encoding="UTF-8" standalone="no"?>
<!-- Created with Digital by H.Neemann -->
<!-- created: Tue Nov 07 09:46:58 BRT 2023 -->

<svg
   xmlns:svg="http://www.w3.org/2000/svg"
   xmlns="http://www.w3.org/2000/svg"
   width="104.25mm"
   height="78.0mm"
   viewBox="462 -54 695 520">
<g stroke-linecap="square">
<path d="M 560,320 L 580,320 L 580,-40" stroke="#000000" stroke-width="2.8" fill="none"/>
<path d="M 780,0 L 800,0" stroke="#000000" stroke-width="2.8" fill="none"/>
<path d="M 600,420 L 780,420 L 820,420 L 880,420 L 940,420 L 1000,420 L 1000,400 L 1000,396" stroke="#000000" stroke-width="2.8" fill="none"/>
<path d="M 820,280 L 820,100 L 1020,100" stroke="#000000" stroke-width="2.8" fill="none"/>
<path d="M 660,60 L 660,100 L 780,100 L 780,80 L 820,80 L 820,40" stroke="#000000" stroke-width="2.8" fill="none"/>
<path d="M 600,-40 L 760,-40 L 760,40 L 800,40" stroke="#000000" stroke-width="2.8" fill="none"/>
<path d="M 560,360 L 580,360" stroke="#000000" stroke-width="2.8" fill="none"/>
<path d="M 680,40 L 720,40" stroke="#000000" stroke-width="2.8" fill="none"/>
<path d="M 600,460 L 760,460 L 920,460 L 1040,460 L 1040,400 L 1040,396" stroke="#000000" stroke-width="2.8" fill="none"/>
<path d="M 900,280 L 900,140 L 1020,140" stroke="#000000" stroke-width="2.8" fill="none"/>
<path d="M 600,400 L 980,400 L 980,340" stroke="#000000" stroke-width="2.8" fill="none"/>
<path d="M 640,80 L 720,80" stroke="#000000" stroke-width="2.8" fill="none"/>
<path d="M 860,380 L 860,-20 L 1020,-20" stroke="#000000" stroke-width="2.8" fill="none"/>
<path d="M 940,420 L 940,180 L 1020,180" stroke="#000000" stroke-width="2.8" fill="none"/>
<path d="M 1040,320 L 1040,340 L 1060,340 L 1060,440 L 900,440 L 800,440 L 740,440 L 600,440" stroke="#000000" stroke-width="2.8" fill="none"/>
<path d="M 620,20 L 640,20" stroke="#000000" stroke-width="2.8" fill="none"/>
<path d="M 840,20 L 1020,20" stroke="#000000" stroke-width="2.8" fill="none"/>
<path d="M 760,60 L 1020,60" stroke="#000000" stroke-width="2.8" fill="none"/>
<path d="M 600,0 L 600,60 L 640,60" stroke="#000000" stroke-width="2.8" fill="none"/>
<path d="M 600,380 L 720,380 L 840,380 L 860,380 L 960,380 L 960,340" stroke="#000000" stroke-width="2.8" fill="none"/>
<path d="M 1000,240 L 1000,220 L 1020,220" stroke="#000000" stroke-width="2.8" fill="none"/>
<path d="M 800,360 L 800,440" stroke="#000000" stroke-width="2.8" fill="none"/>
<path d="M 900,340 L 900,440" stroke="#000000" stroke-width="2.8" fill="none"/>
<path d="M 740,340 L 740,440" stroke="#000000" stroke-width="2.8" fill="none"/>
<path d="M 740,80 L 740,280" stroke="#000000" stroke-width="2.8" fill="none"/>
<path d="M 840,336 L 840,340 L 840,380" stroke="#000000" stroke-width="2.8" fill="none"/>
<path d="M 780,100 L 780,420" stroke="#000000" stroke-width="2.8" fill="none"/>
<path d="M 720,360 L 720,380" stroke="#000000" stroke-width="2.8" fill="none"/>
<path d="M 880,360 L 880,420" stroke="#000000" stroke-width="2.8" fill="none"/>
<path d="M 820,333 L 820,340 L 820,420" stroke="#000000" stroke-width="2.8" fill="none"/>
<path d="M 920,360 L 920,460" stroke="#000000" stroke-width="2.8" fill="none"/>
<path d="M 760,340 L 760,460" stroke="#000000" stroke-width="2.8" fill="none"/>
<path d="M 1020,320 L 1020,340" stroke="#000000" stroke-width="2.8" fill="none"/>
<path d="M 800,340 L 800,336" stroke="#000000" stroke-width="2.8" fill="none"/>
<path d="M 580,360 L 590,360 L 600,360" stroke="#000000" stroke-width="2.8" fill="none"/>
<path d="M 600,380 L 590,380" stroke="#000000" stroke-width="2.8" fill="none"/>
<path d="M 600,400 L 590,400" stroke="#000000" stroke-width="2.8" fill="none"/>
<path d="M 600,420 L 590,420" stroke="#000000" stroke-width="2.8" fill="none"/>
<path d="M 600,440 L 590,440" stroke="#000000" stroke-width="2.8" fill="none"/>
<path d="M 600,460 L 590,460" stroke="#000000" stroke-width="2.8" fill="none"/>
<path d="M 580,-40 L 590,-40 L 600,-40" stroke="#000000" stroke-width="2.8" fill="none"/>
<path d="M 600,-20 L 590,-20" stroke="#000000" stroke-width="2.8" fill="none"/>
<path d="M 600,0 L 590,0" stroke="#000000" stroke-width="2.8" fill="none"/>
<path d="M 960,319 L 969,319" stroke="#000000" stroke-width="2.8" fill="none"/>
<path d="M 1040,319 L 1031,319" stroke="#000000" stroke-width="2.8" fill="none"/>
<g>
<circle cx="780.0" cy="420.0" r="4.0" stroke="#000000" stroke-width="2.8" fill="#000000" />
<circle cx="820.0" cy="420.0" r="4.0" stroke="#000000" stroke-width="2.8" fill="#000000" />
<circle cx="880.0" cy="420.0" r="4.0" stroke="#000000" stroke-width="2.8" fill="#000000" />
<circle cx="940.0" cy="420.0" r="4.0" stroke="#000000" stroke-width="2.8" fill="#000000" />
<circle cx="780.0" cy="100.0" r="4.0" stroke="#000000" stroke-width="2.8" fill="#000000" />
<circle cx="760.0" cy="460.0" r="4.0" stroke="#000000" stroke-width="2.8" fill="#000000" />
<circle cx="920.0" cy="460.0" r="4.0" stroke="#000000" stroke-width="2.8" fill="#000000" />
<circle cx="740.0" cy="440.0" r="4.0" stroke="#000000" stroke-width="2.8" fill="#000000" />
<circle cx="800.0" cy="440.0" r="4.0" stroke="#000000" stroke-width="2.8" fill="#000000" />
<circle cx="900.0" cy="440.0" r="4.0" stroke="#000000" stroke-width="2.8" fill="#000000" />
<circle cx="720.0" cy="380.0" r="4.0" stroke="#000000" stroke-width="2.8" fill="#000000" />
<circle cx="860.0" cy="380.0" r="4.0" stroke="#000000" stroke-width="2.8" fill="#000000" />
<circle cx="840.0" cy="380.0" r="4.0" stroke="#000000" stroke-width="2.8" fill="#000000" />
</g>
<g>
<circle cx="556.0" cy="360.0" r="4.0" stroke="#000000" stroke-width="2.8" fill="none" />
<text text-anchor="end" x="546.0" y="369.0" fill="#000000" style="font-size:24px"><tspan style="font-style:italic;">Opcode</tspan></text>
<circle cx="560.0" cy="360.0" r="2.0" stroke="#000000" stroke-width="2.8" fill="#000000" />
</g>
<g>
<circle cx="556.0" cy="320.0" r="4.0" stroke="#000000" stroke-width="2.8" fill="none" />
<text text-anchor="end" x="546.0" y="329.0" fill="#000000" style="font-size:24px"><tspan style="font-style:italic;">Rem</tspan></text>
<circle cx="560.0" cy="320.0" r="2.0" stroke="#000000" stroke-width="2.8" fill="#000000" />
</g>
<g>
<text text-anchor="end" x="578.0" y="357.0" fill="#000000" style="font-size:12px">0-6</text>
<text text-anchor="start" x="602.0" y="357.0" fill="#000000" style="font-size:12px">0,1</text>
<text text-anchor="start" x="602.0" y="377.0" fill="#000000" style="font-size:12px">2</text>
<text text-anchor="start" x="602.0" y="397.0" fill="#000000" style="font-size:12px">3</text>
<text text-anchor="start" x="602.0" y="417.0" fill="#000000" style="font-size:12px">4</text>
<text text-anchor="start" x="602.0" y="437.0" fill="#000000" style="font-size:12px">5</text>
<text text-anchor="start" x="602.0" y="457.0" fill="#000000" style="font-size:12px">6</text>
<path d="M 588,358 L 592,358 L 592,462 L 588,462 Z" stroke="#000000" stroke-width="2.8" fill="none"/>
<circle cx="580.0" cy="360.0" r="2.0" stroke="#000000" stroke-width="2.8" fill="#000000" />
<circle cx="600.0" cy="360.0" r="2.0" stroke="#000000" stroke-width="2.8" fill="#000000" />
<circle cx="600.0" cy="380.0" r="2.0" stroke="#000000" stroke-width="2.8" fill="#000000" />
<circle cx="600.0" cy="400.0" r="2.0" stroke="#000000" stroke-width="2.8" fill="#000000" />
<circle cx="600.0" cy="420.0" r="2.0" stroke="#000000" stroke-width="2.8" fill="#000000" />
<circle cx="600.0" cy="440.0" r="2.0" stroke="#000000" stroke-width="2.8" fill="#000000" />
<circle cx="600.0" cy="460.0" r="2.0" stroke="#000000" stroke-width="2.8" fill="#000000" />
</g>
<g>
<circle cx="1024.0" cy="60.0" r="4.0" stroke="#000000" stroke-width="2.8" fill="none" />
<text text-anchor="start" x="1034.0" y="69.0" fill="#000000" style="font-size:24px"><tspan style="font-style:italic;">Func 7</tspan></text>
<circle cx="1020.0" cy="60.0" r="2.0" stroke="#000000" stroke-width="2.8" fill="#000000" />
</g>
<g>
<text text-anchor="end" x="578.0" y="-43.0" fill="#000000" style="font-size:12px">0-19</text>
<text text-anchor="start" x="602.0" y="-43.0" fill="#000000" style="font-size:12px">0-2</text>
<text text-anchor="start" x="602.0" y="-23.0" fill="#000000" style="font-size:12px">3-12</text>
<text text-anchor="start" x="602.0" y="-3.0" fill="#000000" style="font-size:12px">13-19</text>
<path d="M 588,-42 L 592,-42 L 592,2 L 588,2 Z" stroke="#000000" stroke-width="2.8" fill="none"/>
<circle cx="580.0" cy="-40.0" r="2.0" stroke="#000000" stroke-width="2.8" fill="#000000" />
<circle cx="600.0" cy="-40.0" r="2.0" stroke="#000000" stroke-width="2.8" fill="#000000" />
<circle cx="600.0" cy="-20.0" r="2.0" stroke="#000000" stroke-width="2.8" fill="#000000" />
<circle cx="600.0" cy="0.0" r="2.0" stroke="#000000" stroke-width="2.8" fill="#000000" />
</g>
<g>
<circle cx="1024.0" cy="20.0" r="4.0" stroke="#000000" stroke-width="2.8" fill="none" />
<text text-anchor="start" x="1034.0" y="29.0" fill="#000000" style="font-size:24px"><tspan style="font-style:italic;">Func 3</tspan></text>
<circle cx="1020.0" cy="20.0" r="2.0" stroke="#000000" stroke-width="2.8" fill="#000000" />
</g>
<g>
<circle cx="1024.0" cy="100.0" r="4.0" stroke="#000000" stroke-width="2.8" fill="none" />
<text text-anchor="start" x="1034.0" y="109.0" fill="#000000" style="font-size:24px"><tspan style="font-style:italic;">Reg Store</tspan></text>
<circle cx="1020.0" cy="100.0" r="2.0" stroke="#000000" stroke-width="2.8" fill="#000000" />
</g>
<g>
<path d="M 930,310 L 930,339 L 870,339 L 870,310 C 870,300 880,280 900,281 C 920,281 930,300 930,310 Z" stroke="#000000" stroke-width="2.8" fill="none"/>
<circle cx="880.0" cy="350.0" r="8.0" stroke="#000000" stroke-width="2.8" fill="none" />
<circle cx="920.0" cy="350.0" r="8.0" stroke="#000000" stroke-width="2.8" fill="none" />
<circle cx="880.0" cy="360.0" r="2.0" stroke="#000000" stroke-width="2.8" fill="#000000" />
<circle cx="900.0" cy="340.0" r="2.0" stroke="#000000" stroke-width="2.8" fill="#000000" />
<circle cx="920.0" cy="360.0" r="2.0" stroke="#000000" stroke-width="2.8" fill="#000000" />
<circle cx="900.0" cy="280.0" r="2.0" stroke="#000000" stroke-width="2.8" fill="#000000" />
</g>
<g>
<circle cx="1024.0" cy="140.0" r="4.0" stroke="#000000" stroke-width="2.8" fill="none" />
<text text-anchor="start" x="1034.0" y="149.0" fill="#000000" style="font-size:24px"><tspan style="font-style:italic;">Mem Store</tspan></text>
<circle cx="1020.0" cy="140.0" r="2.0" stroke="#000000" stroke-width="2.8" fill="#000000" />
</g>
<g>
<circle cx="1024.0" cy="180.0" r="4.0" stroke="#000000" stroke-width="2.8" fill="none" />
<text text-anchor="start" x="1034.0" y="189.0" fill="#000000" style="font-size:24px"><tspan style="font-style:italic;">Load Alu</tspan></text>
<circle cx="1020.0" cy="180.0" r="2.0" stroke="#000000" stroke-width="2.8" fill="#000000" />
</g>
<g>
<circle cx="1024.0" cy="220.0" r="4.0" stroke="#000000" stroke-width="2.8" fill="none" />
<text text-anchor="start" x="1034.0" y="229.0" fill="#000000" style="font-size:24px"><tspan style="font-style:italic;">Lau IMM</tspan></text>
<circle cx="1020.0" cy="220.0" r="2.0" stroke="#000000" stroke-width="2.8" fill="#000000" />
</g>
<g>
<path d="M 1050,390 L 1050,400 C 1040,390 1000,390 990,400 L 990,390 C 990,380 1000,360 1020,340 C 1040,360 1050,380 1050,390 Z" stroke="#000000" stroke-width="2.8" fill="none"/>
<circle cx="1000.0" cy="400.0" r="2.0" stroke="#000000" stroke-width="2.8" fill="#000000" />
<circle cx="1040.0" cy="400.0" r="2.0" stroke="#000000" stroke-width="2.8" fill="#000000" />
<circle cx="1020.0" cy="340.0" r="2.0" stroke="#000000" stroke-width="2.8" fill="#000000" />
</g>
<g>
<path d="M 850,330 L 850,340 C 840,330 800,330 790,340 L 790,330 C 790,320 800,300 820,280 C 840,300 850,320 850,330 Z" stroke="#000000" stroke-width="2.8" fill="none"/>
<circle cx="800.0" cy="350.0" r="8.0" stroke="#000000" stroke-width="2.8" fill="none" />
<circle cx="800.0" cy="360.0" r="2.0" stroke="#000000" stroke-width="2.8" fill="#000000" />
<circle cx="820.0" cy="340.0" r="2.0" stroke="#000000" stroke-width="2.8" fill="#000000" />
<circle cx="840.0" cy="340.0" r="2.0" stroke="#000000" stroke-width="2.8" fill="#000000" />
<circle cx="820.0" cy="280.0" r="2.0" stroke="#000000" stroke-width="2.8" fill="#000000" />
</g>
<g>
<path d="M 1030,290 L 1030,319 L 970,319 L 970,290 C 970,280 980,260 1000,261 C 1020,261 1030,280 1030,290 Z" stroke="#000000" stroke-width="2.8" fill="none"/>
<circle cx="960.0" cy="330.0" r="8.0" stroke="#000000" stroke-width="2.8" fill="none" />
<circle cx="980.0" cy="330.0" r="8.0" stroke="#000000" stroke-width="2.8" fill="none" />
<circle cx="1000.0" cy="250.0" r="9.0" stroke="#000000" stroke-width="2.8" fill="none" />
<circle cx="960.0" cy="340.0" r="2.0" stroke="#000000" stroke-width="2.8" fill="#000000" />
<circle cx="980.0" cy="340.0" r="2.0" stroke="#000000" stroke-width="2.8" fill="#000000" />
<circle cx="1020.0" cy="320.0" r="2.0" stroke="#000000" stroke-width="2.8" fill="#000000" />
<circle cx="1040.0" cy="320.0" r="2.0" stroke="#000000" stroke-width="2.8" fill="#000000" />
<circle cx="1000.0" cy="240.0" r="2.0" stroke="#000000" stroke-width="2.8" fill="#000000" />
</g>
<g>
<circle cx="1024.0" cy="-20.0" r="4.0" stroke="#000000" stroke-width="2.8" fill="none" />
<text text-anchor="start" x="1034.0" y="-11.0" fill="#000000" style="font-size:24px"><tspan style="font-style:italic;">Load PC</tspan></text>
<circle cx="1020.0" cy="-20.0" r="2.0" stroke="#000000" stroke-width="2.8" fill="#000000" />
</g>
<g>
<path d="M 721,36 L 759,45 L 759,75 L 721,84 Z" stroke="#000000" stroke-width="2.8" fill="none"/>
<text text-anchor="start" x="723.0" y="55.5" fill="#000000" style="font-size:18px">0</text>
<circle cx="740.0" cy="80.0" r="2.0" stroke="#000000" stroke-width="2.8" fill="#000000" />
<circle cx="720.0" cy="40.0" r="2.0" stroke="#000000" stroke-width="2.8" fill="#000000" />
<circle cx="720.0" cy="80.0" r="2.0" stroke="#000000" stroke-width="2.8" fill="#000000" />
<circle cx="760.0" cy="60.0" r="2.0" stroke="#000000" stroke-width="2.8" fill="#000000" />
</g>
<g>
<path d="M 770,310 L 770,339 L 710,339 L 710,310 C 710,300 720,280 740,281 C 760,281 770,300 770,310 Z" stroke="#000000" stroke-width="2.8" fill="none"/>
<circle cx="720.0" cy="350.0" r="8.0" stroke="#000000" stroke-width="2.8" fill="none" />
<circle cx="720.0" cy="360.0" r="2.0" stroke="#000000" stroke-width="2.8" fill="#000000" />
<circle cx="740.0" cy="340.0" r="2.0" stroke="#000000" stroke-width="2.8" fill="#000000" />
<circle cx="760.0" cy="340.0" r="2.0" stroke="#000000" stroke-width="2.8" fill="#000000" />
<circle cx="740.0" cy="280.0" r="2.0" stroke="#000000" stroke-width="2.8" fill="#000000" />
</g>
<g>
<text text-anchor="end" x="637.0" y="89.0" fill="#000000" style="font-size:24px">0x20</text>
<circle cx="640.0" cy="80.0" r="2.0" stroke="#000000" stroke-width="2.8" fill="#000000" />
</g>
<g>
<path d="M 641,16 L 679,25 L 679,55 L 641,64 Z" stroke="#000000" stroke-width="2.8" fill="none"/>
<text text-anchor="start" x="643.0" y="35.5" fill="#000000" style="font-size:18px">0</text>
<circle cx="660.0" cy="60.0" r="2.0" stroke="#000000" stroke-width="2.8" fill="#000000" />
<circle cx="640.0" cy="20.0" r="2.0" stroke="#000000" stroke-width="2.8" fill="#000000" />
<circle cx="640.0" cy="60.0" r="2.0" stroke="#000000" stroke-width="2.8" fill="#000000" />
<circle cx="680.0" cy="40.0" r="2.0" stroke="#000000" stroke-width="2.8" fill="#000000" />
</g>
<g>
<text text-anchor="end" x="617.0" y="29.0" fill="#000000" style="font-size:24px">0</text>
<circle cx="620.0" cy="20.0" r="2.0" stroke="#000000" stroke-width="2.8" fill="#000000" />
</g>
<g>
<path d="M 801,-4 L 839,5 L 839,35 L 801,44 Z" stroke="#000000" stroke-width="2.8" fill="none"/>
<text text-anchor="start" x="803.0" y="15.5" fill="#000000" style="font-size:18px">0</text>
<circle cx="820.0" cy="40.0" r="2.0" stroke="#000000" stroke-width="2.8" fill="#000000" />
<circle cx="800.0" cy="0.0" r="2.0" stroke="#000000" stroke-width="2.8" fill="#000000" />
<circle cx="800.0" cy="40.0" r="2.0" stroke="#000000" stroke-width="2.8" fill="#000000" />
<circle cx="840.0" cy="20.0" r="2.0" stroke="#000000" stroke-width="2.8" fill="#000000" />
</g>
<g>
<text text-anchor="end" x="777.0" y="9.0" fill="#000000" style="font-size:24px">0</text>
<circle cx="780.0" cy="0.0" r="2.0" stroke="#000000" stroke-width="2.8" fill="#000000" />
</g>
</g>
</svg>